<?xml version="1.0" standalone="no"?><!DOCTYPE svg PUBLIC "-//W3C//DTD SVG 1.1//EN" "http://www.w3.org/Graphics/SVG/1.1/DTD/svg11.dtd"><svg t="1526566595065" class="icon" style="" viewBox="0 0 1024 1024" version="1.1" xmlns="http://www.w3.org/2000/svg" p-id="2007" xmlns:xlink="http://www.w3.org/1999/xlink" width="200" height="200"><defs><style type="text/css"></style></defs><path d="M922 477.8H546.2V102c0-18.9-15.3-34.2-34.2-34.2-18.9 0-34.2 15.3-34.2 34.2v375.8H102c-18.9 0-34.2 15.3-34.2 34.2 0 18.9 15.3 34.2 34.2 34.2h375.8V922c0 18.9 15.3 34.2 34.2 34.2 18.9 0 34.2-15.3 34.2-34.2V546.2H922c18.9 0 34.2-15.3 34.2-34.2 0-18.9-15.3-34.2-34.2-34.2z" p-id="2008"></path></svg>