<?xml version="1.0" standalone="no"?><!DOCTYPE svg PUBLIC "-//W3C//DTD SVG 1.1//EN" "http://www.w3.org/Graphics/SVG/1.1/DTD/svg11.dtd"><svg t="1529569083034" class="icon" style="" viewBox="0 0 1024 1024" version="1.1" xmlns="http://www.w3.org/2000/svg" p-id="2350" xmlns:xlink="http://www.w3.org/1999/xlink" width="200" height="200"><defs><style type="text/css"></style></defs><path d="M960 588.4v-152.8c0-26.6-21.4-48-48-48H636.4V112c0-26.6-21.4-48-48-48h-152.8c-26.6 0-48 21.4-48 48v275.6H112c-26.6 0-48 21.4-48 48v152.8c0 26.6 21.4 48 48 48h275.6V912c0 26.6 21.4 48 48 48h152.8c26.6 0 48-21.4 48-48V636.4H912c26.6 0 48-21.4 48-48z" p-id="2351"></path></svg>