<?xml version="1.0" standalone="no"?><!DOCTYPE svg PUBLIC "-//W3C//DTD SVG 1.1//EN" "http://www.w3.org/Graphics/SVG/1.1/DTD/svg11.dtd"><svg t="1529654671861" class="icon" style="" viewBox="0 0 1513 1024" version="1.1" xmlns="http://www.w3.org/2000/svg" p-id="3252" xmlns:xlink="http://www.w3.org/1999/xlink" width="295.5078125" height="200"><defs><style type="text/css"></style></defs><path d="M870.300907 1023.767136a56.796122 56.796122 0 0 1-34.077673-101.097097L1363.291245 512.602039 836.223234 102.534039a56.796122 56.796122 0 0 1-10.223302-79.514571A56.796122 56.796122 0 0 1 908.92227 13.932089l580.456366 454.368975a56.796122 56.796122 0 0 1 0 88.60195L908.92227 1011.271989a51.11651 51.11651 0 0 1-38.621363 12.495147zM56.980442 1023.767136a54.524277 54.524277 0 0 1-44.300975-21.582526 55.660199 55.660199 0 0 1 9.087379-79.514571l522.524322-410.068L21.766846 102.534039a55.660199 55.660199 0 0 1-9.087379-79.514571 56.796122 56.796122 0 0 1 79.51457-9.087379l579.320444 454.368975a56.796122 56.796122 0 0 1 0 88.60195l-579.320444 454.368975A51.11651 51.11651 0 0 1 56.980442 1023.767136z" fill="#2c2c2c" p-id="3253"></path></svg>