<?xml version="1.0" standalone="no"?><!DOCTYPE svg PUBLIC "-//W3C//DTD SVG 1.1//EN" "http://www.w3.org/Graphics/SVG/1.1/DTD/svg11.dtd"><svg t="1527761417217" class="icon" style="" viewBox="0 0 1024 1024" version="1.1" xmlns="http://www.w3.org/2000/svg" p-id="1192" xmlns:xlink="http://www.w3.org/1999/xlink" width="200" height="200"><defs><style type="text/css"></style></defs><path d="M539.5914666666666 142.85333333333335l5.684341886080802e-14 784.8074666666666c3.552713678800501e-15 22.30506666666667-18.081066666666658 40.38613333333333-40.38613333333332 40.38613333333334s-40.38613333333333-18.081066666666658-40.38613333333334-40.38613333333332l-5.684341886080802e-14-784.8074666666666c-3.552713678800501e-15-22.30506666666667 18.081066666666658-40.38613333333333 40.38613333333332-40.38613333333334s40.38613333333333 18.081066666666658 40.38613333333334 40.38613333333332z" p-id="1193"></path><path d="M847.5221333333333 379.2298666666666c0.0010666666666683255 9.899733333333334-3.6191999999999958 19.8208-10.929066666666664 27.611733333333333-15.254399999999997 16.256-40.79679999999999 17.06773333333334-57.053866666666664 1.8144000000000133l-273.9904-257.0986666666666-273.99253333333326 257.0986666666667c-16.255999999999997 15.254400000000002-41.7984 14.440533333333336-57.05279999999999-1.8143999999999956-15.255466666666665-16.25706666666666-14.439466666666675-41.800533333333334 1.8154666666666515-57.053866666666664l301.6117333333333-283.0144000000001c15.530666666666665-14.572800000000003 39.7088-14.572800000000006 55.2384-1.0658141036401503e-14l301.6106666666667 283.0144c8.468266666666667 7.945599999999998 12.745600000000003 18.681599999999996 12.745600000000007 29.443199999999997z" p-id="1194"></path></svg>