<?xml version="1.0" standalone="no"?><!DOCTYPE svg PUBLIC "-//W3C//DTD SVG 1.1//EN" "http://www.w3.org/Graphics/SVG/1.1/DTD/svg11.dtd"><svg t="1529462139479" class="icon" style="" viewBox="0 0 1024 1024" version="1.1" xmlns="http://www.w3.org/2000/svg" p-id="1968" xmlns:xlink="http://www.w3.org/1999/xlink" width="200" height="200"><defs><style type="text/css"></style></defs><path d="M725.33990717 512.1657009c0 0.00388361 0 0.00776723 0 0.01035631 0 11.82819618-4.95678704 22.49778062-12.90654658 30.04623328l-343.84748847 325.28769328c-7.40475891 7.00992475-17.4296633 11.31814811-28.45912937 11.31944263-22.88484757 0-41.43558099-18.55073342-41.43558099-41.43558098 0-11.85408695 4.97749965-22.54567854 12.95703356-30.09801483l312.11706089-295.21298014-312.09764282-295.4447025c-7.98082845-7.57952158-12.94667725-18.26981863-12.94667725-30.11872742 0-11.02428791 4.29786706-21.04401413 11.30908635-28.4772529 15.7221673-16.54937726 41.9870543-17.29503131 58.55584963-1.63629638l343.82936495 325.60226608c7.96788306 7.56528165 12.9246701 18.2348661 12.9246701 30.06306228 0 0.03236347 0 0.06602144 0 0.0983849z" p-id="1969"></path></svg>