<?xml version="1.0" standalone="no"?><!DOCTYPE svg PUBLIC "-//W3C//DTD SVG 1.1//EN" "http://www.w3.org/Graphics/SVG/1.1/DTD/svg11.dtd"><svg t="1527762169760" class="icon" style="" viewBox="0 0 1024 1024" version="1.1" xmlns="http://www.w3.org/2000/svg" p-id="1403" xmlns:xlink="http://www.w3.org/1999/xlink" width="200" height="200"><defs><style type="text/css"></style></defs><path d="M473.968 78.443l0 733.558-180.328-187.319c-4.796-4.795-12.57-4.79500001-17.367 0l-37.627 37.627c-4.795 4.796-4.79500001 12.57 0 17.367l227.011 235.807c0.229 0.272 0.465 0.541 0.721 0.797l1.259 1.259 35.009 36.367c2.568 2.567 5.99 3.746 9.352 3.564 3.369 0.188 6.8-0.991 9.372-3.562l36.267-37.627c0.241-0.243 0.463-0.496 0.68-0.752l227.05-235.852c4.797-4.796 4.797-12.57 0-17.367l-37.627-37.627c-4.795-4.795-12.569-4.795-17.367 0l-178.637 185.562 0-731.8c0-6.783-5.498-12.28-12.28000001-12.28l-53.21299999 0c-6.781 0-12.28 5.497-12.28 12.28z" p-id="1404"></path></svg>