<svg xmlns="http://www.w3.org/2000/svg" xmlns:xlink="http://www.w3.org/1999/xlink" viewBox="0 0 48 48">
  <defs>
    <style>
      .cls-1 {
        clip-path: url(#clip-Birthday_greeting_1);
      }

      .cls-2 {
        fill: #fff;
      }
    </style>
    <clipPath id="clip-Birthday_greeting_1">
      <rect width="48" height="48"/>
    </clipPath>
  </defs>
  <g id="Birthday_greeting_1" data-name="Birthday greeting – 1" class="cls-1">
    <path id="birthday_greeting" data-name="birthday greeting" class="cls-2" d="M46.636,40.65h-3.43V23.516A3.173,3.173,0,0,0,40,20.352H28.071V10.265A3.173,3.173,0,0,0,24.889,7.11H23.112a3.173,3.173,0,0,0-3.173,3.173V20.352H8a3.173,3.173,0,0,0-3.173,3.173V40.65H1.365a1.364,1.364,0,1,0,0,2.728H46.636a1.364,1.364,0,1,0,0-2.728ZM25.307,20.343H22.641V10.265a.444.444,0,0,1,.471-.489h1.777a.444.444,0,0,1,.444.444Zm15.108,4.506a2.888,2.888,0,0,0-1.28.738,11.455,11.455,0,0,0-1.378,1.777c-.222.329-.48.7-.764,1.1-1.084.889-1.511.631-3.768-1.831l-.053-.062a4.1,4.1,0,0,0-3.128-1.555c-1.777.044-3.288,1.537-4.612,3.128a2.017,2.017,0,0,1-1.422.72c-.782-.089-1.68-1.324-2.293-2.24l-.071-.107-.08-.08a4.577,4.577,0,0,0-3.555-1.662c-1.946.107-3.43,1.715-4.746,3.439l-.053.071a1.4,1.4,0,0,1-1.2.622,1.662,1.662,0,0,1-1.342-.986,6.221,6.221,0,0,0-3.155-3.039V23.516A.444.444,0,0,1,8,23.107H40a.444.444,0,0,1,.444.444ZM8.279,29.292a4.328,4.328,0,0,0,3.6,2.382A4.124,4.124,0,0,0,15.433,29.9c.524-.684,1.777-2.284,2.666-2.337a1.955,1.955,0,0,1,1.36.738c1.031,1.537,2.328,3.137,4.186,3.342a4.568,4.568,0,0,0,3.662-1.5l.116-.124c1.191-1.449,2.08-2.2,2.666-2.2.293,0,.631.222,1.049.667l.062.062a11.5,11.5,0,0,0,3.217,2.8,3.653,3.653,0,0,0,1.555.364,4.55,4.55,0,0,0,2.862-1.173l.124-.107.116-.151a15,15,0,0,0,.889-1.324l.4-.578V40.65H7.514v-12.5a6.132,6.132,0,0,1,.835,1.111Zm15.2-23.018a4.266,4.266,0,0,0,.587,0,2.08,2.08,0,0,0,1.555-.56,3.039,3.039,0,0,0,.524-2.542C25.947,2.053,24,.249,24,.178L23.778,0V.249s.347,2.391-.889,2.924A1.555,1.555,0,0,0,21.7,4.737a1.946,1.946,0,0,0,1.777,1.537Z" transform="translate(0 2)"/>
  </g>
</svg>
