<svg xmlns="http://www.w3.org/2000/svg" xmlns:xlink="http://www.w3.org/1999/xlink" viewBox="0 0 48 48">
  <defs>
    <style>
      .cls-1 {
        clip-path: url(#clip-calendar_reminder_1);
      }

      .cls-2 {
        fill: #fff;
      }
    </style>
    <clipPath id="clip-calendar_reminder_1">
      <rect width="48" height="48"/>
    </clipPath>
  </defs>
  <g id="calendar_reminder_1" data-name="calendar reminder – 1" class="cls-1">
    <g id="calender_reminder" data-name="calender reminder" transform="translate(-77.421 -78.08)">
      <path id="路径_21" data-name="路径 21" class="cls-2" d="M119.84,211.893H82.827a5.4,5.4,0,0,1-5.4-5.4V174.5a5.439,5.439,0,0,1,5.4-5.544H119.84a5.439,5.439,0,0,1,5.4,5.4v31.986a5.439,5.439,0,0,1-5.4,5.544ZM82.827,172.514a1.848,1.848,0,0,0-1.849,1.848v31.986a1.849,1.849,0,0,0,1.849,1.848H119.84a1.849,1.849,0,0,0,1.849-1.848V174.362a1.884,1.884,0,0,0-1.849-1.848Z" transform="translate(0 -85.813)"/>
      <path id="路径_22" data-name="路径 22" class="cls-2" d="M136.6,98.992H93.938a1.784,1.784,0,0,1,0-3.569H136.6a1.784,1.784,0,0,1,0,3.569Zm-11.554-8.243a1.781,1.781,0,0,1-1.778-1.784v-9.1a1.778,1.778,0,1,1,3.555,0v9.1A1.781,1.781,0,0,1,125.045,90.749Zm-19.7,0a1.781,1.781,0,0,1-1.778-1.784v-9.1a1.778,1.778,0,1,1,3.555,0v9.1A1.781,1.781,0,0,1,105.349,90.749Zm19.7,17.451H105.492a1.817,1.817,0,0,1-1.778-1.784,1.781,1.781,0,0,1,1.778-1.784h19.553a1.784,1.784,0,0,1,0,3.569Zm0,9.136H105.492a1.784,1.784,0,0,1,0-3.569h19.553a1.784,1.784,0,0,1,0,3.569Z" transform="translate(-13.917)"/>
    </g>
  </g>
</svg>
