<?xml version="1.0" standalone="no"?><!DOCTYPE svg PUBLIC "-//W3C//DTD SVG 1.1//EN" "http://www.w3.org/Graphics/SVG/1.1/DTD/svg11.dtd"><svg class="icon" width="42px" height="42.00px" viewBox="0 0 1024 1024" version="1.1" xmlns="http://www.w3.org/2000/svg"><path d="M524.8 800m-25.6 0a25.6 25.6 0 1 0 51.2 0 25.6 25.6 0 1 0-51.2 0Z" fill="#8a8a8a" /><path d="M1007.488 518.72c0-167.488-116.224-303.744-259.968-303.744-37.504 0-73.792 10.048-106.24 26.24a428.16 428.16 0 0 1 21.248 133.76c0 125.056-55.04 236.288-137.536 301.248 38.784 73.792 103.744 127.552 180.032 142.528l-8.768 26.24h30.016l-4.992 17.536a44.8 44.8 0 0 0 9.984 41.216c4.992 6.272 6.208 14.976 2.496 21.248l-30.016 52.48c-3.776 6.272-1.28 13.76 4.992 17.536 2.56 1.28 3.776 1.28 6.272 1.28 4.992 0 8.768-2.56 11.264-6.272l29.952-52.48a43.52 43.52 0 0 0-6.208-52.48c-3.776-5.056-6.272-11.328-3.776-17.536l6.272-24.96h19.968l-7.488-22.528c136.256-10.048 242.56-141.312 242.56-301.312zM882.56 619.968c-11.264 43.776-43.776 78.784-84.992 96.256-2.56 1.28-4.992 1.28-7.488 1.28a21.888 21.888 0 0 1-18.752-12.48 19.392 19.392 0 0 1 11.264-25.024c29.952-12.48 53.76-37.504 61.248-70.016a19.968 19.968 0 0 1 23.68-13.76c12.544 2.56 18.816 12.544 15.04 23.744zM636.224 362.56a408.96 408.96 0 0 0-21.248-132.48C569.984 94.976 457.6 0 326.272 0 156.16 0 17.472 162.56 17.472 362.496c0 181.248 113.792 331.264 262.528 357.504l-20.032 60.032h46.272l-12.48 48.704c-4.992 21.248 0 43.776 14.976 60.032a26.624 26.624 0 0 1 3.776 29.952l-42.496 76.288c-4.992 9.984-2.56 21.248 7.488 26.24 2.496 1.28 6.272 2.56 9.984 2.56a21.568 21.568 0 0 0 17.536-10.048l42.496-76.288c13.76-24.96 9.984-54.976-8.768-76.224a23.808 23.808 0 0 1-6.272-23.744l13.76-51.2c1.28-2.56 1.28-5.056 0-8.832h57.536l-20.032-61.248a267.84 267.84 0 0 0 118.784-56.256c80-62.464 133.76-172.48 133.76-297.472zM293.76 152.512C225.024 183.68 176.256 247.488 160 321.28a33.472 33.472 0 0 1-32.512 26.24c-2.496 0-3.712 0-6.208-1.28a32.768 32.768 0 0 1-25.024-38.72C115.008 213.76 178.752 133.76 266.24 92.48a33.408 33.408 0 0 1 43.776 16.256 33.408 33.408 0 0 1-16.256 43.776z" /></svg>
