<?xml version="1.0" standalone="no"?><!DOCTYPE svg PUBLIC "-//W3C//DTD SVG 1.1//EN" "http://www.w3.org/Graphics/SVG/1.1/DTD/svg11.dtd"><svg class="icon" width="32px" height="32.00px" viewBox="0 0 1024 1024" version="1.1" xmlns="http://www.w3.org/2000/svg"><path d="M929.751859 405.6064c-50.05824-50.06848-113.72544-81.58208-182.65088-91.14624v-108.544h-0.22528c0.04096-0.78848 0.0768-1.57184 0.0768-2.36544 0-34.28864-35.94752-63.32928-103.9616-83.98336-60.56448-18.40128-140.75904-28.53376-225.80224-28.53376-85.04832 0-165.23776 10.13248-225.80224 28.53376-68.01408 20.6592-103.9616 49.70496-103.9616 83.98336 0 2.39104 0.18944 4.75136 0.5376 7.0912h-0.07168v78.3872c-9.728 4.01408-21.00736 9.17504-32.06656 15.39072C18.647859 325.30944-0.132301 349.04064 0.000819 374.85568c0 2.3552 0.21504 4.72064 0.60928 7.08096H0.482099v120.4992H0.180019c0 17.01888 7.55712 32.83968 22.46144 47.0272 14.91456 14.17728 37.10464 26.25024 64.0768 36.27008v101.00736h-0.30208c0 17.56672 8.17152 34.09408 24.28928 49.13664 53.10976 49.53088 189.7216 77.7216 301.86496 77.7216 7.73632 0 15.34464-0.14336 22.81472-0.41472a325.632 325.632 0 0 0 39.28064 47.53408c60.78464 60.76928 141.5936 94.23872 227.54304 94.23872s166.76864-33.46944 227.53792-94.23872C990.531379 799.91808 1024.000819 719.10912 1024.000819 633.15456s-33.46944-166.76864-94.24896-227.54816zM123.336499 311.42912V257.55136c16.93184 11.29984 39.69024 21.38112 68.04992 29.98784 60.56448 18.4064 140.75392 28.53376 225.80736 28.53376 85.0432 0 165.23264-10.1376 225.80224-28.53376 28.69248-8.72448 51.67616-18.93888 68.6592-30.4128v54.37952a321.73568 321.73568 0 0 0-9.4464-0.1536c-85.95968 0-166.76352 33.47456-227.54304 94.25408a323.92704 323.92704 0 0 0-15.85152 17.03424C316.396339 428.85632 173.415219 391.18848 133.120819 352.88064c-5.85728-5.57056-9.07776-10.77248-9.07776-14.65344h-0.70656v-24.54016l0.64512-0.21504-0.64512-2.04288z m78.35648-157.95712c57.31328-17.41312 133.84704-26.99776 215.49568-26.99776s158.18752 9.58976 215.49056 26.99776c58.1888 17.67936 78.82752 38.02624 78.82752 50.07872 0 12.0576-20.63872 32.4096-78.82752 50.08384-57.29792 17.41312-133.8368 26.99776-215.49056 26.99776s-158.18752-9.58976-215.49568-26.99776c-58.18368-17.67936-78.82752-38.02624-78.82752-50.08384 0-12.05248 20.64384-32.40448 78.82752-50.07872zM87.895859 327.72096v10.50624h0.70144c0 14.08 6.76352 27.65312 20.10624 40.33536C157.507379 424.96 294.585139 458.58304 426.768179 458.74688c-106.25536 12.8-189.03552 3.12832-240.11264-7.39328-59.96032-12.35456-111.20128-33.31072-137.04704-56.06912-10.4448-9.1904-14.16192-16.58368-14.16192-20.5312-0.08704-15.37536 23.33184-33.152 52.44928-47.03232z m-40.84224 196.0448c-6.55872-6.23616-10.23488-12.22144-11.1872-18.20672h0.0512V429.71136c32.0256 23.7056 83.39456 43.96032 143.58016 56.35072 45.96736 9.472 95.62112 14.22848 147.03104 14.22848 27.70432 0 55.9104-1.38752 84.32128-4.15744a318.73024 318.73024 0 0 0-27.13088 90.57792c-66.64192 3.22048-140.17536-1.33632-202.06592-12.53888-64.98304-11.77088-112.78336-29.6704-134.59968-50.4064z m334.1056 131.2768c-89.14944 2.2016-173.0048-22.38976-220.07296-48.82944 56.28416 11.38176 120.5248 16.94208 180.52096 16.94208 13.25056 0 26.29632-0.29184 39.00928-0.82944a331.58656 331.58656 0 0 0-0.19968 10.8288c-0.00512 7.33696 0.256 14.63296 0.7424 21.888zM134.876979 709.9392c-8.20224-7.64416-12.55936-15.06816-12.98432-22.08256h0.256v-64.52736c26.51136 19.584 67.03616 37.4016 113.7664 49.76128 32.61952 8.63744 79.45728 17.56672 133.61664 17.56672 5.24288 0 10.56256-0.09728 15.93856-0.27648a318.5664 318.5664 0 0 0 29.2864 87.77728c-111.72352 0.50176-238.06976-29.23008-279.87968-68.21888z m567.3216 209.56672c-157.89056 0-286.34624-128.45568-286.34624-286.35648s128.45568-286.35648 286.34624-286.35648c157.90592 0 286.3616 128.4608 286.3616 286.35648s-128.45568 286.35648-286.3616 286.35648z"  /><path d="M796.053299 453.13536L739.072819 558.1312c-15.19104 28.46208-24.48896 47.38048-27.88864 56.74496h-0.96768c-10.03008-22.79424-38.2976-76.70272-84.86912-161.7408h-53.5808l99.67104 171.19744h-81.72544v37.82656h95.77472v52.1216h-95.77472v38.30272h95.77472v75.89888h47.51872v-75.89888h92.38528v-38.30272h-92.38528v-52.1216h92.38528v-37.82656h-79.2832l100.62336-171.19744h-50.67776z"  /></svg>