<?xml version="1.0" encoding="UTF-8"?>
<svg width="20px" height="13px" viewBox="0 0 20 13" version="1.1" xmlns="http://www.w3.org/2000/svg" xmlns:xlink="http://www.w3.org/1999/xlink">
    <!-- Generator: Sketch 55.2 (78181) - https://sketchapp.com -->
    <title>China</title>
    <desc>Created with Sketch.</desc>
    <g id="Page-1" stroke="none" stroke-width="1" fill="none" fill-rule="evenodd">
        <g id="Fides-suite-Legal-page-国旗切图" transform="translate(-488.000000, -34.000000)">
            <g id="China" transform="translate(488.000000, 34.000000)">
                <g id="zhongwen">
                    <polygon id="Path" fill="#DE2910" fill-rule="nonzero" points="0 0.0026805659 19.994201 0.0026805659 19.994201 12.9271118 0 12.9271118"></polygon>
                    <path d="M3.31584117,1.47202779 L3.73738397,2.73010672 L5.10725955,2.73010672 L4.00050201,3.50846364 L4.42204479,4.76919004 L3.31528724,3.99083313 L2.2085297,4.76919004 L2.63007248,3.50846364 L1.52331494,2.73010672 L2.89319052,2.73010672 L3.31584117,1.47202779 Z M6.88372173,0.81492513 L6.85713297,1.2501696 L7.27424428,1.41007694 L6.83719139,1.51862331 L6.80783295,1.9538678 L6.56687223,1.58269214 L6.13203505,1.69123851 L6.42008006,1.35659799 L6.17911934,0.987540339 L6.59623065,1.14744767 L6.88372173,0.81492513 L6.88372173,0.81492513 Z M8.42088499,2.22496897 L8.21537597,2.61308844 L8.53444121,2.92231324 L8.09018717,2.85189047 L7.8824624,3.24000992 L7.81322082,2.80688343 L7.36896678,2.73857863 L7.770568,2.54001821 L7.70243427,2.10953917 L8.01928378,2.41876396 L8.42088499,2.22496897 L8.42088499,2.22496897 Z M7.96112086,3.99083313 L8.0973883,4.4064863 L8.54828952,4.4064863 L8.18435574,4.66223215 L8.32062317,5.07576735 L7.95668939,4.81790354 L7.5927556,5.07364937 L7.73123877,4.66223215 L7.36730499,4.4064863 L7.81820621,4.4064863 L7.96112086,3.99083313 L7.96112086,3.99083313 Z M6.881506,5.31933483 L6.8527015,5.7545793 L7.26981283,5.91448663 L6.83497566,6.023033 L6.80617116,6.45827749 L6.56521044,6.08921983 L6.12815753,6.1977662 L6.41620253,5.86312567 L6.17524181,5.494068 L6.59456886,5.65397535 L6.881506,5.31933483 L6.881506,5.31933483 Z" id="Shape" fill="#FFDE00" fill-rule="nonzero"></path>
                </g>
            </g>
        </g>
    </g>
</svg>