<?xml version="1.0" standalone="no"?><!DOCTYPE svg PUBLIC "-//W3C//DTD SVG 1.1//EN" "http://www.w3.org/Graphics/SVG/1.1/DTD/svg11.dtd"><svg t="1568180589339" class="icon" viewBox="0 0 1024 1024" version="1.1" xmlns="http://www.w3.org/2000/svg" p-id="1951" xmlns:xlink="http://www.w3.org/1999/xlink" width="120" height="120"><defs><style type="text/css"></style></defs><path d="M640 256l0-256-448 0-192 192 0 576 384 0 0 256 640 0 0-768-384 0zM192 90.50112l0 101.49888-101.49888 0 101.49888-101.49888zM64 704l0-448 192 0 0-192 320 0 0 192-192 192 0 256-320 0zM576 346.50112l0 101.49888-101.49888 0 101.49888-101.49888zM960 960l-512 0 0-448 192 0 0-192 320 0 0 640z" p-id="1952"></path></svg>