<?xml version="1.0" encoding="UTF-8"?>
<svg width="18px" height="19px" viewBox="0 0 18 19" version="1.1" xmlns="http://www.w3.org/2000/svg" xmlns:xlink="http://www.w3.org/1999/xlink">
    <!-- Generator: Sketch 55.2 (78181) - https://sketchapp.com -->
    <title></title>
    <desc>Created with Sketch.</desc>
    <g id="Page-1" stroke="none" stroke-width="1" fill="none" fill-rule="evenodd">
        <g id="Loyalty-coupon-tile-view-切图" transform="translate(-1102.000000, -322.000000)" fill="#FFFFFF" fill-rule="nonzero">
            <g id="modify&amp;copy" transform="translate(836.000000, 316.000000)">
                <g id="copy" transform="translate(266.000000, 5.000000)">
                    <g transform="translate(0.000000, 1.003571)">
                        <path d="M12.8432432,18.0642857 L1.94594595,18.0642857 C0.875675689,18.0642857 0,17.1854826 0,16.11139 L0,5.17517374 C0,4.10108109 0.875675672,3.22227798 1.94594595,3.22227798 L12.8432432,3.22227798 C13.9135135,3.22227798 14.7891892,4.10108107 14.7891892,5.17517374 L14.7891892,16.11139 C14.7891892,17.1854826 13.9135135,18.0642857 12.8432432,18.0642857 Z M3.11351351,9.56918918 C2.52972972,9.56918918 2.14054054,9.95976834 2.14054054,10.5456371 C2.14054054,11.1315058 2.52972974,11.5220849 3.11351351,11.5220849 L6.42162162,11.5220849 L6.42162162,14.9396525 C6.42162162,15.5255212 6.81081082,15.9161004 7.39459459,15.9161004 C7.97837836,15.9161004 8.36756756,15.5255212 8.36756757,14.9396525 L8.36756757,11.5220849 L11.772973,11.5220849 C12.3567568,11.5220849 12.745946,11.1315058 12.745946,10.5456371 C12.745946,9.95976836 12.3567568,9.5691892 11.772973,9.56918918 L8.36756757,9.56918918 L8.36756757,6.24926642 C8.36756757,5.66339769 7.97837838,5.27281853 7.39459459,5.27281853 C6.8108108,5.27281853 6.42162162,5.66339769 6.42162162,6.24926642 L6.42162162,9.56918918 L3.11351351,9.56918918 Z" id="Shape"></path>
                        <path d="M16.054054,14.8420077 L15.8594595,14.8420077 L15.8594595,4.0034363 C15.8594595,2.92934365 14.9837838,2.05054054 13.9135135,2.05054054 L3.11351351,2.05054054 L3.11351351,1.95289576 C3.11351351,0.878803103 3.98918918,0 5.05945946,0 L15.9567568,0 C17.027027,0 17.9027027,0.878803085 17.9027027,1.95289576 L17.9027027,12.889112 C18,13.9632046 17.1243243,14.8420077 16.054054,14.8420077 L16.054054,14.8420077 Z" id="Path"></path>
                    </g>
                </g>
            </g>
        </g>
    </g>
</svg>
