<?xml version="1.0" encoding="UTF-8"?>
<svg width="22px" height="22px" viewBox="0 0 22 22" version="1.1" xmlns="http://www.w3.org/2000/svg" xmlns:xlink="http://www.w3.org/1999/xlink">
    <!-- Generator: Sketch 55.2 (78181) - https://sketchapp.com -->
    <title></title>
    <desc>Created with Sketch.</desc>
    <g id="Page-1" stroke="none" stroke-width="1" fill="none" fill-rule="evenodd">
        <g id="Coupon-Redemption-Analysis-切图" transform="translate(-1729.000000, -266.000000)" fill="#2777FF" fill-rule="nonzero">
            <g id="Group-3" transform="translate(1370.000000, 130.000000)">
                <g id="Vs-Average-rate--1.5" transform="translate(119.000000, 135.000000)">
                    <g id="shangsheng" transform="translate(240.000000, 1.000000)">
                        <path d="M20.3581125,5.65915429 L21.8625,1.0658141e-13 L15.66565,1.36940571 L17.2360375,2.80518857 L11.2583625,8.27049143 L8.7190125,5.94842286 L-3.60600438e-13,13.9210971 L1.661825,15.4409829 L1.661825,15.4401029 L8.7190125,8.98706286 L11.2583625,11.3090057 L18.897725,4.32432 L20.3581125,5.65915429 Z M1.9448,16.6762514 L5.078425,16.6762514 L5.078425,22 L1.9448,22 L1.9448,16.6762514 Z M7.1347375,14.0737143 L10.2680875,14.0737143 L10.2680875,22 L7.1347375,22 L7.1347375,14.0737143 Z M15.6536875,11.4354743 L15.6536875,22 L12.5197875,22 L12.5197875,11.4354743 L15.6536875,11.4354743 Z M17.758125,8.86989714 L20.8921625,8.86989714 L20.8921625,22 L17.758125,22 L17.758125,8.86989714 Z" id="Shape"></path>
                    </g>
                </g>
            </g>
        </g>
    </g>
</svg>
