<?xml version="1.0" encoding="UTF-8"?>
<svg width="22px" height="22px" viewBox="0 0 22 22" version="1.1" xmlns="http://www.w3.org/2000/svg" xmlns:xlink="http://www.w3.org/1999/xlink">
    <!-- Generator: Sketch 55.2 (78181) - https://sketchapp.com -->
    <title></title>
    <desc>Created with Sketch.</desc>
    <g id="Page-1" stroke="none" stroke-width="1" fill="none" fill-rule="evenodd">
        <g id="Coupon-Redemption-Analysis-切图" transform="translate(-1729.000000, -496.000000)" fill="#D52B1E" fill-rule="nonzero">
            <g id="Group-3" transform="translate(1370.000000, 360.000000)">
                <g id="Vs-Average-rate--1.5" transform="translate(119.000000, 135.000000)">
                    <g id="tubiao106" transform="translate(240.000000, 1.000000)">
                        <polygon id="Path" points="10.4806456 22 10.4806456 9.76873855 8.7789692 10.889154 6.74244678 9.76873855 6.74244678 22"></polygon>
                        <polygon id="Path" points="0.0125910331 2.15869174 0.0125910331 2.15869174 1.00724834 0.00899814406 8.76140351 5.88088291 11.3369731 4.06909222 11.9265216 3.65624587 12.4392203 4.21634952 19.5741848 12.0301899 20.448078 10.7469477 21.208892 13.5961135 21.969706 16.4452793 19.6620133 15.8641389 17.3532226 15.285628 18.2918893 13.9077205 11.6838955 6.67633528 9.21372008 8.41318252 8.72627212 8.75634462 8.24760702 8.39083097"></polygon>
                        <polygon id="Path" points="5.22630799 22 5.22630799 9.0101005 1.48920702 6.1806567 1.48920702 22"></polygon>
                        <path d="M15.7349832,22 L15.7349832,13.7709815 L15.6899712,13.8025367 L12.0044694,9.76873855 C11.9978823,9.80686767 11.9967844,9.84631159 11.9967844,9.88575551 L11.9967844,22 L15.7349832,22 Z" id="Path"></path>
                        <polygon id="Path" points="20.988223 22.0013148 20.988223 18.250496 17.251122 17.2249541 17.251122 22"></polygon>
                    </g>
                </g>
            </g>
        </g>
    </g>
</svg>
