<?xml version="1.0" standalone="no"?><!DOCTYPE svg PUBLIC "-//W3C//DTD SVG 1.1//EN" "http://www.w3.org/Graphics/SVG/1.1/DTD/svg11.dtd"><svg t="1527563345792" class="icon" style="" viewBox="0 0 1024 1024" version="1.1" xmlns="http://www.w3.org/2000/svg" p-id="1983" xmlns:xlink="http://www.w3.org/1999/xlink" width="200" height="200"><defs><style type="text/css"></style></defs><path d="M774.826667 699.733333H320.853333c-10.24 0-17.066667-6.826667-17.066666-17.066666s6.826667-17.066667 17.066666-17.066667h453.973334c10.24 0 17.066667 6.826667 17.066666 17.066667s-6.826667 17.066667-17.066666 17.066666zM320.853333 617.813333c-3.413333 0-10.24-3.413333-13.653333-3.413333 0-3.413333-3.413333-10.24 0-13.653333l23.893333-122.88c0-3.413333 3.413333-6.826667 3.413334-10.24l208.213333-208.213334c34.133333-34.133333 92.16-34.133333 126.293333 0 17.066667 17.066667 27.306667 37.546667 27.306667 61.44s-10.24 47.786667-27.306667 61.44l-208.213333 208.213334c-3.413333 3.413333-6.826667 3.413333-10.24 3.413333l-129.706667 23.893333c3.413333 0 3.413333 0 0 0z m40.96-129.706666l-17.066666 92.16 95.573333-17.066667 201.386667-201.386667c10.24-10.24 17.066667-23.893333 17.066666-37.546666 0-13.653333-6.826667-27.306667-17.066666-37.546667-20.48-20.48-58.026667-20.48-78.506667 0l-201.386667 201.386667z m85.333334 92.16z" fill="#1690FF" p-id="1984"></path><path d="M349.934933 472.951467l24.132267-24.132267 101.376 101.376-24.132267 24.1664zM523.0592 300.578133l23.552-24.712533 103.765333 98.986667-23.552 24.6784z" fill="#1690FF" p-id="1985"></path></svg>