<?xml version="1.0" encoding="UTF-8"?>
<svg width="53px" height="45px" viewBox="0 0 53 45" version="1.1" xmlns="http://www.w3.org/2000/svg" xmlns:xlink="http://www.w3.org/1999/xlink">
    <!-- Generator: Sketch 56.3 (81716) - https://sketch.com -->
    <title></title>
    <desc>Created with Sketch.</desc>
    <g id="Page-1" stroke="none" stroke-width="1" fill="none" fill-rule="evenodd">
        <g id="PC" transform="translate(-896.000000, -270.000000)">
            <g id="expiring-membership" transform="translate(873.000000, 243.000000)">
                <g id="Group-3" transform="translate(25.000000, 29.000000)">
                    <path d="M29.313587,12.7620246 L21.5904491,23.1771878 L13.8774078,12.7336328 C13.7986811,12.6031395 13.7748038,12.6031395 13.6630581,12.6031395 L9.9,12.6031395 L9.9,14.4342765 L9.99032428,14.4342765 C10.701867,14.4342765 10.9656086,14.6291974 11.257457,15.039241 C11.2861098,15.0804638 11.3198108,15.1274195 11.3868036,15.2149155 C13.0831815,17.643373 19.7308871,26.1505502 21.6072314,28.8 C23.4830299,26.1486392 30.1266422,17.6354561 31.8456694,15.1812002 C31.8870112,15.1293305 31.9192115,15.0830573 31.9480006,15.0426535 C32.2417593,14.6302893 32.506183,14.4342765 33.2143147,14.4342765 L33.3,14.4342765 L33.3,12.6 L29.5501767,12.6 C29.4448438,12.6 29.4129165,12.6 29.313587,12.7620246 Z" id="Shape" fill="#FFFFFF" fill-rule="nonzero"></path>
                    <polyline id="Path" stroke="#FFFFFF" stroke-width="2.7" stroke-linecap="round" stroke-linejoin="round" points="26.3903615 35.0419709 21.2605041 41.0583414 0 16.076417 8.17208553 0 34.3492929 0.116049295 42.5212508 16.123432 40.6600265 18.3063026"></polyline>
                    <circle id="Oval-Copy" stroke="#FFFFFF" stroke-width="1.8" cx="39.6" cy="31.5" r="9.9"></circle>
                    <polyline id="Path-9-Copy" stroke="#FFFFFF" stroke-width="1.8" stroke-linecap="round" stroke-linejoin="round" points="39.1894098 25.2 39.1894098 32.4 44.5894098 32.4"></polyline>
                </g>
            </g>
        </g>
    </g>
</svg>
