<svg xmlns="http://www.w3.org/2000/svg" xmlns:xlink="http://www.w3.org/1999/xlink" viewBox="0 0 48 48">
  <defs>
    <style>
      .cls-1 {
        clip-path: url(#clip-Expiring_coupons_1);
      }

      .cls-2, .cls-3 {
        fill: #fff;
        stroke: #fff;
      }

      .cls-2 {
        stroke-width: 0.5px;
      }
    </style>
    <clipPath id="clip-Expiring_coupons_1">
      <rect width="48" height="48"/>
    </clipPath>
  </defs>
  <g id="Expiring_coupons_1" data-name="Expiring coupons – 1" class="cls-1">
    <path id="减去_5" data-name="减去 5" class="cls-2" d="M-986.777-377.625a4.222,4.222,0,0,1-4.217-4.217v-7.6a1.07,1.07,0,0,1,1.069-1.069h.027a5.309,5.309,0,0,0,5.291-5.3,5.305,5.305,0,0,0-5.3-5.3h-.022a1.061,1.061,0,0,1-.759-.31,1.067,1.067,0,0,1-.316-.759v-7.6A4.222,4.222,0,0,1-986.783-414h39.56A4.222,4.222,0,0,1-943-409.784v7.6a1.067,1.067,0,0,1-.316.759,1.068,1.068,0,0,1-.753.31h-.032a5.24,5.24,0,0,0-2.14.45,14.588,14.588,0,0,0-1.948-1.364,7.344,7.344,0,0,1,3.052-1.154v-6.6a2.081,2.081,0,0,0-2.079-2.079h-29.6a1.007,1.007,0,0,1,.337.748v5.254a1.006,1.006,0,0,1-1,1h-.1a1.006,1.006,0,0,1-1.005-1v-5.254a1.009,1.009,0,0,1,.337-.748h-8.529a2.081,2.081,0,0,0-2.079,2.079v6.6a7.447,7.447,0,0,1,4.544,2.47,7.428,7.428,0,0,1,1.842,4.9,7.431,7.431,0,0,1-1.841,4.9,7.444,7.444,0,0,1-4.546,2.47v6.6a2.081,2.081,0,0,0,2.079,2.079h8.722a1.026,1.026,0,0,1-.535-.887v-5.254a1.006,1.006,0,0,1,1.005-1h.1a1.006,1.006,0,0,1,1,1v5.254a1.011,1.011,0,0,1-.535.887l.453,0c4.23,0,7.491-.019,10.263-.06a14.6,14.6,0,0,0,2.294,2.072C-969.915-377.625-977.356-377.625-986.777-377.625Zm9.221-10.465h-.1a1.007,1.007,0,0,1-1.012-1v-5.228a1.007,1.007,0,0,1,1.012-1h.1a1.006,1.006,0,0,1,1.011,1v5.228A1.006,1.006,0,0,1-977.556-388.09Zm0-8.361h-.1a1.007,1.007,0,0,1-1.012-1v-5.228a1.007,1.007,0,0,1,1.012-1h.1a1.006,1.006,0,0,1,1.011,1v5.228A1.006,1.006,0,0,1-977.556-396.451Z" transform="translate(991 420)"/>
    <path id="shijian" class="cls-3" d="M68.889,80.889a11.964,11.964,0,1,1,8.5-3.5A11.931,11.931,0,0,1,68.889,80.889Zm7.435-4.565a10.555,10.555,0,1,0-7.436,3.064,10.4,10.4,0,0,0,7.436-3.064Zm-7.435-7.435h5.25a.75.75,0,0,1,0,1.5h-6a.75.75,0,0,1-.75-.75v-7.5a.75.75,0,0,1,1.5,0v6.75Z" transform="translate(-33.389 -38.389)"/>
  </g>
</svg>
