<?xml version="1.0" standalone="no"?><!DOCTYPE svg PUBLIC "-//W3C//DTD SVG 1.1//EN" "http://www.w3.org/Graphics/SVG/1.1/DTD/svg11.dtd"><svg t="1526893722874" class="icon" style="" viewBox="0 0 1024 1024" version="1.1" xmlns="http://www.w3.org/2000/svg" p-id="2027" xmlns:xlink="http://www.w3.org/1999/xlink" width="200" height="200"><defs><style type="text/css"></style></defs><path d="M785.8 511.7c-39.8 0-74.6-34.9-74.6-74.6 0-39.8 34.8-74.6 74.6-74.6s74.6 34.8 74.6 74.6c0.1 39.7-34.7 74.6-74.6 74.6zM636.6 312.6c-39.8 0-74.6-34.8-74.6-74.6s34.8-74.6 74.6-74.6 74.6 34.8 74.6 74.6-34.8 74.6-74.6 74.6z m-248.8 0c-39.9 0-74.6-34.8-74.6-74.6s34.8-74.6 74.6-74.6 74.6 34.8 74.6 74.6-34.8 74.6-74.6 74.6zM238.5 511.7c-39.9 0-74.6-34.9-74.6-74.6 0-39.8 34.8-74.6 74.6-74.6s74.6 34.8 74.6 74.6c0 39.7-34.8 74.6-74.6 74.6zM512.1 63.9C263.3 63.9 64.2 263 64.2 511.7s199.1 447.8 447.9 447.8c39.9 0 74.6-34.9 74.6-74.6 0-20-5-34.9-19.8-49.8-10.1-14.9-20-29.9-20-49.7 0-39.9 34.8-74.6 74.6-74.6h89.6c139.4 0 248.8-109.5 248.8-248.9 0.1-218.9-198.9-398-447.8-398z" fill="" p-id="2028"></path></svg>