<?xml version="1.0" standalone="no"?><!DOCTYPE svg PUBLIC "-//W3C//DTD SVG 1.1//EN" "http://www.w3.org/Graphics/SVG/1.1/DTD/svg11.dtd"><svg t="1526095548044" class="icon" style="" viewBox="0 0 1024 1024" version="1.1" xmlns="http://www.w3.org/2000/svg" p-id="1994" xmlns:xlink="http://www.w3.org/1999/xlink" width="200" height="200"><defs><style type="text/css"></style></defs><path d="M947.2 256h-153.6512c16.128-21.4016 25.6512-48.0256 25.6512-76.8C819.2 108.6464 761.7536 51.2 691.2 51.2c-71.168 0-130.8672 56.3712-160.1024 90.0096A375.3472 375.3472 0 0 0 486.4 204.4416a377.4464 377.4464 0 0 0-44.6976-63.232C412.4672 107.6224 352.768 51.2 281.6 51.2A128.1536 128.1536 0 0 0 153.6 179.2c0 28.7744 9.5744 55.3984 25.6512 76.8H25.6a25.6 25.6 0 0 0-25.6 25.6v153.6a25.6 25.6 0 0 0 25.6 25.6H51.2v486.4c0 42.3424 34.4576 76.8 76.8 76.8h716.8c42.3424 0 76.8-34.4576 76.8-76.8V460.8h25.6a25.6 25.6 0 0 0 25.6-25.6v-153.6a25.6 25.6 0 0 0-25.6-25.6z m-377.4976-81.2032C609.7408 128.768 654.0288 102.4 691.2 102.4c42.3424 0 76.8 34.4576 76.8 76.8S733.5424 256 691.2 256h-172.9536c8.8576-22.6304 26.7776-52.8384 51.456-81.2032zM563.2 972.8H409.6V307.2h153.6v665.6zM204.8 179.2C204.8 136.8576 239.2576 102.4 281.6 102.4c37.1712 0 81.4592 26.368 121.4976 72.3968 24.6784 28.3648 42.5984 58.5728 51.456 81.2032H281.6C239.2576 256 204.8 221.5424 204.8 179.2zM51.2 307.2h307.2v102.4H51.2V307.2z m51.2 640V460.8h256v512H128a25.6 25.6 0 0 1-25.6-25.6z m768 0a25.6 25.6 0 0 1-25.6 25.6H614.4V460.8h256v486.4zM921.6 409.6h-307.2V307.2h307.2v102.4z" fill="" p-id="1995"></path></svg>