<?xml version="1.0" standalone="no"?><!DOCTYPE svg PUBLIC "-//W3C//DTD SVG 1.1//EN" "http://www.w3.org/Graphics/SVG/1.1/DTD/svg11.dtd"><svg class="icon" width="32px" height="32.00px" viewBox="0 0 1024 1024" version="1.1" xmlns="http://www.w3.org/2000/svg"><path d="M187.82215906 513.01623125c0-182.24417812 148.36979531-330.61397344 330.61397344-330.6139725 61.65137625 0 121.94777719 17.61467906 173.43683812 49.45659844l-63.00635062 10.83980156c-12.872265 2.0324625-21.679605 14.22724031-19.6471425 27.09950625 2.0324625 11.51728969 12.19477781 19.64714156 23.03458031 19.64714156h4.06492594l119.23782656-20.32462875c12.872265-2.0324625 21.679605-14.22724031 19.64714156-27.09950625L756.91178562 131.590685c-2.0324625-12.872265-14.22724031-21.679605-27.09950624-19.6471425-12.872265 2.0324625-21.679605 14.22724031-19.64714157 27.09950625l8.80733906 53.52152438c-59.61891281-37.93930875-129.40014094-58.2639375-201.21383156-58.26393844C310.44742437 134.97812281 140.39802406 305.02752313 140.39802406 513.01623125c0 58.94142563 13.54975313 115.85038781 39.29428406 168.01693781 4.06492594 8.12985187 12.872265 12.872265 21.00211688 12.872265 3.38743781 0 7.45236375-0.67748719 10.8398025-2.70995061 11.51728969-6.09738844 16.25970375-20.32462969 10.83980249-31.84191939C199.33944969 614.63937875 187.82215906 565.18278031 187.82215906 513.01623125z"  /><path d="M844.98518 659.35356406c-11.51728969-6.09738844-25.74453094-2.0324625-31.84191937 9.48482719-57.58645031 108.39802406-169.37191219 176.14678875-291.9971775 176.14678875-61.65137625 0-121.94777719-17.61467906-173.43683813-49.45659844l63.00635157-10.8398025c12.872265-2.0324625 21.679605-14.22724031 19.64714155-27.09950625s-14.22724031-21.679605-27.09950625-19.64714156l-119.23782562 20.32462969c-12.872265 2.0324625-21.679605 14.22724031-19.6471425 27.09950625l18.29216719 110.43048656c2.0324625 11.51728969 12.19477781 19.64714156 23.03457937 19.64714156h4.06492594c12.872265-2.0324625 21.679605-14.22724031 19.6471425-27.0995053l-8.80734-53.52152439c59.61891281 37.93930875 129.40014094 58.2639375 201.2138325 58.26393751 140.23994343 0 268.28510906-77.23359188 334.00141125-201.21383251 5.41990125-11.51728969 0.67748719-26.42201812-10.8398025-32.51940656z"  /><path d="M868.6972475 597.02469969m-25.74453095 0a25.74453094 25.74453094 0 1 0 51.48906189 0 25.74453094 25.74453094 0 1 0-51.48906189 0Z"  /><path d="M876.14961219 507.59633001m-25.74453094 0a25.74453094 25.74453094 0 1 0 51.48906094 0 25.74453094 25.74453094 0 1 0-51.48906094 0Z"  /><path d="M865.98729687 421.55539906m-25.74452999 0a25.74453094 25.74453094 0 1 0 51.48906093 0 25.74453094 25.74453094 0 1 0-51.48906093 0Z"  /><path d="M631.57657063 492.01411438c12.872265 0 23.7120675-10.8398025 23.71206749-23.7120675s-10.8398025-23.7120675-23.7120675-23.71206844h-28.45448156l14.22724031-31.84191938c5.41990125-12.19477781 0-25.74453094-12.19477781-31.16443125-12.19477781-5.41990125-25.74453094 0-31.16443125 12.19477688l-22.35709312 50.81157375h-40.64925844l-22.35709313-50.81157375c-5.41990125-12.19477781-19.64714156-17.61467906-31.16443125-12.19477688-12.19477781 5.41990125-17.61467906 18.96965437-12.19477781 31.16443125l14.22724031 31.84191938h-37.93930781c-12.872265 0-23.7120675 10.8398025-23.71206844 23.71206844s10.8398025 23.7120675 23.71206844 23.7120675h81.976005v56.231475H420.20042375c-12.872265 0-23.7120675 10.8398025-23.71206844 23.71206751s10.8398025 23.7120675 23.71206844 23.71206749h81.976005v63.00635156c0 12.872265 10.8398025 23.7120675 23.71206844 23.71206843s23.7120675-10.8398025 23.7120675-23.71206843v-63.00635156h81.97600594c12.872265 0 23.7120675-10.8398025 23.7120675-23.71206749s-10.8398025-23.7120675-23.7120675-23.71206751H549.60056469v-56.23147501h81.97600594z"  /></svg>