<?xml version="1.0" standalone="no"?><!DOCTYPE svg PUBLIC "-//W3C//DTD SVG 1.1//EN" "http://www.w3.org/Graphics/SVG/1.1/DTD/svg11.dtd"><svg class="icon" width="200px" height="200.00px" viewBox="0 0 1024 1024" version="1.1" xmlns="http://www.w3.org/2000/svg"><path fill="#bfcbd9" d="M899.413333 587.946667c0-15.36-11.946667-27.306667-27.306666-27.306667-15.36 0-27.306667 11.946667-27.306667 27.306667v281.6c0 1.706667 0 3.413333 0.853333 5.12 0 1.706667 1.706667 14.506667-4.266666 20.48-4.266667 5.973333-14.506667 6.826667-23.04 6.826666h-201.386667l-0.853333-205.653333c0.853333-10.24 3.413333-41.813333-16.213334-64.853333-8.533333-10.24-23.893333-21.333333-50.346666-21.333334h-3.413334-70.826666c-26.453333 0-41.813333 11.946667-50.346667 21.333334-19.626667 23.04-17.92 55.466667-16.213333 64.853333l-0.853334 205.653333h-201.386666c-7.68 0-17.92-0.853333-23.04-6.826666-5.12-5.973333-4.266667-17.066667-4.266667-20.48 0-1.706667 0.853333-3.413333 0.853333-5.12v-281.6c0-15.36-11.946667-27.306667-27.306666-27.306667-15.36 0-27.306667 11.946667-27.306667 27.306667v279.893333c-1.706667 10.24-3.413333 39.253333 16.213333 63.146667 10.24 11.946667 29.866667 26.453333 64.853334 26.453333H435.2c15.36 0 27.306667-11.946667 27.306667-27.306667l1.706666-234.666666v-4.266667c-0.853333-6.826667 0-18.773333 3.413334-23.893333 1.706667-1.706667 4.266667-2.56 8.533333-2.56h75.093333c4.266667 0 6.826667 0.853333 8.533334 2.56 4.266667 4.266667 4.266667 17.066667 3.413333 23.893333v238.933333c0 15.36 11.946667 27.306667 27.306667 27.306667H819.2c35.84 0 54.613333-14.506667 64.853333-26.453333 19.626667-23.04 17.066667-52.906667 16.213334-63.146667l-0.853334-279.893333z"  /><path fill="#bfcbd9" d="M1016.32 529.066667L622.933333 106.666667c-5.973333-6.826667-45.226667-49.493333-103.253333-52.053334-41.813333-1.706667-81.92 17.92-118.613333 57.173334-98.986667 104.106667-390.826667 413.866667-393.386667 417.28-10.24 11.093333-10.24 28.16 0.853333 38.4 11.093333 10.24 28.16 10.24 38.4-0.853334 2.56-3.413333 295.253333-312.32 393.386667-417.28 25.6-27.306667 51.2-40.96 76.8-40.106666 36.693333 0.853333 63.146667 31.573333 64 32.426666 0 0.853333 0.853333 0.853333 0.853333 0.853334l393.386667 423.253333c5.12 5.973333 12.8 8.533333 19.626667 8.533333 6.826667 0 13.653333-2.56 18.773333-7.68 12.8-9.386667 12.8-26.453333 2.56-37.546666z"  /></svg>