<?xml version="1.0" encoding="UTF-8"?>
<svg width="20px" height="13px" viewBox="0 0 20 13" version="1.1" xmlns="http://www.w3.org/2000/svg" xmlns:xlink="http://www.w3.org/1999/xlink">
    <!-- Generator: Sketch 55.2 (78181) - https://sketchapp.com -->
    <title>HongKong</title>
    <desc>Created with Sketch.</desc>
    <g id="Page-1" stroke="none" stroke-width="1" fill="none" fill-rule="evenodd">
        <g id="Fides-suite-Legal-page-国旗切图" transform="translate(-518.000000, -34.000000)">
            <g id="Hong-Kong" transform="translate(518.000000, 34.000000)">
                <g id="xianggangqi">
                    <path d="M0.095,12.8711521 L19.905,12.8711521 L19.905,0.0882229478 L0.095,0.0882229478 L0.095,12.8711521 Z M19.9914844,12.9711521 L19.9914844,12.8711521 L19.9914844,12.9711521 Z M0.015,12.948764 L0.015,0.011823694 L19.985,0.011823694 L19.985,12.948764 L0.015,12.948764 Z" id="Shape" fill="#353636" fill-rule="nonzero"></path>
                    <polygon id="Path" fill="#D12F1A" fill-rule="nonzero" points="0.06125 0.0433535448 19.95125 0.0433535448 19.95125 12.9026819 0.06125 12.9026819"></polygon>
                    <polygon id="Path" fill="#E7211A" fill-rule="nonzero" points="9.91625 6.42208489 10.0375 6.5385028 9.91625 6.6561334 9.79625 6.5385028 9.91625 6.42208489"></polygon>
                    <path d="M9.91625,6.5385028 C8.8025,6.09829757 8.27,4.73402519 8.73625,3.65958489 C8.99,3.0714319 9.93,2.25650653 11.0825,2.54148787 C10.63625,2.76098414 10.33625,3.05930504 10.63,3.48495802 C10.7907339,3.73078662 10.8338858,4.03208933 10.7483207,4.3111178 C10.6627555,4.59014627 10.456855,4.81956766 10.18375,4.9401819 C9.6975,5.15361474 9.27625,5.9697528 9.91625,6.5385028 Z" id="Path" fill="#FFFFFF" fill-rule="nonzero"></path>
                    <path d="M9.99242908,6.5566931 C9.72859929,6.36993937 9.30448582,6.17590951 9.19810284,5.43131996 L9.1825,5.19242071 C9.1825,4.59092817 9.52292553,4.24773787 9.52292553,4.24773787 L9.5683156,4.24167444 L9.5683156,4.28048041 C9.5683156,4.28048041 9.4860461,4.35687966 9.40235816,4.51331623 C9.29149946,4.72496893 9.23491284,4.9544562 9.23640071,5.18635728 L9.25200355,5.41312966 C9.35838652,6.13710354 9.75129433,6.31173041 10.0222163,6.49969683 L10.0293085,6.5385028 L10.0080319,6.54456623 L9.99242908,6.54456623 L9.99242908,6.5566931 Z M9.61370567,3.61471549 L9.83356383,3.78327892 L10.0817908,3.65473414 L9.96264184,3.87908116 L10.1825,4.04764459 L9.89455674,4.02217817 L9.77398936,4.24773787 L9.71299645,4.00883862 L9.42647163,3.9833722 L9.67611702,3.85361474 L9.61370567,3.61471549 Z" id="Shape" fill="#E7211A" fill-rule="nonzero"></path>
                    <path d="M9.91625,6.5385028 C10.00375,5.37432369 11.1775,4.4623834 12.37,4.55939832 C13.02375,4.61033116 14.11125,5.23243937 14.18375,6.38327892 C13.8375,6.03402519 13.45,5.8521222 13.125,6.25352146 C12.9347652,6.47854034 12.6526696,6.61167011 12.3527621,6.61796481 C12.0528546,6.62425952 11.7650881,6.50309047 11.565,6.28626399 C11.20375,5.91033116 10.27625,5.76844683 9.91625,6.5385028 L9.91625,6.5385028 Z" id="Path" fill="#FFFFFF" fill-rule="nonzero"></path>
                    <path d="M9.89,6.52516325 C9.9975,6.25352146 10.0775,5.83999534 10.7775,5.52954757 L11.00375,5.4458722 C11.59,5.2651819 12.0175,5.43253265 12.0175,5.43980877 L12.0325,5.47133862 L11.9975,5.48467817 C11.9975,5.48467817 11.8975,5.4458722 11.72375,5.42646922 C11.4854548,5.3991465 11.2438806,5.42316249 11.01625,5.49680504 L10.7975,5.5816931 C10.1175,5.89214086 10.05125,6.26686101 9.9375,6.55184235 L9.9025,6.57003265 L9.8825,6.55184235 L9.89,6.52516325 L9.89,6.52516325 Z M12.66375,5.31611474 L12.56375,5.54288713 L12.75625,5.71145056 L12.5025,5.68598414 L12.3975,5.91033116 L12.34375,5.66536847 L12.09,5.63990205 L12.31,5.51014459 L12.25875,5.26396922 L12.45125,5.43253265 L12.66375,5.31611474 L12.66375,5.31611474 Z" id="Shape" fill="#E7211A" fill-rule="nonzero"></path>
                    <path d="M9.91625,6.5385028 C11.08375,6.26079757 12.33125,7.06965951 12.605,8.20715951 C12.75125,8.82926772 12.4775,10.0249767 11.37,10.4457789 C11.605,10.0177006 11.6625,9.60538713 11.1775,9.42348414 C10.8984094,9.31486751 10.6819027,9.09373556 10.5844366,8.81775129 C10.4869705,8.54176702 10.5182067,8.23828809 10.67,7.98645056 C10.93,7.53411847 10.7775,6.63551772 9.91625,6.5385028 L9.91625,6.5385028 Z" id="Path" fill="#FFFFFF" fill-rule="nonzero"></path>
                    <path d="M9.91625,6.51182369 C10.21625,6.53122668 10.64375,6.47301772 11.16375,7.02357743 L11.31625,7.20305504 C11.6775,7.68812966 11.64375,8.13561101 11.64375,8.14167444 L11.61125,8.16835354 L11.585,8.14288713 C11.585,8.14288713 11.59,8.03253265 11.55875,7.87003265 C11.5101793,7.64315041 11.4121537,7.42896976 11.27125,7.24186101 L11.12375,7.0623834 C10.61,6.52516325 10.22375,6.58458489 9.91625,6.56396922 L9.89,6.5385028 L9.90375,6.51788713 L9.91625,6.51182369 L9.91625,6.51182369 Z M11.95125,8.71163713 L11.69625,8.68495802 L11.58875,8.91173041 L11.5375,8.66676772 L11.28375,8.64008862 L11.50375,8.51760728 L11.45,8.27264459 L11.6425,8.44120802 L11.865,8.31145056 L11.7575,8.53701026 L11.95125,8.71163713 L11.95125,8.71163713 Z" id="Shape" fill="#E7211A" fill-rule="nonzero"></path>
                    <path d="M9.91625,6.5385028 C10.5425,7.53411847 10.14375,8.93840951 9.10875,9.54111474 C8.55,9.8697528 7.295,9.98010728 6.535,9.08756996 C7.0225,9.17124534 7.44875,9.09969683 7.47625,8.58915578 C7.49639471,8.29891973 7.64559653,8.03151498 7.8850679,7.856458 C8.12453927,7.68140101 8.43062396,7.61598482 8.72375,7.67721549 C9.25,7.78029384 10.08375,7.36676772 9.91625,6.5385028 L9.91625,6.5385028 Z" id="Path" fill="#FFFFFF" fill-rule="nonzero"></path>
                    <path d="M9.94375,6.53122668 C10.02375,6.81620802 10.20375,7.19214086 9.82375,7.84456623 L9.69,8.0458722 C9.32375,8.52973414 8.8775,8.6328125 8.87,8.6328125 L8.83625,8.6146222 L8.8575,8.58309235 C8.8575,8.58309235 8.96375,8.55762593 9.1175,8.47273787 C9.32336575,8.35592432 9.50244762,8.19952053 9.64375,8.01312966 L9.77,7.81909981 C10.13625,7.18607743 9.9625,6.84288713 9.8825,6.54456623 L9.9025,6.51303638 L9.9225,6.51909981 L9.94375,6.53122668 L9.94375,6.53122668 Z M8.41625,9.09242071 L8.3625,8.84745802 L8.11,8.8219916 L8.32875,8.69829757 L8.27625,8.45333489 L8.47,8.62189832 L8.68875,8.49820429 L8.58375,8.72497668 L8.77,8.89354011 L8.51625,8.86686101 L8.41625,9.09242071 L8.41625,9.09242071 Z" id="Shape" fill="#E7211A" fill-rule="nonzero"></path>
                    <path d="M9.91625,6.5385028 C9.13625,7.42497668 7.63625,7.48318563 6.73625,6.70706623 C6.24375,6.28626399 5.74875,5.16089086 6.39,4.18952892 C6.45625,4.6697528 6.65625,5.03840951 7.1625,4.90865205 C7.45299339,4.84023536 7.75979089,4.89700936 8.0039282,5.0643614 C8.24806551,5.23171344 8.4056966,5.49329749 8.43625,5.78178638 C8.49625,6.29960354 9.15625,6.94717817 9.91625,6.5385028 L9.91625,6.5385028 Z" id="Path" fill="#FFFFFF" fill-rule="nonzero"></path>
                    <path d="M9.93,6.5566931 C9.6775,6.71312966 9.36375,6.99689832 8.61,6.84773787 L8.37625,6.7907416 C7.79,6.60398787 7.55625,6.21471549 7.55,6.21471549 L7.55625,6.17590951 L7.59625,6.18197295 C7.59625,6.18197295 7.64875,6.27292444 7.7825,6.38934235 C7.90875,6.50576026 8.11,6.64279384 8.395,6.73859608 L8.6225,6.79680504 C9.35625,6.93868937 9.63625,6.67432369 9.9025,6.51182369 L9.9425,6.51788713 L9.9425,6.54335354 L9.93,6.5566931 L9.93,6.5566931 Z M6.955,5.93701026 L7.17625,5.81331623 L7.1225,5.56835354 L7.315,5.73691698 L7.53625,5.61322295 L7.43,5.83999534 L7.6225,6.00734608 L7.37,5.98187966 L7.2625,6.20865205 L7.21,5.96247668 L6.955,5.93701026 L6.955,5.93701026 Z" id="Shape" fill="#E7211A" fill-rule="nonzero"></path>
                </g>
            </g>
        </g>
    </g>
</svg>