<?xml version="1.0" encoding="UTF-8"?>
<svg xmlns:xlink="http://www.w3.org/1999/xlink" width="14px" height="14px" viewBox="0 0 14 14" version="1.1" xmlns="http://www.w3.org/2000/svg">
    <!-- Generator: Sketch 55.2 (78181) - https://sketchapp.com -->
    <title></title>
    <desc>Created with Sketch.</desc>
    <g id="Page-1" stroke="none" stroke-width="1" fill="none" fill-rule="evenodd">
        <g id="Spot-campaign-How-SMS" transform="translate(-1588.000000, -994.000000)" fill="#FFFFFF" fill-rule="nonzero">
            <g id="MESSAGE.-Group-Copy-10" transform="translate(1536.000000, 876.000000)">
                <g id="MESSAGE.-Group">
                    <g id="modify&amp;delete" transform="translate(0.000000, 110.000000)">
                        <g id="modify" transform="translate(52.000000, 5.000000)">
                            <g transform="translate(0.000000, 3.000000)" id="Shape">
                                <path d="M11.0247761,5.18004196 L8.18283306,2.67289497 L2.10916255,8.16226128 L1.05057566,11.665748 L1.05057566,11.671535 L4.91634229,10.698546 L11.0247761,5.18004196 Z M10.5616274,0.525224248 L9.03938003,1.90022425 L11.8904217,4.39805411 L13.3675439,3.06275318 C14.1428751,2.3624349 14.1428751,1.22558594 13.3675439,0.525253183 C12.5935238,-0.175079572 11.3356474,-0.175079572 10.5616274,0.525224248 L10.5616274,0.525224248 Z M1.42108547e-14,12.2742115 L13.9490383,12.2742115 L13.9490383,13.9376374 L1.42108547e-14,13.9376374 L1.42108547e-14,12.2742115 Z"></path>
                            </g>
                        </g>
                    </g>
                </g>
            </g>
        </g>
    </g>
</svg>
