<?xml version="1.0" encoding="UTF-8"?>
<svg width="20px" height="13px" viewBox="0 0 20 13" version="1.1" xmlns="http://www.w3.org/2000/svg" xmlns:xlink="http://www.w3.org/1999/xlink">
    <!-- Generator: Sketch 55.2 (78181) - https://sketchapp.com -->
    <title>India</title>
    <desc>Created with Sketch.</desc>
    <g id="Page-1" stroke="none" stroke-width="1" fill="none" fill-rule="evenodd">
        <g id="Fides-suite-Legal-page-国旗切图" transform="translate(-548.000000, -34.000000)">
            <g id="India" transform="translate(548.000000, 34.000000)">
                <g id="yindu">
                    <path d="M0.0885177671,12.8779557 L19.8768698,12.8779557 L19.8768698,0.0795891219 L0.0885177671,0.0795891219 L0.0885177671,12.8779557 L0.0885177671,12.8779557 Z M19.9530929,12.9779431 L19.9530929,12.8779431 L19.9530929,12.9779431 Z M0.00668279831,12.9734576 L0.00668279831,0 L19.9587047,0 L19.9587047,12.9575449 L0.00668279831,12.9575449 L0.00668279831,12.9734576 Z" id="Shape" fill="#353636" fill-rule="nonzero"></path>
                    <polygon id="Path" fill="#009842" fill-rule="nonzero" points="0.0557811742 8.62774207 19.9259681 8.62774207 19.9259681 12.9257067 0.0557811742 12.9257067"></polygon>
                    <polygon id="Path" fill="#FFFFFF" fill-rule="nonzero" points="0.0557811742 4.34571555 19.9259681 4.34571555 19.9259681 8.6436675 0.0557811742 8.6436675"></polygon>
                    <polygon id="Path" fill="#F2AB48" fill-rule="nonzero" points="0.0557811742 0.0477636086 19.9259681 0.0477636086 19.9259681 4.34571555 0.0557811742 4.34571555"></polygon>
                    <path d="M11.5327122,5.82723627 L11.7293228,5.73060682 L12.0697807,5.7861621 L11.8737066,5.88279155 L11.5327122,5.82723627 Z M12.2518143,6.33550695 L11.9708717,6.2399924 L12.2518143,6.16040328 L12.5327122,6.2399924 L12.2518143,6.33550695 Z M12.1956079,6.78121616 L11.9708717,6.66978886 L12.3641377,6.62202525 L12.5327122,6.71755247 L12.1956079,6.78121616 Z M11.5944632,7.10229657 L11.9753879,7.07395514 L12.07537,7.18172099 L11.6950266,7.21006242 L11.5944632,7.10229657 Z" id="Shape" fill="#22297B" fill-rule="nonzero"></path>
                    <path d="M11.5327122,5.82723627 L11.5899914,5.73060682 L11.6891782,5.7861621 L11.6320553,5.88279155 L11.5327122,5.82723627 Z M11.7422107,6.33550695 L11.6603627,6.2399924 L11.7422107,6.16040328 L11.8240457,6.2399924 L11.7422107,6.33550695 Z M11.7258359,6.78121616 L11.6603627,6.66978886 L11.7749343,6.62202525 L11.8240457,6.71755247 L11.7258359,6.78121616 Z M11.5507023,7.10229657 L11.6616785,7.07395514 L11.6908066,7.18172099 L11.5799998,7.21006242 L11.5507023,7.10229657 Z M9.65175847,4.76739093 L9.73261642,4.68843528 L9.81380004,4.7670742 L9.73294209,4.84602985 L9.65175847,4.76739093 Z M10.1165972,4.74971713 L10.215784,4.69400981 L10.2730633,4.79047457 L10.1738765,4.84618188 L10.1165972,4.74971713 Z M10.7274285,4.91876483 L10.6128569,4.95060301 L10.5801203,4.83917571 L10.6946919,4.80733753 L10.7274285,4.91876483 Z M10.9893082,5.04611756 L11.1038797,5.04611756 L11.1038797,5.15754487 L10.9893082,5.15754487 L10.9893082,5.04611756 Z M11.4312326,5.49182678 L11.3166611,5.46000127 L11.3493977,5.34856129 L11.4639692,5.38039948 L11.4312326,5.49182678 Z M11.3493977,7.46571809 L11.4639692,7.46571809 L11.4639692,7.57713272 L11.3493977,7.57713272 L11.3493977,7.46571809 Z M11.0118968,7.8875455 L11.0408686,7.77993168 L11.1518448,7.80810841 L11.1227036,7.91587426 L11.0118968,7.8875455 Z M10.5964951,8.10244373 L10.6455935,8.00692918 L10.7601651,8.05469279 L10.6946919,8.15019467 L10.5964951,8.10244373 Z M10.1382089,8.19794561 L10.2200438,8.11835649 L10.3182406,8.19794561 L10.2200438,8.2775474 L10.1382089,8.19794561 Z M9.67990959,8.18203285 L9.77811937,8.11835649 L9.84357953,8.22978379 L9.74538278,8.2775474 L9.67990959,8.18203285 Z M9.23798513,8.05469279 L9.35255669,8.02285461 L9.38529328,8.13428191 L9.27072172,8.1661201 L9.23798513,8.05469279 Z M8.84515904,7.79998733 L8.95974363,7.79998733 L8.95974363,7.9114273 L8.84515904,7.9114273 L8.84515904,7.79998733 Z M8.51176166,7.59305815 L8.54154115,7.48560903 L8.65219161,7.51425453 L8.62256845,7.62202038 L8.51176166,7.59305815 Z M8.26215328,7.17487952 L8.31944558,7.07841477 L8.41863237,7.13428679 L8.36134008,7.23075154 L8.26215328,7.17487952 Z M8.22320286,6.63795068 L8.30503783,6.7175398 L8.22320286,6.81306702 L8.14135486,6.7175398 L8.22320286,6.63795068 Z M8.23956464,6.19224146 L8.30503783,6.28774334 L8.19046627,6.3514197 L8.14135486,6.25591782 L8.23956464,6.19224146 Z M8.25903985,5.79508135 L8.36969032,5.76610645 L8.39948283,5.8737076 L8.28883237,5.9026825 L8.25903985,5.79508135 Z M8.50128803,5.38071621 L8.6158596,5.38024744 L8.61634159,5.49167475 L8.50177003,5.49215618 L8.50128803,5.38071621 Z M8.95974363,5.07795574 L8.92700704,5.18938305 L8.81243548,5.15754487 L8.84515904,5.04611756 L8.95974363,5.07795574 Z M9.20754127,4.92099464 L9.26483357,4.82452989 L9.36402036,4.88024988 L9.30672807,4.97671463 L9.20754127,4.92099464 Z M9.94267791,6.47877243 L9.99267791,5.79428318 L9.94267791,4.75958659 L9.89267791,5.79428318 L9.94267791,6.47877243 Z M9.94178931,6.47877243 L10.1709324,5.82612136 L10.4000756,4.82326295 L10.0727357,5.81020861 L9.94178931,6.47877243 Z M9.94178931,6.47877243 L10.3346154,5.90571048 L10.8256382,4.99836662 L10.2527674,5.85795955 L9.94178931,6.47877243 Z M9.94178931,6.47877243 L10.4819236,6.03306322 L11.1857277,5.26897217 L10.4000756,5.95346142 L9.94178931,6.47877243 Z M9.94178931,6.47877243 L10.5801203,6.17631603 L11.4639692,5.61917951 L10.5310219,6.09672691 L9.94178931,6.47877243 Z M9.94178931,6.47877243 L10.6455805,6.3514197 L11.644001,6.03305055 L10.6128439,6.25590515 L9.94178931,6.47877243 Z M9.94178931,6.48100882 L10.6455935,6.53100882 L11.7094872,6.48100882 L10.6455935,6.43100882 L9.94178931,6.48100882 Z M9.94178931,6.47877243 L10.6128569,6.70162704 L11.644014,6.92448165 L10.6455935,6.60611249 L9.94178931,6.47877243 Z M9.94178931,6.47877243 L10.5310219,6.86080529 L11.480344,7.33836536 L10.5801203,6.78121616 L9.94178931,6.47877243 Z M9.94178931,6.47877243 L10.4000756,7.00407077 L11.2020895,7.68856003 L10.4819236,6.92448165 L9.94178931,6.47877243 Z M9.94178931,6.47877243 L10.2527674,7.09958532 L10.8256382,7.95917824 L10.3509772,7.05183438 L9.94178931,6.47877243 Z M9.94178931,6.47877243 L10.0727357,7.14733626 L10.4000756,8.13428191 L10.1709324,7.1314235 L9.94178931,6.47877243 Z M9.94267791,6.47877243 L9.89267791,7.16326169 L9.94267791,8.19794561 L9.99267791,7.16326169 L9.94267791,6.47877243 Z M9.94178931,6.47877243 L9.71264619,7.1314235 L9.49986485,8.13428191 L9.81084294,7.16326169 L9.94178931,6.47877243 Z M9.94178931,6.47877243 L9.54896322,7.05183438 L9.07431519,7.975091 L9.647173,7.09958532 L9.94178931,6.47877243 Z M9.94178931,6.47877243 L9.41802988,6.92448165 L8.69785089,7.70448545 L9.48350306,7.00407077 L9.94178931,6.47877243 Z M9.94178931,6.47877243 L9.30345832,6.78121616 L8.41960939,7.33836536 L9.3689315,6.87673071 L9.94178931,6.47877243 Z M9.94178931,6.47877243 L9.25435994,6.60611249 L8.23956464,6.92449432 L9.27072172,6.70162704 L9.94178931,6.47877243 Z M9.94178931,6.48100882 L9.23798513,6.43100882 L8.17409146,6.48100882 L9.23798513,6.53100882 L9.94178931,6.48100882 Z M9.94178931,6.47877243 L9.27072172,6.25591782 L8.23956464,6.04897597 L9.25435994,6.3514197 L9.94178931,6.47877243 Z M9.94178931,6.47877243 L9.35255669,6.09672691 L8.41960939,5.63509227 L9.30345832,6.1763287 L9.94178931,6.47877243 Z M9.94178931,6.47877243 L9.48350306,5.96938685 L8.69785089,5.26897217 L9.40165507,6.03306322 L9.94178931,6.47877243 Z M9.94178931,6.47877243 L9.63081122,5.85795955 L9.05794038,4.99836662 L9.54896322,5.92162324 L9.94178931,6.47877243 Z M9.94178931,6.47877243 L9.81084294,5.81020861 L9.48350306,4.82326295 L9.71264619,5.82612136 L9.94178931,6.47877243 Z" id="Shape" fill="#22297B" fill-rule="nonzero"></path>
                    <path d="M9.51622663,8.15019467 C8.56690452,7.89550188 8.01040849,6.95631983 8.25592642,6.03305055 C8.51780614,5.10979393 9.48349004,4.56857016 10.4327991,4.80733753 C11.3821212,5.06203032 11.9386173,6.00122503 11.6930993,6.92448165 C11.4475944,7.84775094 10.4655357,8.40490013 9.51622663,8.15019467 Z M10.4982723,4.60040834 C9.43437863,4.31387737 8.33776139,4.93469026 8.04314508,5.96938685 C7.76489056,7.00407077 8.38685977,8.07060555 9.46711523,8.35713652 C10.5310089,8.62775474 11.6276261,8.02285461 11.9222425,6.97224526 C12.200497,5.95346142 11.562166,4.88693932 10.4982723,4.60040834 L10.4982723,4.60040834 Z" id="Shape" fill="#22297B" fill-rule="nonzero"></path>
                    <path d="M10.3182276,6.57427431 C10.2691162,6.76530341 10.0727227,6.87673071 9.8763031,6.81305435 C9.67989657,6.76529074 9.565325,6.57427431 9.63079819,6.38325789 C9.67989657,6.19224146 9.8763031,6.08081415 10.0727227,6.14449052 C10.2691292,6.20815422 10.3837007,6.38325789 10.3182276,6.57427431 Z M10.7274154,4.91876483 L10.6128439,4.95060301 L10.5801073,4.83917571 L10.6946788,4.80733753 L10.7274154,4.91876483 Z M10.9892951,5.04611756 L11.1038667,5.04611756 L11.1038667,5.15754487 L10.9892951,5.15754487 L10.9892951,5.04611756 Z M11.4312196,5.49182678 L11.316648,5.46000127 L11.3493846,5.34856129 L11.4639562,5.38039948 L11.4312196,5.49182678 Z M11.3493846,7.46571809 L11.4639562,7.46571809 L11.4639562,7.57713272 L11.3493846,7.57713272 L11.3493846,7.46571809 Z M11.0118838,7.8875455 L11.0408556,7.77993168 L11.1518317,7.80810841 L11.1226906,7.91587426 L11.0118838,7.8875455 Z M10.5964821,8.10244373 L10.6455805,8.00692918 L10.760152,8.05469279 L10.6946788,8.15019467 L10.5964821,8.10244373 Z M10.1381958,8.19794561 L10.2200308,8.11835649 L10.3182276,8.19794561 L10.2200308,8.2775474 L10.1381958,8.19794561 Z M9.67989657,8.18203285 L9.77810635,8.11835649 L9.8435665,8.22978379 L9.74536975,8.2775474 L9.67989657,8.18203285 Z M9.2379721,8.05469279 L9.35254366,8.02285461 L9.38528026,8.13428191 L9.2707087,8.1661201 L9.2379721,8.05469279 Z M8.84514602,7.79998733 L8.9597306,7.79998733 L8.9597306,7.9114273 L8.84514602,7.9114273 L8.84514602,7.79998733 Z M8.51174863,7.59305815 L8.54152812,7.48560903 L8.65217859,7.51425453 L8.62255542,7.62202038 L8.51174863,7.59305815 Z M8.26214025,7.17487952 L8.31943255,7.07841477 L8.41861934,7.13428679 L8.36132705,7.23075154 L8.26214025,7.17487952 Z M8.22318983,6.63795068 L8.3050248,6.7175398 L8.22318983,6.81306702 L8.14134184,6.7175398 L8.22318983,6.63795068 Z M8.23955161,6.19224146 L8.3050248,6.28774334 L8.19045324,6.3514197 L8.14134184,6.25591782 L8.23955161,6.19224146 Z M8.25902683,5.79508135 L8.36967729,5.76610645 L8.39946981,5.8737076 L8.28881934,5.9026825 L8.25902683,5.79508135 Z M8.50127501,5.38071621 L8.61584657,5.38024744 L8.61632856,5.49167475 L8.501757,5.49215618 L8.50127501,5.38071621 Z M8.9597306,5.07795574 L8.92699401,5.18938305 L8.81242245,5.15754487 L8.84514602,5.04611756 L8.9597306,5.07795574 Z M9.20752824,4.92099464 L9.26482054,4.82452989 L9.36400733,4.88024988 L9.30671504,4.97671463 L9.20752824,4.92099464 Z M9.65174544,4.76739093 L9.73260339,4.68843528 L9.81378702,4.7670742 L9.73292907,4.84602985 L9.65174544,4.76739093 Z" id="Shape" fill="#22297B" fill-rule="nonzero"></path>
                </g>
            </g>
        </g>
    </g>
</svg>