<?xml version="1.0" encoding="UTF-8"?>
<svg width="20px" height="20px" viewBox="0 0 20 20" version="1.1" xmlns="http://www.w3.org/2000/svg" xmlns:xlink="http://www.w3.org/1999/xlink">
    <!-- Generator: Sketch 55.2 (78181) - https://sketchapp.com -->
    <title>Internationalcalls</title>
    <desc>Created with Sketch.</desc>
    <g id="Page-1" stroke="none" stroke-width="1" fill="none" fill-rule="evenodd">
        <g id="Fides-suite-Legal-page-国旗切图" transform="translate(-300.000000, -30.000000)" fill="#2777FF" fill-rule="nonzero">
            <g id="International-choice" transform="translate(300.000000, 29.000000)">
                <g id="Internationalcalls" transform="translate(0.000000, 1.000000)">
                    <g id="Shape">
                        <path d="M0,9.57828565 C0.0821635584,7.54063415 0.784606604,5.57666073 2.01335747,3.94910251 C2.74785338,4.30956866 3.51147134,4.60737966 4.29607568,4.83936262 C3.85560361,6.38135879 3.62073519,7.97477982 3.59756391,9.57828565 L0,9.57828565 Z M16.3807859,9.57828565 C16.3531586,7.97416933 16.1136832,6.38073659 15.6685779,4.83936262 C16.4535396,4.60842539 17.2172451,4.31058025 17.9512961,3.94910251 C19.1819385,5.57597655 19.8860214,7.54008101 19.969219,9.57828565 L16.3807859,9.57828565 Z M17.960427,16.0201165 C17.226376,15.6586387 16.4626705,15.3607936 15.6777087,15.1298564 C16.1037189,13.6531453 16.3399776,12.1282027 16.3807859,10.5918125 L19.969219,10.5918125 C19.848661,12.5595571 19.1498565,14.4479173 17.960427,16.0201165 L17.960427,16.0201165 Z M2.01335747,16.0201165 C0.827239659,14.4464718 0.130233252,12.5586799 0.0091308809,10.5918125 L3.59756391,10.5918125 C3.63985795,12.1283992 3.87765141,13.6533456 4.30520657,15.1298564 C3.5174862,15.3613539 2.75079475,15.6591722 2.01335747,16.0201165 L2.01335747,16.0201165 Z M15.3535627,3.88062098 C14.9253978,2.67473445 14.2750083,1.55978102 13.4360794,0.59350673 C14.9041553,1.12586441 16.2258992,1.99712045 17.2938732,3.13645483 C16.6667924,3.4330803 16.0181718,3.68184539 15.3535627,3.88062098 L15.3535627,3.88062098 Z M4.6247871,3.88062098 C3.96017802,3.68184539 3.31155739,3.4330803 2.68447661,3.13645483 C3.74888703,1.99181599 5.06936489,1.11566955 6.53770498,0.579810426 C5.69568522,1.54822511 5.04640987,2.66857374 4.6247871,3.88062098 L4.6247871,3.88062098 Z M6.54227041,19.3757122 C5.07364916,18.8444413 3.75166692,17.9730282 2.68447661,16.8327641 C3.31047245,16.5410249 3.95755067,16.2968444 4.62022168,16.1022943 C5.0477245,17.3053538 5.69998034,18.4162029 6.54227041,19.3757122 L6.54227041,19.3757122 Z M13.4360794,19.3757122 C14.2750083,18.409438 14.9253978,17.2944845 15.3535627,16.088598 C16.0181718,16.2873736 16.6667924,16.5361387 17.2938732,16.8327641 C16.2258992,17.9720985 14.9041553,18.8433546 13.4360794,19.3757122 L13.4360794,19.3757122 Z M4.60195991,9.57828565 C4.62843295,8.06210117 4.85563739,6.55610416 5.27764451,5.09959251 C6.65646204,5.42487306 8.06599766,5.60240414 9.48241148,5.62918314 L9.48241148,9.57828565 L4.60195991,9.57828565 Z M5.27764451,14.865061 C4.8729578,13.475018 4.64742751,12.0389884 4.60652537,10.5918125 L9.48241148,10.5918125 L9.48241148,14.3400358 C8.06632433,14.367598 6.65703024,14.5435685 5.27764451,14.865061 L5.27764451,14.865061 Z M14.6961399,14.865061 C13.3183029,14.543554 11.9105206,14.3675812 10.4959384,14.3400358 L10.4959384,10.5918125 L15.3672591,10.5918125 C15.3285714,12.0391919 15.1029968,13.4755031 14.6961399,14.865061 L14.6961399,14.865061 Z M10.4959384,9.57828565 L10.4959384,5.62918314 C11.9108455,5.60239186 13.3188665,5.42485878 14.6961399,5.09959251 C15.1195345,6.55593069 15.3482715,8.06191062 15.3763899,9.57828565 L10.4959384,9.57828565 Z M10.4959384,0 L10.8611733,0 C12.2718931,0.456543649 13.5273882,1.92661419 14.3674285,4.10889281 C13.0960075,4.39346455 11.7986785,4.54645145 10.4959384,4.56543642 L10.4959384,0 Z M9.48241148,4.61565625 C8.17816453,4.59666142 6.87932269,4.44367652 5.60635596,4.1591126 C6.44639627,1.97226856 7.70645671,0.506763444 9.11717658,0.0502197954 L9.48241148,0.0502197954 L9.48241148,4.61565625 Z M9.48241148,19.969219 L9.11717658,19.969219 C7.70645671,19.5126753 6.44639627,18.0380394 5.60635596,15.8603262 C6.87969973,15.5779833 8.17831386,15.4250252 9.48241148,15.4037825 L9.48241148,19.969219 Z M10.4959384,15.3535627 C11.7985287,15.3748011 13.0956291,15.5277611 14.3674285,15.8101064 C13.5273882,17.9969504 12.2718931,19.4624555 10.8611733,19.9189992 L10.4959384,19.9189992 L10.4959384,15.3535627 Z"></path>
                    </g>
                </g>
            </g>
        </g>
    </g>
</svg>