<?xml version="1.0" encoding="UTF-8"?>
<svg width="20px" height="13px" viewBox="0 0 20 13" version="1.1" xmlns="http://www.w3.org/2000/svg" xmlns:xlink="http://www.w3.org/1999/xlink">
    <!-- Generator: Sketch 55.2 (78181) - https://sketchapp.com -->
    <title>Japan</title>
    <desc>Created with Sketch.</desc>
    <g id="Page-1" stroke="none" stroke-width="1" fill="none" fill-rule="evenodd">
        <g id="Fides-suite-Legal-page-国旗切图" transform="translate(-578.000000, -34.000000)">
            <g id="Japan" transform="translate(578.000000, 34.000000)">
                <g id="riben" stroke-width="1" fill-rule="evenodd">
                    <path d="M0.0916369412,12.8570552 L19.8429453,12.8570552 L19.8429453,0.0826775488 L0.0916369412,0.0826775488 L0.0916369412,12.8570552 L0.0916369412,12.8570552 Z M19.9190994,12.9570679 L19.9190994,12.8570679 L19.9190994,12.9570679 Z M0.00995912204,12.9523939 L0.00995912204,0.00322860259 L19.9246231,0.00322860259 L19.9246231,12.9365041 L0.00995912204,12.9365041 L0.00995912204,12.9523939 Z" id="Shape" fill="#353636" fill-rule="nonzero"></path>
                    <polygon id="Path" fill="#FFFFFF" fill-rule="nonzero" points="0.0426354571 0.0508979703 19.8756086 0.0508979703 19.8756086 12.9047246 0.0426354571 12.9047246"></polygon>
                    <path d="M5.98925977,6.46986638 C5.98925977,8.6021908 7.76662765,10.3307813 9.95912204,10.3307813 C12.1516164,10.3307813 13.9289843,8.6021908 13.9289843,6.46986638 C13.9289843,4.33754195 12.1516164,2.60895146 9.95912204,2.60895146 C7.76662765,2.60895146 5.98925977,4.33754195 5.98925977,6.46986638 Z" id="Path" fill="#C01D3C" fill-rule="nonzero"></path>
                </g>
                <rect id="Rectangle" stroke="#CCCCCC" stroke-width="0.1" x="0.05" y="0.05" width="19.9" height="12.9"></rect>
            </g>
        </g>
    </g>
</svg>