<?xml version="1.0" encoding="UTF-8"?>
<svg xmlns:xlink="http://www.w3.org/1999/xlink" width="16px" height="14px" viewBox="0 0 16 14" version="1.1" xmlns="http://www.w3.org/2000/svg">
    <!-- Generator: Sketch 55.2 (78181) - https://sketchapp.com -->
    <title></title>
    <desc>Created with Sketch.</desc>
    <g id="Page-1" stroke="none" stroke-width="1" fill="none" fill-rule="evenodd">
        <g id="Product-icon-切图" transform="translate(-30.000000, -948.000000)" fill="#FFFFFF">
            <g id="左侧导航栏">
                <g id="left-title-copy-5" transform="translate(0.000000, 930.000000)">
                    <g id="left-title-含子栏">
                        <g id="数据导入" transform="translate(30.000000, 17.000000)">
                            <g id="ic_daoru" transform="translate(0.000000, 1.000000)">
                                <path d="M14.3318572,1.74171876 L7.96214289,1.74171876 L6.36971431,0 L1.59242857,0 C0.716592858,0 0.00796214483,0.784271069 0.00796214483,1.74171876 L0,12.1920313 C0,13.149479 0.716592858,13.9337501 1.59242857,13.9337501 L14.3318572,13.9337501 C15.2076929,13.9337501 15.9242858,13.149479 15.9242858,12.1920313 L15.9242858,3.48343751 C15.9242858,2.52499457 15.2076929,1.74171876 14.3318572,1.74171876 Z M7.96214289,11.1738723 L4.1154326,6.91611636 L6.56379154,6.91611636 L6.56379154,4.49761546 L9.36049423,4.49761546 L9.36049423,6.91611636 L11.8088532,6.91611636 L7.96214289,11.1738723 Z" id="Shape" fill-rule="nonzero"></path>
                            </g>
                        </g>
                    </g>
                </g>
            </g>
        </g>
    </g>
</svg>
