<?xml version="1.0" encoding="UTF-8"?>
<svg xmlns:xlink="http://www.w3.org/1999/xlink" width="16px" height="16px" viewBox="0 0 16 16" version="1.1" xmlns="http://www.w3.org/2000/svg">
    <!-- Generator: Sketch 55.2 (78181) - https://sketchapp.com -->
    <title></title>
    <desc>Created with Sketch.</desc>
    <g id="Page-1" stroke="none" stroke-width="1" fill="none" fill-rule="evenodd">
        <g id="Product-icon-切图" transform="translate(-30.000000, -97.000000)" fill="#FFFFFF">
            <g id="左侧导航栏">
                <g id="left-title" transform="translate(0.000000, 80.000000)">
                    <g id="homepage" transform="translate(30.000000, 17.000000)">
                        <g id="home_page_SFontCN">
                            <path d="M10.6190355,5.97808673 C10.3282741,5.70216837 10.0667513,5.45237245 9.83446701,5.22869898 L9.23182741,4.67033163 C9.07263959,4.5217602 8.9784264,4.43196429 8.94593909,4.39931122 C8.65030457,4.12339286 8.31730964,3.99278061 7.94695431,4.00910714 C7.57659898,4.02543367 7.25984772,4.15441327 6.99507614,4.39931122 C6.95284264,4.4417602 6.84888325,4.53971939 6.6864467,4.69482143 C6.52238579,4.84829082 6.3193401,5.03767857 6.07568528,5.25971939 C5.83203046,5.48339286 5.56238579,5.72992347 5.26675127,6.00094388 C4.97111675,6.27196429 4.67548223,6.54461735 4.37984772,6.82216837 C3.67162437,7.47033163 2.88380711,8.19196429 2.0180203,8.98869898 L2.0180203,15.1666582 C2.0180203,15.421352 2.10736041,15.6189031 2.28766497,15.7560459 C2.46796954,15.8948214 2.71,15.9633929 3.01700508,15.9633929 L6.1406599,15.9633929 C6.13903553,15.9307398 6.13741117,15.8964541 6.13741117,15.8621684 L6.13741117,13.1454337 C6.13741117,12.2866582 6.83101523,11.5895153 7.68543147,11.5895153 L8.25883249,11.5895153 C9.11324873,11.5895153 9.80685279,12.2866582 9.80685279,13.1454337 L9.80685279,15.863801 C9.80685279,15.8980867 9.80522843,15.9307398 9.80360406,15.9650255 L12.9288832,15.9650255 C13.2245178,15.9552296 13.4600508,15.8589031 13.6338579,15.6776786 C13.807665,15.4964541 13.8953807,15.2907398 13.8953807,15.0556378 L13.8953807,9.02135204 C13.0182234,8.20339286 12.225533,7.46543367 11.5173096,6.80584184 C11.2086802,6.53155612 10.909797,6.2540051 10.6190355,5.97808673 Z" id="Path" fill-rule="nonzero"></path>
                            <path d="M15.9209645,7.41318878 C15.9095939,7.1584949 15.794264,6.92502551 15.5717259,6.71278061 L15.1753807,6.31441327 C14.9739594,6.11196429 14.7270558,5.87033163 14.429797,5.58951531 C14.1341624,5.30869898 13.8092893,4.99196429 13.4551777,4.64094388 C13.101066,4.28992347 12.7388325,3.93727041 12.3684772,3.58135204 C11.9981218,3.22543367 11.634264,2.87278061 11.2752792,2.5217602 C10.9162944,2.1707398 10.5914213,1.85563776 10.3006599,1.57318878 C10.0098985,1.29237245 9.76461929,1.05237245 9.56319797,0.856454082 C9.36177665,0.660535714 9.23020305,0.534821429 9.16685279,0.482576531 C8.84035533,0.162576531 8.44401015,0.00584183673 7.97944162,0.0107397959 C7.5148731,0.0156377551 7.08116751,0.214821429 6.67994924,0.608290816 C6.62634518,0.660535714 6.43954315,0.838494898 6.11791878,1.14216837 C5.79629442,1.44420918 5.40969543,1.80829082 4.96137056,2.23441327 C4.51142132,2.65890306 4.02573604,3.11604592 3.50269036,3.60420918 C2.97964467,4.09237245 2.49071066,4.54951531 2.03588832,4.9740051 C1.58106599,5.3984949 1.18959391,5.76584184 0.863096447,6.07278061 C0.534974619,6.38135204 0.340050761,6.56747449 0.276700508,6.63114796 C0.107766497,6.79114796 0.0184263959,7.00502551 0.00705583756,7.27604592 C-0.00431472081,7.54706633 0.0963959391,7.77890306 0.307563452,7.96992347 C0.497614213,8.13971939 0.725025381,8.21971939 0.989796954,8.20829082 C1.25456853,8.19686224 1.46573604,8.12829082 1.62329949,8.00094388 C1.67690355,7.9584949 1.83121827,7.81808673 2.09111675,7.57808673 C2.34939086,7.33971939 2.65964467,7.04910714 3.01862944,6.70951531 C3.37761421,6.36992347 3.76908629,6.00257653 4.19142132,5.6107398 C4.61375635,5.21727041 5.01659898,4.84012755 5.39670051,4.47931122 C5.77680203,4.1184949 6.11304569,3.8017602 6.40380711,3.5307398 C6.69456853,3.25971939 6.89274112,3.07686224 6.99832487,2.98053571 C7.31507614,2.69318878 7.63832487,2.54461735 7.96482234,2.53482143 C8.29294416,2.52502551 8.62593909,2.67359694 8.96380711,2.98053571 C9.03852792,3.04420918 9.21233503,3.20910714 9.48685279,3.47359694 C9.76137056,3.73971939 10.0894924,4.05318878 10.4695939,4.4140051 C10.8496954,4.77482143 11.2541624,5.16012755 11.6829949,5.56992347 C12.1118274,5.97808673 12.5130457,6.3617602 12.8882741,6.71767857 C13.2635025,7.07359694 13.5851269,7.37890306 13.8547716,7.63359694 C14.1244162,7.88829082 14.2852284,8.03686224 14.3388325,8.07931122 C14.4980203,8.21808673 14.7091878,8.29155612 14.972335,8.30298469 C15.2371066,8.31441327 15.4693909,8.22788265 15.6691878,8.04829082 C15.847868,7.88012755 15.932335,7.66788265 15.9209645,7.41318878 Z" id="Path" fill-rule="nonzero"></path>
                        </g>
                    </g>
                </g>
            </g>
        </g>
    </g>
</svg>
