<?xml version="1.0" encoding="UTF-8"?>
<svg xmlns:xlink="http://www.w3.org/1999/xlink" width="15px" height="16px" viewBox="0 0 15 16" version="1.1" xmlns="http://www.w3.org/2000/svg">
    <!-- Generator: Sketch 55.2 (78181) - https://sketchapp.com -->
    <title></title>
    <desc>Created with Sketch.</desc>
    <g id="Page-1" stroke="none" stroke-width="1" fill="none" fill-rule="evenodd">
        <g id="Product-icon-切图" transform="translate(-31.000000, -597.000000)" fill="#FFFFFF">
            <g id="左侧导航栏">
                <g id="left-title-copy-3" transform="translate(0.000000, 580.000000)">
                    <g id="left-title-含子栏">
                        <g id="campaign" transform="translate(30.000000, 17.000000)">
                            <g id="btn_atvityx" transform="translate(1.000000, 0.000000)">
                                <path d="M13.9502118,0 C14.1648468,0 14.338971,0.163527469 14.338971,0.365368125 L14.338971,15.6346368 C14.338971,15.7671301 14.2626805,15.8891948 14.139566,15.9537267 C14.0164935,16.0182446 13.8659144,16.015109 13.7460054,15.9454397 L7.21025411,12.1546737 L0.595860672,15.9463776 C0.475867734,16.015109 0.325792578,16.0176287 0.203279969,15.9530268 C0.0807533594,15.8883689 0.00477089063,15.7666122 0.00477089063,15.6345668 L0.00477089063,0.365354125 C0.00477089063,0.268402297 0.04568775,0.175453969 0.118646594,0.106946578 C0.191521438,0.0384811719 0.290419016,0 0.393530078,0 L13.9502118,0 Z M5.7561307,5.07828233 L5.7561307,5.07836631 L3.4457908,5.39395669 L5.11767088,6.92567236 C5.21579855,7.01562506 5.26048094,7.14510881 5.23734184,7.27204486 L4.84267539,9.43502525 L6.90912392,8.41388148 C7.0303767,8.353969 7.17518852,8.353969 7.29653927,8.41388148 L9.36305778,9.43510925 L8.96830734,7.27210084 C8.94516825,7.14516478 8.98994863,7.01568105 9.08799231,6.92584033 L10.7598444,5.3938727 L8.4494345,5.07828233 C8.31386153,5.05981864 8.19671023,4.9797347 8.13604186,4.8642632 L7.10283159,2.89634831 L6.06952334,4.8642632 C6.00885497,4.9797207 5.89171767,5.05973466 5.7561307,5.07829633 L5.7561307,5.07828233 Z" id="Shape" fill-rule="nonzero"></path>
                            </g>
                        </g>
                    </g>
                </g>
            </g>
        </g>
    </g>
</svg>
