<?xml version="1.0" encoding="UTF-8"?>
<svg xmlns:xlink="http://www.w3.org/1999/xlink" width="16px" height="16px" viewBox="0 0 16 16" version="1.1" xmlns="http://www.w3.org/2000/svg">
    <!-- Generator: Sketch 55.2 (78181) - https://sketchapp.com -->
    <title></title>
    <desc>Created with Sketch.</desc>
    <g id="Page-1" stroke="none" stroke-width="1" fill="none" fill-rule="evenodd">
        <g id="Product-icon-切图" transform="translate(-30.000000, -897.000000)" fill="#FFFFFF">
            <g id="左侧导航栏">
                <g id="left-title-copy-4" transform="translate(0.000000, 880.000000)">
                    <g id="left-title-含子栏">
                        <g id="Reporting" transform="translate(30.000000, 17.000000)">
                            <g id="shuju-2">
                                <path d="M8.66163909,13.9272318 C8.30567401,14.1076159 7.72769772,14.1070822 7.3701316,13.9266981 L2.48908717,11.4568235 C2.37808156,11.400787 2.30123153,11.3335432 2.25960443,11.26203 L0.0320208469,11.26203 C0.0779173941,11.3885123 0.193726124,11.5091242 0.380514397,11.6073214 L7.11930163,15.1376198 C7.61188899,15.3953876 8.41080912,15.3959213 8.90179544,15.1386872 L15.6240386,11.6169277 C15.81563,11.5165957 15.9319724,11.3922481 15.9741332,11.26203 L13.7636274,11.26203 C13.7225339,11.3362116 13.6451502,11.4061238 13.5304089,11.4637613 L8.66163909,13.9272318 Z M13.5304089,7.98214567 L8.66163909,10.4456162 C8.30567401,10.6260003 7.72769772,10.6254666 7.3701316,10.4450825 L2.48908717,7.97520782 C2.37808156,7.91863765 2.30123153,7.85192756 2.25960443,7.78041433 L0.0320208469,7.78041433 C0.0779173941,7.90689668 0.193726124,8.02750853 0.380514397,8.12517212 L7.11930163,11.6554705 C7.61188899,11.913772 8.41080912,11.9143057 8.90179544,11.6570715 L15.6240386,8.13531205 C15.81563,8.03498007 15.9319724,7.91063244 15.9741332,7.78041433 L13.7636274,7.78041433 C13.7225339,7.85459596 13.6451502,7.92450814 13.5304089,7.98214567 L13.5304089,7.98214567 Z M0.380514397,4.65316274 L7.11983531,8.18346111 C7.61242267,8.44176261 8.4113428,8.44229629 8.90232912,8.18506215 L15.6245722,4.66330267 C16.1166259,4.40553485 16.1155586,3.9876628 15.6224375,3.7293613 L8.88365029,0.199062932 C8.39052925,-0.0592385668 7.5921428,-0.0597722476 7.10115648,0.19799557 L0.378913355,3.71922137 C-0.113140326,3.97698919 -0.112072964,4.39539492 0.381048078,4.65316274 L0.380514397,4.65316274 Z" id="Shape" fill-rule="nonzero"></path>
                            </g>
                        </g>
                    </g>
                </g>
            </g>
        </g>
    </g>
</svg>
