<?xml version="1.0" encoding="UTF-8"?>
<svg xmlns:xlink="http://www.w3.org/1999/xlink" width="16px" height="15px" viewBox="0 0 16 15" version="1.1" xmlns="http://www.w3.org/2000/svg">
    <!-- Generator: Sketch 55.2 (78181) - https://sketchapp.com -->
    <title></title>
    <desc>Created with Sketch.</desc>
    <g id="Page-1" stroke="none" stroke-width="1" fill="none" fill-rule="evenodd">
        <g id="Product-icon-切图" transform="translate(-30.000000, -298.000000)" fill="#FFFFFF">
            <g id="左侧导航栏">
                <g id="left-title-copy-2" transform="translate(0.000000, 280.000000)">
                    <g id="left-title-含子栏">
                        <g id="loyalty" transform="translate(30.000000, 17.000000)">
                            <g id="zhongchengdufenxi" transform="translate(0.000000, 1.000000)">
                                <path d="M4.35313628,0.0799141563 L5.15227783,-3.10862447e-14 L11.1458394,-3.10862447e-14 C11.5454102,-3.10862447e-14 11.8650668,0.159828299 12.1048093,0.399570767 C12.1048093,0.399570767 15.4612038,4.07562189 15.5411179,4.15553604 C16.100517,4.87476343 16.100517,5.91364745 15.5411179,6.55296069 C14.9018047,7.27218808 14.022749,8.31107208 11.8650668,10.7084967 L9.14798556,13.7452346 C8.74841479,14.2247195 8.42875817,14.3845478 7.94927324,14.3845478 C7.54970246,14.3845478 7.15013169,14.2247195 6.83047507,13.8251488 L4.19330797,10.868325 C1.4762267,7.83158716 0.357428537,6.55296069 0.357428537,6.55296069 C-0.122056386,5.75381914 -0.122056386,4.87476343 0.437342694,4.2354502 C0.677085162,3.91579359 3.23433811,0.958969861 3.55399473,0.639313236 C3.7937372,0.319656625 4.03347966,0.159828313 4.35313628,0.0799141563 Z M5.5518486,4.79484928 L4.43305044,4.79484928 C6.35099015,7.91150132 7.46978832,9.82944103 7.94927324,10.3888401 C8.42875817,9.82944104 9.6274705,7.91150132 11.5454102,4.79484928 L10.3466979,4.79484928 L7.94927324,8.79055702 L5.5518486,4.79484928 Z" id="Combined-Shape" fill-rule="nonzero"></path>
                            </g>
                        </g>
                    </g>
                </g>
            </g>
        </g>
    </g>
</svg>
