<?xml version="1.0" encoding="UTF-8"?>
<svg xmlns:xlink="http://www.w3.org/1999/xlink" width="16px" height="16px" viewBox="0 0 16 16" version="1.1" xmlns="http://www.w3.org/2000/svg">
    <!-- Generator: Sketch 55.2 (78181) - https://sketchapp.com -->
    <title></title>
    <desc>Created with Sketch.</desc>
    <g id="Page-1" stroke="none" stroke-width="1" fill="none" fill-rule="evenodd">
        <g id="Product-icon-切图" transform="translate(-30.000000, -147.000000)" fill="#FFFFFF">
            <g id="左侧导航栏">
                <g id="left-title-copy" transform="translate(0.000000, 130.000000)">
                    <g id="left-title-含子栏">
                        <g id="member" transform="translate(30.000000, 17.000000)">
                            <g id="huiyuan-copy">
                                <path d="M5.98546748,11.4527595 C5.98164788,10.7202781 6.13075747,9.99506324 6.42325763,9.32350738 C6.69962293,8.67575044 7.0944193,8.08524305 7.58738144,7.58229656 C7.9926791,7.17668316 8.45942112,6.83753968 8.97040031,6.57736917 L9.04999852,6.32862477 C9.12484437,6.30770501 9.19552658,6.27404682 9.25894383,6.22912701 C9.34889807,6.15681568 9.42915741,6.0732122 9.49773845,5.9803826 C9.58067458,5.86308186 9.64137876,5.73155613 9.67683442,5.59234132 C9.72359631,5.44449844 9.74380792,5.28954279 9.73653308,5.13465163 C9.72872346,5.00760257 9.69840294,4.88295156 9.64698509,4.7665099 C9.60334763,4.65300718 9.53927349,4.54846516 9.45793935,4.45806685 C9.45793935,4.07919021 9.43801227,3.70057577 9.39824069,3.32379237 C9.35108127,2.9878057 9.28127386,2.65538942 9.1892954,2.32881475 C9.09940299,1.97176611 8.94422832,1.63442988 8.73160569,1.33383714 C8.55056153,1.08054703 8.33255916,0.855836892 8.08487024,0.667202146 C7.86574326,0.499268831 7.62472527,0.362022476 7.36848637,0.259261318 C7.134099,0.146684355 6.88684116,0.0631513024 6.63220292,0.0105169154 C6.41685263,-0.00351051806 6.20081777,-0.00351051806 5.98546748,0.0105169154 C5.77011718,-0.00351051806 5.55408232,-0.00351051806 5.33873203,0.0105169154 C5.08623676,0.0472012617 4.83904689,0.114009332 4.60244859,0.209512438 C4.34620968,0.312273595 4.10519169,0.449519951 3.88606471,0.617453265 C3.64116545,0.809871342 3.4265153,1.03793713 3.24927904,1.29403803 C3.03665641,1.59463077 2.88148174,1.93196701 2.79158933,2.28901566 C2.69961087,2.61559032 2.62980345,2.94800661 2.58264403,3.28399327 C2.54035862,3.68387748 2.52042807,4.08581035 2.52294538,4.48791618 C2.44161124,4.57831449 2.37753709,4.68285651 2.33389963,4.79635924 C2.28248179,4.91280089 2.25216127,5.03745189 2.24435165,5.16450095 C2.23707681,5.31939211 2.25728842,5.47434777 2.30405031,5.62219066 C2.33973831,5.75030624 2.39693426,5.87142708 2.4731965,5.9803826 C2.52871203,6.0564662 2.59207582,6.12649987 2.66224224,6.18932789 C2.72565949,6.2342477 2.7963417,6.2679059 2.87118755,6.28882565 L3.00053464,6.78631446 C3.04977645,6.91541942 3.10624788,7.04164966 3.16968083,7.16440595 C3.22437874,7.27316882 3.29857268,7.37096994 3.3885759,7.45294947 C3.5544055,7.59224634 3.70696874,7.72822661 3.84626561,7.86089028 C3.99132728,8.00713761 4.07649681,8.20231777 4.08506023,8.40812797 L4.08506023,8.83596835 C4.08536683,8.96198561 4.06173172,9.08691405 4.0154118,9.20411007 C3.95470787,9.34045067 3.87051212,9.46506038 3.7666674,9.57225179 C3.62180487,9.71953027 3.45782758,9.84669633 3.27912836,9.95034328 C3.0939477,10.0638828 2.89714827,10.1572791 2.69209157,10.228937 L2.02545658,10.4378823 L1.35882156,10.6368778 C1.16368854,10.7194597 0.979810449,10.8264433 0.811583877,10.9552707 C0.636825318,11.0640911 0.482019214,11.2020705 0.353894185,11.3632115 C0.22721238,11.5362647 0.145189771,11.7379036 0.115099549,11.9502483 C0.0103594881,12.4672754 -0.0231171453,12.9962062 0.0156017879,13.5223129 C0.0686672626,13.9335703 0.151582064,14.1789981 0.264346191,14.2585963 C0.396021558,14.3354248 0.541294808,14.3861015 0.692186567,14.407843 L1.52796777,14.5570896 L2.62244314,14.6963865 L3.83631583,14.8157838 L5.04023874,14.9351811 L7.22918949,14.9351811 C6.90321032,14.5388863 6.6321266,14.1004669 6.42325763,13.6317604 C6.12389159,12.9448682 5.97463446,12.2019748 5.98546748,11.4527595 Z" id="Path" fill-rule="nonzero"></path>
                                <path d="M15.5770517,9.71154865 C15.3379403,9.178857 15.0003639,8.69612272 14.5820741,8.28873066 C14.1770968,7.86760868 13.6937793,7.52962441 13.1592561,7.29375305 C12.0433555,6.81988466 10.7827852,6.81988466 9.66688465,7.29375305 C9.13248715,7.52984751 8.64921039,7.86780329 8.24406667,8.28873066 C7.82577686,8.69612272 7.48820043,9.178857 7.24908904,9.71154865 C6.77741385,10.8209876 6.77741385,12.0745816 7.24908904,13.1840205 C7.48820043,13.7167122 7.82577686,14.1994465 8.24406667,14.6068385 C9.08228435,15.4477506 10.2207699,15.9203973 11.4080955,15.9203973 C12.5954211,15.9203973 13.7339066,15.4477506 14.5721243,14.6068385 C14.9904141,14.1994465 15.3279905,13.7167122 15.5671019,13.1840205 C16.0387771,12.0745816 16.0387771,10.8209876 15.5671019,9.71154865 L15.5770517,9.71154865 Z M14.8109189,10.0398913 L12.3334247,14.3381946 C12.159736,14.6599934 11.8235249,14.860584 11.4578444,14.860584 C11.0921639,14.860584 10.7559527,14.6599934 10.5822641,14.3381946 L8.10476979,10.0299415 C7.96891449,9.79344867 8.04879862,9.49166419 8.28386576,9.35335672 L8.66195726,9.13446163 C8.89845009,8.99860633 9.20023457,9.07849046 9.33854204,9.3135576 L11.0200542,12.228842 C11.1083889,12.3847105 11.2737103,12.4810431 11.4528695,12.4810431 C11.6320286,12.4810431 11.79735,12.3847105 11.8856847,12.228842 L13.5671969,9.3135576 C13.7055044,9.07849046 14.0072888,8.99860633 14.2437817,9.13446163 L14.6218732,9.35335672 C14.86056,9.48826155 14.9451071,9.79085099 14.8109189,10.0299415 L14.8109189,10.0398913 Z" id="Shape" fill-rule="nonzero"></path>
                            </g>
                        </g>
                    </g>
                </g>
            </g>
        </g>
    </g>
</svg>
