<?xml version="1.0" encoding="UTF-8"?>
<svg xmlns:xlink="http://www.w3.org/1999/xlink" width="16px" height="16px" viewBox="0 0 16 16" version="1.1" xmlns="http://www.w3.org/2000/svg">
    <!-- Generator: Sketch 55.2 (78181) - https://sketchapp.com -->
    <title></title>
    <desc>Created with Sketch.</desc>
    <g id="Page-1" stroke="none" stroke-width="1" fill="none" fill-rule="evenodd">
        <g id="Homepage-icon-group-切图" transform="translate(-565.000000, -49.000000)" fill="#FFFFFF">
            <g id="icon-Tools" transform="translate(565.000000, 49.000000)">
                <g id="gongju">
                    <path d="M13.4328358,3.65079365 C13.4328358,2.64550265 12.6865672,1.7989418 11.7412935,1.7989418 L9.2039801,1.7989418 L9.2039801,0.899470899 C9.2039801,0.37037037 8.80597015,0 8.35820896,0 L5.02487562,0 C4.57711443,0 4.17910448,0.423280423 4.17910448,0.899470899 L4.17910448,1.7989418 L1.69154229,1.7989418 C0.746268657,1.85185185 0,2.64550265 0,3.65079365 L0,5.92592593 L13.4328358,5.92592593 L13.4328358,3.65079365 Z M8.4079602,1.85185185 L5.07462687,1.85185185 L5.07462687,1.37566138 C5.07462687,1.11111111 5.27363184,0.899470899 5.47263682,0.899470899 L7.960199,0.899470899 C8.20895522,0.899470899 8.35820896,1.11111111 8.35820896,1.37566138 L8.4079602,1.85185185 L8.4079602,1.85185185 Z M5.87064677,7.35449735 C5.87064677,7.88359788 6.26865672,8.25396825 6.71641791,8.25396825 C7.1641791,8.25396825 7.56218905,7.83068783 7.56218905,7.35449735 C7.56218905,7.1957672 7.51243781,7.03703704 7.46268657,6.87830688 L5.97014925,6.87830688 C5.92039801,7.03703704 5.87064677,7.1957672 5.87064677,7.35449735 Z M15.8208955,8.57142857 C15.6716418,8.14814815 14.1293532,11.0582011 12.9353234,9.89417989 C11.7412935,8.73015873 14.3283582,6.82539683 13.9303483,6.71957672 C13.0845771,6.50793651 12.1393035,6.82539683 11.4925373,7.56613757 C10.7960199,8.41269841 10.6467662,9.62962963 11.0945274,10.5820106 L7.960199,14.2328042 C7.6119403,14.6560847 7.6119403,15.2910053 8.00995025,15.6613757 C8.4079602,16.031746 9.00497512,16.031746 9.35323383,15.6084656 L12.4875622,11.957672 C13.4328358,12.3280423 14.5273632,12.0634921 15.2736318,11.2169312 C15.8706468,10.4761905 16.0696517,9.41798942 15.8208955,8.57142857 L15.8208955,8.57142857 Z M8.85572139,15.1322751 C8.75621891,15.2910053 8.55721393,15.2910053 8.4079602,15.1322751 C8.25870647,15.026455 8.25870647,14.8148148 8.4079602,14.6560847 C8.50746269,14.4973545 8.70646766,14.4973545 8.85572139,14.6560847 C9.00497512,14.7619048 9.00497512,14.973545 8.85572139,15.1322751 Z" id="Shape" fill-rule="nonzero"></path>
                    <path d="M10.2985075,9.1005291 C10.2985075,8.2010582 10.6467662,7.46031746 11.1940299,6.87830688 L8.35820896,6.87830688 C8.4079602,7.03703704 8.4079602,7.1957672 8.4079602,7.35449735 C8.4079602,8.35978836 7.66169154,9.20634921 6.71641791,9.20634921 C5.77114428,9.20634921 5.02487562,8.35978836 5.02487562,7.35449735 C5.02487562,7.1957672 5.02487562,7.03703704 5.07462687,6.87830688 L0,6.87830688 L0,11.9047619 C0,12.962963 0.746268657,13.7566138 1.69154229,13.7566138 L7.56218905,13.7566138 L10.6467662,10.4761905 C10.4477612,10.1058201 10.2985075,9.62962963 10.2985075,9.1005291 L10.2985075,9.1005291 Z" id="Path" fill-rule="nonzero"></path>
                </g>
            </g>
        </g>
    </g>
</svg>
