<?xml version="1.0" standalone="no"?><!DOCTYPE svg PUBLIC "-//W3C//DTD SVG 1.1//EN"
  "http://www.w3.org/Graphics/SVG/1.1/DTD/svg11.dtd">
<svg class="icon" width="42px" height="42.00px" viewBox="0 0 1024 1024" version="1.1"
     xmlns="http://www.w3.org/2000/svg">
  <path
    d="M572.998 415.592c-36.416 0-52.754 20.41-59.182 32.4-0.806 1.506-2.998 1.502-3.804-0.002-6.406-11.99-22.654-32.398-59.068-32.398-41.48 0-77.968 28.316-77.968 80.022 0 20.922 4.262 38.848 16.1 58.854 24.116 40.768 103.566 93.614 119.884 104.028a5.474 5.474 0 0 0 5.896 0.008c16.332-10.366 95.796-62.95 120.102-104.036 11.834-20.006 16.068-37.928 16.068-58.854 0-51.706-36.548-80.022-78.028-80.022z"/>
  <path
    d="M511.914 687.664c-6.448 0-12.734-1.834-18.174-5.308-16.606-10.598-100.852-65.86-129.026-113.478-13.86-23.43-20.042-46.026-20.042-73.264 0-62.768 44.696-108.328 106.272-108.328 27.814 0 47.48 9.12 60.994 19.848 13.532-10.728 33.222-19.848 61.062-19.848 61.614 0 106.332 45.56 106.332 108.328 0 27.272-6.174 49.868-20.012 73.264-28.376 47.964-112.686 102.98-129.298 113.522a33.726 33.726 0 0 1-18.108 5.264z m-60.972-243.768c-22.91 0-49.664 13.544-49.664 51.718 0 16.972 3.522 29.848 12.154 44.442 14.862 25.124 63.136 62.684 98.508 86.536 35.378-23.744 83.676-61.226 98.652-86.538 8.614-14.56 12.126-27.432 12.126-44.442 0-38.174-26.784-51.718-49.722-51.718-16.502 0-28.022 5.878-34.238 17.472a30.406 30.406 0 0 1-26.844 16.054 30.406 30.406 0 0 1-26.872-16.102c-6.174-11.556-17.648-17.422-34.1-17.422z"/>
  <path
    d="M261.342 969.97c-16.204 0-39.432-7.458-88.822-62.738-24.384-27.288-44.382-54.15-45.22-55.278-0.742-1-1.416-2.046-2.02-3.134a117.108 117.108 0 0 1-14.696-56.73V656.7c0-15.632 12.672-28.304 28.304-28.304h172.904c26.592 0 51.676 10.272 70.632 28.922l88.534 87.118c28.39 28.386 28.39 74.32 0.164 102.548-28.37 28.37-74.302 28.37-102.53 0.144l-86.536-86.536c-4.334-0.042-10.51-0.088-19.31-0.134-15.63-0.082-28.24-12.82-28.158-28.452 0.082-15.582 12.738-28.158 28.302-28.158h0.15c10.69 0.056 18.512 0.118 23.674 0.184 10.662 0.136 19.082 0.244 27.336 8.498l94.568 94.568c6.154 6.156 16.17 6.156 22.33 0 6.298-6.298 6.298-16.314 0.142-22.47l-88.37-86.958a43.84 43.84 0 0 0-30.926-12.664H167.19v107.084c0 9.638 2.336 19.19 6.768 27.738 33.83 45.234 74.656 88.098 89.04 93.532l229.974-0.046c14.288 0 31.822-7.906 48.556-16.006 13.722-6.66 118.616-77.634 188.716-125.902 0.472-0.326 0.956-0.636 1.45-0.934 8.942-5.386 11.834-17.046 6.448-25.992a18.808 18.808 0 0 0-11.656-8.604 18.804 18.804 0 0 0-13.918 1.916l-128.14 84.978c-13.028 8.638-30.592 5.08-39.232-7.946-8.638-13.028-5.08-30.594 7.946-39.232l128.766-85.394c0.342-0.226 0.688-0.448 1.042-0.656 17.282-10.41 37.588-13.468 57.172-8.604 19.584 4.86 36.102 17.056 46.512 34.342 21.322 35.412 10.118 81.484-24.916 103.188-30.226 20.81-173.196 118.992-195.534 129.8-22.644 10.96-46.952 21.658-73.21 21.658l-231.624 0.046-0.008-0.002z"/>
  <path d="M28.304 630.454h146.258v282.394H28.304z"/>
  <path
    d="M174.562 941.146H28.304C12.672 941.146 0 928.474 0 912.84V630.444c0-15.632 12.672-28.304 28.304-28.304h146.258c15.632 0 28.304 12.672 28.304 28.304V912.84c0.002 15.634-12.67 28.306-28.304 28.306z m-117.952-56.61H146.26V658.748H56.61v225.788zM885.116 395.6h-172.904c-26.592 0-51.676-10.272-70.632-28.922l-88.534-87.118c-28.39-28.386-28.39-74.32-0.164-102.548 28.372-28.37 74.302-28.37 102.53-0.144l86.536 86.536c4.334 0.042 10.51 0.088 19.31 0.134 15.63 0.082 28.24 12.82 28.158 28.452-0.082 15.582-12.738 28.158-28.302 28.158h-0.15c-10.69-0.056-18.512-0.118-23.674-0.184-10.662-0.136-19.082-0.244-27.336-8.498l-94.568-94.568c-6.154-6.156-16.17-6.156-22.33 0-6.298 6.298-6.298 16.314-0.142 22.472l88.37 86.958a43.84 43.84 0 0 0 30.926 12.664h144.6v-107.082c0-9.638-2.336-19.19-6.768-27.738-33.83-45.234-74.656-88.098-89.04-93.532l-229.978 0.04c-14.288 0-31.822 7.906-48.556 16.006-13.722 6.66-118.616 77.634-188.716 125.902-0.472 0.326-0.956 0.636-1.45 0.934-8.942 5.386-11.834 17.046-6.448 25.992a18.808 18.808 0 0 0 11.656 8.604 18.838 18.838 0 0 0 13.918-1.916l128.14-84.978c13.028-8.638 30.594-5.08 39.234 7.946 8.638 13.028 5.08 30.594-7.946 39.232l-128.766 85.394c-0.342 0.226-0.688 0.448-1.042 0.656-17.282 10.41-37.594 13.464-57.172 8.604-19.584-4.86-36.102-17.056-46.512-34.342-21.322-35.412-10.118-81.484 24.916-103.188 30.226-20.81 173.196-118.992 195.534-129.8 22.644-10.96 46.952-21.658 73.21-21.658l231.624-0.046h0.014c16.204 0 39.432 7.458 88.822 62.738 24.384 27.288 44.382 54.15 45.22 55.278 0.742 1 1.416 2.046 2.02 3.134a117.108 117.108 0 0 1 14.696 56.73v135.39c0 15.636-12.672 28.308-28.304 28.308z"/>
  <path d="M849.448 111.15h146.258v282.394h-146.258z"/>
  <path
    d="M995.696 421.858h-146.258c-15.632 0-28.304-12.672-28.304-28.304V111.156c0-15.632 12.672-28.304 28.304-28.304h146.258c15.632 0 28.304 12.672 28.304 28.304v282.398c0 15.632-12.672 28.304-28.304 28.304z m-117.954-56.608h89.65V139.46h-89.65v225.79z"/>
</svg>
