<svg xmlns="http://www.w3.org/2000/svg" xmlns:xlink="http://www.w3.org/1999/xlink" viewBox="0 0 48 48">
  <defs>
    <clipPath id="clip-loyatal">
      <rect width="48" height="48"/>
    </clipPath>
  </defs>
  <g id="loyatal" class="cls-1">
    <g id="loyalty" transform="translate(-136.462 -46.56)">
      <path id="路径_9" data-name="路径 9" d="M309.335,190.135l-5.015-.75-2.256-4.593a2.209,2.209,0,0,0-1.958-1.232,2.175,2.175,0,0,0-1.959,1.231l-2.258,4.594-5.015.75a2.213,2.213,0,0,0-1.214,3.781l3.621,3.575-.861,5.043a2.157,2.157,0,0,0,.861,2.161,2.218,2.218,0,0,0,2.315.178l4.481-2.4,4.48,2.4a2.161,2.161,0,0,0,2.315-.178,2.185,2.185,0,0,0,.861-2.161l-.861-5.043,3.62-3.575a2.246,2.246,0,0,0,.564-2.281,2.085,2.085,0,0,0-1.721-1.5Zm-3.739,5.852a2.31,2.31,0,0,0-.623,1.981l.921,5.345-4.748-2.522a2.239,2.239,0,0,0-2.048,0l-4.749,2.522.92-5.344a2.31,2.31,0,0,0-.624-1.983l-3.858-3.783,5.312-.781a2.271,2.271,0,0,0,1.663-1.229l2.373-4.861,2.374,4.864a2.271,2.271,0,0,0,1.662,1.231l5.312.781Zm0,0" transform="translate(-139.892 -129.915)"/>
      <path id="路径_10" data-name="路径 10" d="M177.268,72.438a18.3,18.3,0,0,0,1.461-7.245,18.65,18.65,0,0,0-11.39-17.175,18.293,18.293,0,0,0-7.246-1.458,18.649,18.649,0,0,0-17.172,11.39,18.319,18.319,0,0,0-1.459,7.243,18.833,18.833,0,0,0,1.461,7.244,19.4,19.4,0,0,0,1.848,3.369l.03.059-.03.059a1.747,1.747,0,0,0-.118.537V93.248a1.273,1.273,0,0,0,.6,1.1,1.328,1.328,0,0,0,1.251.091l13.475-5.936,13.268,5.936a1.168,1.168,0,0,0,.537.118,1.252,1.252,0,0,0,.713-.209,1.273,1.273,0,0,0,.6-1.1v-16.4a1.355,1.355,0,0,0-.089-.477l-.03-.059.03-.059a15.018,15.018,0,0,0,2.266-3.816ZM172.5,91.251l-11.956-5.337a1.344,1.344,0,0,0-1.073,0L147.3,91.251V79.564l.209.176a19.586,19.586,0,0,0,4.741,2.832,20.1,20.1,0,0,0,15.623,0,20.712,20.712,0,0,0,4.385-2.53l.209-.176V91.251Zm-2.654-13.206.089.118-.089-.118a16.114,16.114,0,1,1,6.412-12.851A16.126,16.126,0,0,1,169.844,78.045Zm0,0" transform="translate(0 0)"/>
    </g>
  </g>
</svg>
