<svg xmlns="http://www.w3.org/2000/svg" xmlns:xlink="http://www.w3.org/1999/xlink" viewBox="0 0 48 48">
  <defs>
    <clipPath id="clip-social">
      <rect width="48" height="48"/>
    </clipPath>
  </defs>
  <g id="social" class="cls-1">
    <path id="social-2" data-name="social" d="M43.8,15.71c-1.865-.491-6.272-.487-12.726-.656a21.9,21.9,0,0,0,.371-4.927C31.443,4.746,27.523,0,24.048,0a4.532,4.532,0,0,0-4.5,4.466c-.029,3.021-.962,8.241-6,10.886-.371.2-1.419.718-1.576.784l.082.066A4.783,4.783,0,0,0,9.044,15H4.554a4.5,4.5,0,0,0-4.5,4.5v24a4.5,4.5,0,0,0,4.5,4.5h4.49a4.451,4.451,0,0,0,4.011-2.588l.074.017c.091.025.206.054.355.095a.433.433,0,0,1,.065.016c.867.214,2.534.611,6.083,1.432A45.167,45.167,0,0,0,28.6,48h8.2a5.661,5.661,0,0,0,5.377-2.889,11.394,11.394,0,0,0,.64-1.617,5.039,5.039,0,0,0,.038-2.637,6.75,6.75,0,0,0,2.468-3.871,5.928,5.928,0,0,0,0-4.089,7.08,7.08,0,0,0,2.014-4.148,5.672,5.672,0,0,0-.595-3.562,5.2,5.2,0,0,0,1.28-3.264l.021-.313c.008-.2.02-.322.02-.751A5.56,5.56,0,0,0,43.8,15.71ZM10.55,43.507A1.5,1.5,0,0,1,9.044,45H4.554a1.5,1.5,0,0,1-1.506-1.5v-24A1.5,1.5,0,0,1,4.554,18h4.49a1.5,1.5,0,0,1,1.506,1.5v24Zm34.478-21.7c-.033.739-.342,2.2-2.971,2.2h-3a.751.751,0,0,0,0,1.5h2.909a2.272,2.272,0,0,1,2.394,2.765c-.182,1.118-.7,3.235-3.244,3.235H37.559a.751.751,0,1,0,0,1.5H40.5c2.534,0,2.315,1.927,1.948,3.078-.479,1.519-.767,2.921-3.962,2.921H36.049a.749.749,0,1,0,0,1.5H38.4a1.585,1.585,0,0,1,1.539,2.109,7.067,7.067,0,0,1-.421,1.085c-.45.814-1.18,1.3-2.728,1.3H28.6a42.176,42.176,0,0,1-8.311-.957c-6.231-1.435-6.561-1.547-6.957-1.655,0,0-1.263-.219-1.263-1.324l-.009-20.72a1.616,1.616,0,0,1,1.2-1.563c.075-.038.206-.075.3-.112,6.85-2.835,8.938-9.062,9-14.171A1.5,1.5,0,0,1,24.048,3c1.593,0,4.4,3.185,4.4,7.126,0,3.557-.149,4.172-1.4,7.877,15,0,14.9.215,16.226.562a2.294,2.294,0,0,1,1.775,2.3c0,.511-.009.437-.026.944ZM6.8,39.009a2.249,2.249,0,1,0,2.241,2.25A2.242,2.242,0,0,0,6.8,39.009Zm0,3a.751.751,0,1,1,.747-.751.755.755,0,0,1-.747.751Zm0,0" transform="translate(-0.056)"/>
  </g>
</svg>
