<svg xmlns="http://www.w3.org/2000/svg" xmlns:xlink="http://www.w3.org/1999/xlink" viewBox="0 0 48 48">
  <defs>
    <style>
      .cls-1 {
        clip-path: url(#clip-Member_Anniversary_1);
      }

      .cls-2 {
        fill: #fff;
        stroke: #fff;
      }
    </style>
    <clipPath id="clip-Member_Anniversary_1">
      <rect width="48" height="48"/>
    </clipPath>
  </defs>
  <g id="Member_Anniversary_1" data-name="Member Anniversary – 1" class="cls-1">
    <g id="Member_Anniversary" data-name="Member Anniversary" transform="translate(-91.04 -127.1)">
      <path id="路径_19" data-name="路径 19" class="cls-2" d="M162.008,183.3a4.83,4.83,0,0,0-3.351,2.5,6.223,6.223,0,0,0-.217,5.261.868.868,0,0,0,.808.566.973.973,0,0,0,.312-.057.893.893,0,0,0,.491-1.148,4.418,4.418,0,0,1,.112-3.742,3.166,3.166,0,0,1,2.141-1.617.879.879,0,0,0,.7-1.023A.862.862,0,0,0,162.008,183.3Zm-12.071,9.889a3.246,3.246,0,0,0-2.258,1.674,4.094,4.094,0,0,0-.15,3.468.868.868,0,0,0,.808.566.973.973,0,0,0,.312-.057.893.893,0,0,0,.491-1.148,2.3,2.3,0,0,1,.045-1.954,1.55,1.55,0,0,1,1.048-.8.887.887,0,0,0-.3-1.748Zm37.445,1.68a3.235,3.235,0,0,0-2.258-1.674.857.857,0,0,0-1,.72.874.874,0,0,0,.7,1.023,1.55,1.55,0,0,1,1.048.8,2.325,2.325,0,0,1,.045,1.954.893.893,0,0,0,.491,1.148.771.771,0,0,0,.312.057.873.873,0,0,0,.808-.566A4.083,4.083,0,0,0,187.382,194.866Zm0,0" transform="translate(-52.497 -51.09)"/>
      <path id="路径_20" data-name="路径 20" class="cls-2" d="M138.464,143.94a6.172,6.172,0,0,0-4.76-5.219,5.475,5.475,0,0,0-5.325,2.014,6.343,6.343,0,0,0-1.18-1.091,9.272,9.272,0,0,0,.112-4.805,7.35,7.35,0,0,0-6.947-5.739,6.886,6.886,0,0,0-5.437,2.808,6.87,6.87,0,0,0-5.437-2.808,7.351,7.351,0,0,0-6.947,5.734,9.265,9.265,0,0,0,.151,4.956,6.591,6.591,0,0,0-.99.951,5.479,5.479,0,0,0-5.325-2.014,6.179,6.179,0,0,0-4.76,5.219c-.313,2.053-.05,7.272,8.665,12.384L98.81,157.8a.867.867,0,0,0,.615,1.482.877.877,0,0,0,.615-.252l.761-.761c.045,3.4.565,10.292,3.988,13.514a.877.877,0,0,0,.593.235.852.852,0,0,0,.632-.274.868.868,0,0,0-.039-1.231c-2.942-2.774-3.4-9.174-3.435-12.306l.822.822a.87.87,0,1,0,1.231-1.231l-1.471-1.471a20.23,20.23,0,0,0,7.5-6.908c.889.621,1.852,1.231,2.875,1.824l-1.421,1.421A.87.87,0,0,0,113.3,153.9l.794-.794v18.051a.867.867,0,1,0,1.734,0V153.091l.794.794a.87.87,0,0,0,1.231-1.231l-1.449-1.449c1.074-.621,2.075-1.259,2.993-1.919,1.393,2.517,3.977,4.922,7.557,7.026l-1.471,1.471a.87.87,0,1,0,1.231,1.231l.822-.822c-.045,3.144-.5,9.532-3.435,12.306a.873.873,0,0,0-.039,1.231.866.866,0,0,0,1.225.039c3.418-3.228,3.944-10.125,3.988-13.514l.761.761a.868.868,0,0,0,.615.252.877.877,0,0,0,.615-.252.868.868,0,0,0,0-1.231l-1.471-1.471C138.52,151.206,138.777,145.993,138.464,143.94Zm-34.245-8.681a5.688,5.688,0,0,1,5.264-4.43,5.566,5.566,0,0,1,4.693,3.043.876.876,0,0,0,.738.42.857.857,0,0,0,.738-.42,5.579,5.579,0,0,1,4.7-3.043,5.688,5.688,0,0,1,5.264,4.43c.47,1.824,1.046,8.228-10.706,14.79-11.736-6.561-11.16-12.966-10.69-14.79ZM101.7,155.133a20.162,20.162,0,0,1-6.947-5.845,7.189,7.189,0,0,1-1.421-5.085,4.444,4.444,0,0,1,3.384-3.781c1.639-.324,3.183.492,4.246,2.243a.86.86,0,0,0,1.477,0,6.071,6.071,0,0,1,.906-1.164,13.739,13.739,0,0,0,.817,1.488,21.536,21.536,0,0,0,5.04,5.381c-1.281,2.389-3.854,4.71-7.5,6.763Zm26.677,0c-3.714-2.092-6.315-4.458-7.579-6.9a21.17,21.17,0,0,0,4.872-5.247,14.536,14.536,0,0,0,.889-1.645,5.933,5.933,0,0,1,1.074,1.315.876.876,0,0,0,.738.42.85.85,0,0,0,.738-.42c1.063-1.751,2.607-2.568,4.246-2.243a4.451,4.451,0,0,1,3.384,3.781,7.155,7.155,0,0,1-1.426,5.085A19.955,19.955,0,0,1,128.372,155.133Zm0,0" transform="translate(0)"/>
    </g>
  </g>
</svg>
