<svg xmlns="http://www.w3.org/2000/svg" xmlns:xlink="http://www.w3.org/1999/xlink" viewBox="0 0 48 48" width="223.828125" height="200">
  <defs>
    <clipPath id="clip-personal_details">
      <rect width="48" height="48"/>
    </clipPath>
  </defs>
  <g id="personal_details" data-name="personal details" class="cls-1">
    <g id="personal_details-2" data-name="personal details" transform="translate(-65.991 -110.778)">
      <path id="路径_7" data-name="路径 7" d="M108.006,113.778H71.976a6.029,6.029,0,0,0-5.985,6.1v29.566a5.955,5.955,0,0,0,5.985,6.1h36.03a6.029,6.029,0,0,0,5.985-6.1V119.883A6.029,6.029,0,0,0,108.006,113.778Zm3.591,35.671a3.628,3.628,0,0,1-3.591,3.711H71.976a3.556,3.556,0,0,1-3.591-3.711V119.883a3.628,3.628,0,0,1,3.591-3.711h36.03a3.556,3.556,0,0,1,3.591,3.711v29.566Z"/>
      <path id="路径_8" data-name="路径 8" d="M209.093,272.7h-9.576a1.2,1.2,0,1,0,0,2.394h9.576a1.2,1.2,0,1,0,0-2.394Zm-17.955,8.978h-.12l.12-.12a7.2,7.2,0,0,0,2.753-5.746,7.285,7.285,0,0,0-7.062-7.3,7.328,7.328,0,0,0-4.309,13.047l.12.12h-.12a12.577,12.577,0,0,0-7.3,8.738h2.394a9.705,9.705,0,0,1,9.337-7.3,9.811,9.811,0,0,1,9.337,7.3h2.394a13.5,13.5,0,0,0-7.541-8.738Zm-4.429-.838a5.035,5.035,0,0,1-4.908-5.027,4.956,4.956,0,0,1,4.908-5.027,5.029,5.029,0,0,1,0,10.055Zm22.384,6.583H204.3a1.2,1.2,0,1,0,0,2.394h4.788a1.2,1.2,0,1,0,0-2.394Zm0-7.3h-7.182a1.2,1.2,0,1,0,0,2.394h7.182a1.2,1.2,0,1,0,0-2.394Z" transform="translate(-103.481 -146.598)"/>
    </g>
  </g>
</svg>
