<?xml version="1.0" standalone="no"?><!DOCTYPE svg PUBLIC "-//W3C//DTD SVG 1.1//EN" "http://www.w3.org/Graphics/SVG/1.1/DTD/svg11.dtd"><svg class="icon" width="200px" height="199.42px" viewBox="0 0 1027 1024" version="1.1" xmlns="http://www.w3.org/2000/svg"><path fill="#bfcbd9" d="M512.006067 1024C230.49404 1024 0.006067 793.512027 0.006067 512S230.49404 0 512.006067 0 1024.006067 230.487973 1024.006067 512 793.518095 1024 512.006067 1024z m0-971.216495C258.645242 52.783505 52.789572 258.639175 52.789572 512S258.645242 971.216495 512.006067 971.216495 971.222562 765.360825 971.222562 512 765.366892 52.783505 512.006067 52.783505zM513.765517 202.33677c91.491409 0 165.388316 73.896907 165.388316 165.388316 0 43.986254-17.594502 86.213058-47.505154 116.123711-7.037801 7.037801-15.835052 14.075601-24.632303 19.353952 100.28866 38.707904 168.907216 135.477663 168.907217 242.804124 0 12.316151-10.556701 22.872852-22.872852 22.872852-14.075601 0-24.632302-8.797251-28.151203-22.872852 0-56.302405-22.872852-110.845361-63.340206-151.312715-38.707904-38.707904-91.491409-61.580756-146.034365-59.821306-54.542955 0-107.32646 21.113402-146.034364 61.580756-40.467354 38.707904-63.340206 93.250859-63.340206 149.553265-3.5189 14.075601-15.835052 22.872852-29.910653 22.872852-12.316151 0-22.872852-10.556701-22.872852-22.872852 0-68.618557 28.151203-135.477663 75.656357-182.982818 26.391753-26.391753 58.061856-45.745704 91.491409-59.821306-8.797251-5.278351-17.594502-12.316151-24.632302-19.353952-65.099656-65.099656-65.099656-168.907216 0-232.247422 31.670103-31.670103 73.896907-49.264605 117.883161-49.264605z m82.694158 80.934708c-45.745704-45.745704-121.402062-45.745704-167.147766 0-45.745704 45.745704-45.745704 121.402062 0 167.147766 22.872852 22.872852 52.783505 35.189003 84.453608 35.189003 65.099656 0 117.883162-52.783505 117.883162-119.642611 0-29.910653-12.316151-59.821306-35.189004-82.694158z" /></svg>