<svg xmlns="http://www.w3.org/2000/svg" xmlns:xlink="http://www.w3.org/1999/xlink" viewBox="0 0 48 48">
  <defs>
    <clipPath id="clip-multiple_points">
      <rect width="48" height="48"/>
    </clipPath>
  </defs>
  <g id="multiple_points" data-name="multiple points" class="cls-1">
    <path id="points" d="M172.192,83.152a6.354,6.354,0,0,0-2.728-4.965c.028-.108.07-.206.094-.314h.1V71.348h-.009a.223.223,0,0,0,.009-.075c0-6.047-9.8-9.273-19.024-9.273s-19.024,3.207-19.024,9.254a.255.255,0,0,0,.009.094h-.009v6.521h.1a6.748,6.748,0,0,0,2.63,3.943,5.256,5.256,0,0,0-.192,1.336,1.426,1.426,0,0,0,.009.15h-.009v6.521h.1c.019.108.061.211.089.319a6.362,6.362,0,0,0-2.724,4.965c0,.052,0,.1.009.15h-.009v6.526h.1C132.738,107.52,141.94,110,150.632,110s17.894-2.475,18.925-8.223h.1V95.256h-.009c0-.052.009-.1.009-.15a5.311,5.311,0,0,0-.159-1.228,6.75,6.75,0,0,0,2.6-4.05h.1V83.3h-.009c0-.052.009-.1.009-.15h0ZM150.627,64.213c10.215,0,17.331,3.764,17.331,7.14s-7.116,7.135-17.331,7.135S133.3,74.728,133.3,71.352s7.116-7.14,17.331-7.14ZM167.963,75.37v1.566a4.047,4.047,0,0,1-.844,2.424V76.172a9.844,9.844,0,0,0,.844-.8h0Zm-2.536,1.978v3.572c-.263.178-.544.347-.844.511V77.8c.286-.145.572-.3.844-.455h0Zm-2.536,1.219v3.652c-.525.206-1.092.394-1.692.567V79.158c.581-.183,1.149-.38,1.692-.591h0Zm-3.385,1.055v3.591a35.3,35.3,0,0,1-4.229.638V80.381a35.152,35.152,0,0,0,4.229-.759Zm-5.916.919v3.436c-.956.056-1.936.089-2.958.089-.145,0-.281,0-.422-.009V80.649c.141,0,.281,0,.422,0,.98,0,1.974-.033,2.958-.112h0Zm-5.072.056v3.427c-1.177-.047-2.311-.131-3.385-.258v-3.5c1.111.155,2.245.267,3.385.328Zm-5.077-.6v3.544c-.586-.094-1.149-.2-1.692-.319V79.627c.558.131,1.12.253,1.692.366h0Zm-3.38-.839v3.629c-.6-.173-1.163-.361-1.692-.567V78.563c.544.216,1.111.413,1.692.591h0Zm-4.229,1.767V77.348c.272.159.553.309.844.459v3.628c-.3-.169-.581-.338-.844-.516h0Zm-1.692-1.561a4.037,4.037,0,0,1-.844-2.424V75.37a8.583,8.583,0,0,0,.844.8v3.188Zm1.692,7.815a9.848,9.848,0,0,0,.844.8v3.183a4.013,4.013,0,0,1-.844-2.419V87.174Zm-1.692,15.944a4.023,4.023,0,0,1-.844-2.419v-1.57a8.582,8.582,0,0,0,.844.8Zm2.536,2.081c-.3-.164-.581-.333-.844-.511v-3.577c.272.155.553.314.844.459V105.2Zm3.385,1.345c-.6-.173-1.163-.361-1.692-.563V102.33c.544.216,1.106.408,1.692.591v3.624Zm3.38.75c-.586-.094-1.149-.2-1.692-.319v-3.591c.553.136,1.116.258,1.692.37v3.539Zm5.077.492c-1.177-.047-2.311-.131-3.385-.253v-3.5c1.111.159,2.245.267,3.385.328v3.422Zm5.072-.047c-.956.056-1.936.094-2.958.094-.145,0-.281-.009-.422-.009v-3.408c.141,0,.281,0,.422,0,.984,0,1.974-.042,2.958-.117v3.436Zm5.916-.764a36.271,36.271,0,0,1-4.229.638v-3.469a36.276,36.276,0,0,0,4.229-.759Zm3.385-.994c-.525.2-1.092.389-1.692.563v-3.629c.581-.183,1.149-.375,1.692-.591v3.657Zm2.536-1.3c-.263.178-.544.347-.844.511v-3.628c.291-.145.572-.3.844-.459v3.577Zm2.536-3.989a4.013,4.013,0,0,1-.844,2.419V99.93a9.2,9.2,0,0,0,.844-.8v1.566Zm0-5.588c0,3.375-7.116,7.135-17.331,7.135S133.3,98.482,133.3,95.106a4.233,4.233,0,0,1,1.861-3.052c2.719,4.154,10.543,5.991,18.006,5.991,5.438,0,11.073-.97,14.786-3.1,0,.056.009.112.009.164Zm-29.595-2.377V89.153c.272.155.553.314.844.455v3.629a9.825,9.825,0,0,1-.844-.506h0Zm2.536,1.294V90.367c.544.216,1.106.413,1.692.591v3.628c-.6-.169-1.163-.356-1.692-.563Zm3.385.994V91.426c.553.136,1.116.258,1.692.366v3.544c-.591-.089-1.149-.2-1.692-.319Zm3.38.558v-3.5c1.111.159,2.245.267,3.385.328v3.427q-1.772-.07-3.385-.253Zm5.072.291V92.458c.141,0,.281,0,.422,0,.985,0,1.974-.037,2.958-.117v3.436c-.956.052-1.936.089-2.958.089-.141,0-.277,0-.422,0h0Zm5.077-.211V92.186a34.411,34.411,0,0,0,4.229-.759v3.591a35.443,35.443,0,0,1-4.229.638Zm5.916-1.064V90.962c.581-.178,1.149-.375,1.692-.591v3.657c-.53.2-1.092.389-1.692.563h0Zm4.229-1.861c-.263.178-.544.347-.844.511V89.612c.291-.145.572-.3.844-.455v3.572ZM170.5,88.74a4.013,4.013,0,0,1-.844,2.419V87.976a7.644,7.644,0,0,0,.844-.8V88.74Zm-17.331,1.547c-10.215,0-17.331-3.76-17.331-7.135a2.024,2.024,0,0,1,.028-.291c3.713,2.142,9.338,3.23,14.767,3.23,7.426,0,15.208-2.039,17.964-6.024a4.265,4.265,0,0,1,1.9,3.085c0,3.375-7.116,7.135-17.331,7.135h0Z" transform="translate(-127.608 -62)"/>
  </g>
</svg>
