<svg xmlns="http://www.w3.org/2000/svg" xmlns:xlink="http://www.w3.org/1999/xlink" viewBox="0 0 48 48">
  <defs>
    <style>

      .cls-2 {
        stroke: #fff;
      }
    </style>
    <clipPath id="clip-campaign">
      <rect width="48" height="48"/>
    </clipPath>
  </defs>
  <g id="campaign" class="cls-1">
    <g id="campaign1" transform="translate(0 1.476)">
      <path id="路径_11" data-name="路径 11" class="cls-2" d="M110.567,718.3l1.579-.5a5.525,5.525,0,0,0,4.363,4.364,5.018,5.018,0,0,0,5.427-2.181l1.3,1.073a6.613,6.613,0,0,1-7.04,2.814c-2.837-.582-4.742-2.474-5.627-5.569Z" transform="translate(-106.259 -686.442)"/>
      <path id="路径_12" data-name="路径 12" class="cls-2" d="M1015.96,466.045h8.246v2.609h-8.246Z" transform="translate(-976.372 -444.499)"/>
      <path id="路径_13" data-name="路径 13" class="cls-2" d="M1015.09,160.562l7.142-4.123,1.3,2.259-7.142,4.123Z" transform="translate(-975.536 -146.957)"/>
      <path id="路径_14" data-name="路径 14" class="cls-2" d="M1015.1,649.716l7.142,4.123,1.3-2.259-7.142-4.123Z" transform="translate(-975.546 -618.842)"/>
      <path id="路径_15" data-name="路径 15" class="cls-2" d="M255.925,16.558v13.8l18.818,9.914a1.946,1.946,0,0,0,2.853-1.722V7.416a1.946,1.946,0,0,0-2.919-1.686L255.924,16.558Zm-1.946-1.124L273.7,4.045a3.892,3.892,0,0,1,5.838,3.371V38.549a3.892,3.892,0,0,1-5.7,3.445L253.978,31.532v-16.1Z" transform="translate(-244.08)"/>
      <path id="路径_16" data-name="路径 16" class="cls-2" d="M9.6,302.938v-13.5H3.892a1.946,1.946,0,0,0-1.946,1.946v9.606a1.946,1.946,0,0,0,1.946,1.946H9.6ZM3.892,287.494h7.652v17.39H3.892A3.892,3.892,0,0,1,0,300.992v-9.606a3.892,3.892,0,0,1,3.892-3.892Z" transform="translate(0 -272.904)"/>
    </g>
  </g>
</svg>
