<svg xmlns="http://www.w3.org/2000/svg" xmlns:xlink="http://www.w3.org/1999/xlink" viewBox="0 0 48 48">
  <defs>
    <clipPath id="clip-GWP">
      <rect width="48" height="48"/>
    </clipPath>
  </defs>
  <g id="GWP" class="cls-1">
    <path id="GWP-2" data-name="GWP" d="M46.738,61.305H39.157A6.313,6.313,0,0,0,34.106,51.2c-3.512,0-6.457,2.781-7.9,4.441A18.521,18.521,0,0,0,24,58.761a18.623,18.623,0,0,0-2.205-3.12c-1.443-1.657-4.388-4.441-7.9-4.441a6.313,6.313,0,0,0-5.05,10.105H1.264A1.264,1.264,0,0,0,0,62.568v7.579a1.264,1.264,0,0,0,1.263,1.263H2.528v24A3.794,3.794,0,0,0,6.317,99.2H41.685a3.794,3.794,0,0,0,3.789-3.789v-24h1.263A1.264,1.264,0,0,0,48,70.147V62.568a1.264,1.264,0,0,0-1.263-1.263ZM28.111,57.3c1.976-2.271,4.161-3.572,5.995-3.572a3.789,3.789,0,1,1,0,7.579H25.573A14.7,14.7,0,0,1,28.111,57.3Zm-.321,39.375H20.212V63.832h7.579ZM10.106,57.516A3.794,3.794,0,0,1,13.9,53.726c1.834,0,4.019,1.3,5.995,3.572a14.7,14.7,0,0,1,2.539,4.007H13.9a3.794,3.794,0,0,1-3.789-3.789ZM2.527,63.832H17.685v5.053H2.527V63.832ZM5.054,95.411v-24H17.685V96.674H6.317a1.264,1.264,0,0,1-1.263-1.263Zm37.895,0a1.264,1.264,0,0,1-1.263,1.263H30.317V71.411H42.949Zm2.526-26.526H30.317V63.832H45.475Z" transform="translate(-0.001 -51.2)"/>
  </g>
</svg>
