<svg xmlns="http://www.w3.org/2000/svg" xmlns:xlink="http://www.w3.org/1999/xlink" viewBox="0 0 48 48">
  <defs>
    <clipPath id="clip-coupon">
      <rect width="48" height="48"/>
    </clipPath>
  </defs>
  <g id="coupon" class="cls-1">
    <g id="coupon-2" data-name="coupon" transform="translate(-50.789 -39.84)">
      <path id="路径_4" data-name="路径 4" d="M57.678,55.789a9.6,9.6,0,0,1,.183-.951,5.123,5.123,0,0,1,4.1-3.81c2.514-.534,5.031-1.055,7.547-1.584q4.6-.964,9.191-1.932l8.083-1.7,7.75-1.626c.585-.121,1.169-.232,1.754-.348h.792c.271.049.548.082.812.156a5.062,5.062,0,0,1,3.849,3.973c.57,2.453,1.079,4.922,1.614,7.383a1.2,1.2,0,1,1-2.328.526q-.708-3.235-1.411-6.473c-.071-.324-.137-.645-.213-.966a2.8,2.8,0,0,0-3.343-2.113q-4.78,1.016-9.56,2.011-4.226.889-8.455,1.776-4.762,1-9.526,2c-2.079.437-4.16.867-6.239,1.309A2.823,2.823,0,0,0,60.136,56.8a1.194,1.194,0,1,1-2.338.479c-.046-.23-.081-.462-.122-.692,0-.262,0-.529,0-.8Z" transform="translate(-6.588)"/>
      <path id="路径_5" data-name="路径 5" d="M94.282,296.51H55.274a4.511,4.511,0,0,0-4.485,4.515v5.71a2.693,2.693,0,0,0,2.7,2.687c1.926.163,2.444-.144,2.444,1.782s-.519,1.619-2.444,1.782a2.692,2.692,0,0,0-2.7,2.687v5.71a4.511,4.511,0,0,0,4.512,4.5H82.1a1.343,1.343,0,1,0,0-2.687H68.02v-4.247a1.348,1.348,0,0,0-2.7,0v4.267H55.3a1.81,1.81,0,0,1-1.813-1.829v-5.717c3.467-.112,5.258-1.031,5.258-4.486s-1.791-4.374-5.258-4.486v-5.668a1.811,1.811,0,0,1,1.813-1.807h10.02v5.434a1.348,1.348,0,0,0,2.7,0V299.2H94.279a1.81,1.81,0,0,1,1.813,1.829v20.36a1.811,1.811,0,0,1-1.813,1.807H91.737a1.343,1.343,0,1,0,0,2.687h2.535a4.508,4.508,0,0,0,4.517-4.5V301.025a4.511,4.511,0,0,0-4.507-4.515Z" transform="translate(0 -241.705)"/>
      <path id="路径_6" data-name="路径 6" d="M390.273,551.34a1.362,1.362,0,0,0-1.361,1.361v5.159a1.361,1.361,0,1,0,2.723,0V552.7A1.359,1.359,0,0,0,390.273,551.34Z" transform="translate(-323.6 -485.74)"/>
    </g>
  </g>
</svg>
