<?xml version="1.0" standalone="no"?><!DOCTYPE svg PUBLIC "-//W3C//DTD SVG 1.1//EN" "http://www.w3.org/Graphics/SVG/1.1/DTD/svg11.dtd"><svg class="icon" width="200px" height="166.78px" viewBox="0 0 1228 1024" version="1.1" xmlns="http://www.w3.org/2000/svg"><path fill="#bfcbd9" d="M326.652491 506.874555C157.558307 506.874555 20.47978 643.953083 20.47978 813.047266V921.5901c0 16.965818 13.753852 30.71967 30.71967 30.71967s30.71967-13.753852 30.71967-30.71967V813.047266c0-135.162548 109.570823-244.733371 244.733371-244.733371 43.646531 0 85.555081 11.413877 122.459685 32.789648 14.681842 8.502909 33.47664 3.493962 41.979549-11.18688 8.503909-14.680842 3.494962-33.47564-11.18588-41.979549-46.201504-26.759713-98.71994-41.062559-153.253354-41.062559zM295.902821 122.87868c-109.696822 0-198.623866 88.927045-198.623866 198.623866 0 109.696822 88.927045 198.623866 198.623866 198.623867 109.696822 0 198.623866-88.927045 198.623867-198.623867 0-109.696822-88.927045-198.623866-198.623867-198.623866z m0 335.808393c-75.765186 0-137.184526-61.41934-137.184526-137.184527S220.137635 184.31802 295.902821 184.31802s137.184526 61.41934 137.184527 137.184526-61.41934 137.184526-137.184527 137.184527zM479.015854 848.004891v145.058441c0 17.079817-13.844851 30.925668-30.924667 30.925668s-30.925668-13.845851-30.925668-30.925668v-145.058441c0-164.262235 106.365857-304.536729 256.068249-360.834124a31.061666 31.061666 0 0 1 5.701939-2.694971c44.059527-15.601832 90.847024-23.680746 138.740509-23.680746 49.460469 0 96.246966 8.079913 140.307493 23.680746a31.061666 31.061666 0 0 1 5.700939 2.694971c149.703392 56.296395 256.068249 196.571888 256.068249 360.834124v145.058441c0 17.079817-13.844851 30.925668-30.924668 30.925668s-30.925668-13.845851-30.925667-30.925668v-145.058441c0-178.968077-151.785369-324.953509-339.442354-325.358505-187.657984 0.404996-339.444354 146.389427-339.444354 325.358505zM635.604172 255.99725c0 107.451846 87.107064 194.55791 194.55791 194.55791 107.451846 0 194.55791-87.106064 194.55791-194.55791S937.613928 61.43934 830.162082 61.43934c-107.450846 0-194.55791 87.106064-194.55791 194.55791z m450.55516 0c0 141.383481-114.613769 255.99725-255.99725 255.99725-141.382481 0-255.99725-114.613769-255.99725-255.99725s114.614769-255.99725 255.99725-255.99725c141.383481 0 255.99725 114.613769 255.99725 255.99725z" /></svg>