<?xml version="1.0" encoding="UTF-8"?>
<svg width="46px" height="50px" viewBox="0 0 46 50" version="1.1" xmlns="http://www.w3.org/2000/svg" xmlns:xlink="http://www.w3.org/1999/xlink">
    <!-- Generator: Sketch 56.3 (81716) - https://sketch.com -->
    <title></title>
    <desc>Created with Sketch.</desc>
    <g id="Page-1" stroke="none" stroke-width="1" fill="none" fill-rule="evenodd">
        <g id="PC" transform="translate(-762.000000, -268.000000)" fill="#FFFFFF" fill-rule="nonzero">
            <g id="membership-notification" transform="translate(735.000000, 243.000000)">
                <g id="tongzhi-copy" transform="translate(27.000000, 25.000000)">
                    <path d="M22.8193991,49.5519367 C25.8622861,49.5519367 28.3290333,47.0851894 28.3290333,44.0423024 L17.3097649,44.0423024 C17.3097649,47.0851894 19.7765121,49.5519367 22.8193991,49.5519367 L22.8193991,49.5519367 Z M42.0081472,31.6298213 C37.6701005,28.8116652 37.2584338,26.3418122 37.2584338,16.1141954 C37.5106477,12.94999 36.4716498,9.8183903 34.3780272,7.43248343 C32.2844045,5.04657657 29.3143688,3.60945387 26.1442181,3.44835826 L26.1442181,3.19505133 C26.1457933,2.32126607 25.7862262,1.48566837 25.1506346,0.886063198 C24.5150429,0.286458032 23.6599288,-0.0238514564 22.7877173,0.0285920508 C21.0389493,0.0286191362 19.6213071,1.44628331 19.6213071,3.19505133 L19.6213071,3.44835826 C16.4567712,3.61767585 13.4948749,5.0583457 11.4080302,7.44330584 C9.32118545,9.82826597 8.28643011,12.9551879 8.53867512,16.1141954 C8.53867512,26.3418122 8.12705748,28.7800325 3.78901072,31.6298213 C1.01957903,33.3661376 -0.410825326,36.6159135 0.179252051,39.8309337 C0.596691433,41.3743265 1.80231849,42.5799536 3.34571133,42.9973929 L42.4514466,42.9973929 C43.9948395,42.5799536 45.2004665,41.3743265 45.6179059,39.8309337 C46.214282,36.6227749 44.7972031,33.3747668 42.039829,31.6298213 L42.0081472,31.6298213 Z M43.1797347,39.419316 C43.1446823,39.7502893 43.0247033,40.0665899 42.8314315,40.3375475 L2.87073018,40.3375475 C2.67615274,40.0672717 2.55603834,39.7505972 2.52242701,39.419267 C2.24709631,37.2597881 3.24715697,35.136232 5.08727619,33.9729963 C10.6602249,30.3632376 10.9452136,26.500172 10.9452136,16.2408243 C10.7139014,13.582114 11.6116399,10.9487313 13.4187924,8.98494779 C15.225945,7.0211643 17.7758076,5.90813264 20.4445424,5.91816217 L22.091062,5.72816971 C22.2116028,5.67274242 22.3034676,5.56942572 22.3444179,5.44323006 C22.3972896,5.3220859 22.3972896,5.1843893 22.3444179,5.06324514 L22.0594293,3.32172932 C22.052367,3.25857898 22.052367,3.19483815 22.0594293,3.13168781 C22.0581508,2.70063827 22.389577,2.34157718 22.8193501,2.3084035 C23.7376306,2.3084035 23.6426344,2.68838842 23.6426344,3.13168781 C23.6538991,3.19451771 23.6538991,3.25885037 23.6426344,3.32168027 L23.2310167,5.09492689 C23.1781594,5.21605698 23.1781594,5.35373269 23.2310167,5.47486277 C23.3066135,5.57830427 23.4207929,5.64681899 23.5476381,5.66485523 L25.5108282,5.88652945 C28.1795792,5.87645972 30.7294727,6.98946672 32.5366562,8.95324404 C34.3438396,10.9170214 35.2416041,13.5504147 35.0103041,16.2091426 C35.0103041,26.4684412 35.2952928,30.3315558 40.8999233,33.9729963 C42.7400425,35.136232 43.7401031,37.2597881 43.4647724,39.419267 L43.1797347,39.419316 Z" id="Shape"></path>
                </g>
            </g>
        </g>
    </g>
</svg>
