<?xml version="1.0" standalone="no"?><!DOCTYPE svg PUBLIC "-//W3C//DTD SVG 1.1//EN" "http://www.w3.org/Graphics/SVG/1.1/DTD/svg11.dtd"><svg class="icon" width="32px" height="32.00px" viewBox="0 0 1024 1024" version="1.1" xmlns="http://www.w3.org/2000/svg"><path d="M951.59 481.782c0-2.837-0.593-5.313-1.594-7.467a15.2 15.2 0 0 0-0.902-3.424c-16.1-89.825-182.159-96.33-248.245-97.073-65.935-0.743-232.167 8.092-248.246 97.108-2.29 2.774-3.712 6.386-3.712 10.857v369.17c0 4.569 3.365 7.768 8.077 9.678 0.673 1.68 1.528 3.341 2.8 4.934 55.756 69.752 163.71 89.536 246.778 90.713 81.58 1.155 189.662-22.432 240.076-94.29 1.175-1.676 1.89-3.332 2.408-4.966 1.561-1.669 2.56-3.661 2.56-6.068V481.782z m-463.426 53.304c9.047 6.047 18.47 11.013 26.621 14.863 56.898 26.88 124.047 32.693 186.064 33.392 49.316 0.555 154.715-4.27 211.47-43.964v120.862c-48.542 53.639-140.074 64.775-206.337 65.659-70.32 0.938-165.205-14.668-217.817-68.418V535.086z m68.154-106.072c46.264-15.532 96.074-19.305 144.53-19.85a500.826 500.826 0 0 1 134.213 16.763c22.49 5.979 71.957 20.298 78.91 48.22-1.047 2.189-1.654 4.73-1.654 7.636v6.052c-10.077 22.224-47.928 33.927-66.938 40.309-46.264 15.531-96.074 19.304-144.53 19.85a500.872 500.872 0 0 1-134.214-16.762c-22.026-5.856-69.972-19.7-78.472-46.499v-2.95c0-2.281-0.46-4.273-1.125-6.111 1.777-25.216 52.053-40.874 69.28-46.658z m150.228 491.917c-72.075 1.028-168.06-17.918-218.382-76.517V704.039c60.69 43.847 147.713 56.27 217.817 57.205 63.886 0.85 149.56-11.622 206.336-53.362v141.004c-42.149 53.234-138.452 71.084-205.771 72.045z"  /><path d="M395.958 830.26c-96.193 0.73-224.307-20.83-290.08-100.895a19.066 19.066 0 0 0-2.594-2.585V501.06c72.742 64.258 203.33 84.905 289.967 78.769 22.602-1.6 22.758-36.958 0-35.346-87.933 6.227-227.755-15.904-287.374-91.95a18.985 18.985 0 0 0-2.593-2.705v-188.36c16.72 14.333 37.175 25.36 53.96 33.039 69.42 31.75 149.663 39.782 225.095 40.498 74.788 0.711 156.465-9.11 225.095-40.498 18.748-8.575 38.012-19.303 53.533-33.187v63.369c0 23.564 31.418 23.564 31.418 0V205.334c0.329-1.535 0.53-3.163 0.42-4.994 0.133-2.222-0.171-4.16-0.671-5.947-5.888-44.367-46.429-70.717-84.701-88.222-69.42-31.751-149.663-39.78-225.095-40.498-74.788-0.711-156.466 9.108-225.095 40.498-37.939 17.352-78.136 43.383-84.569 87.055-0.475 1.757-0.81 3.64-0.81 5.788v534.118c0 6.083 2.112 10.564 5.218 13.506 0.6 2.632 1.773 5.253 3.8 7.72 71.452 86.977 210.163 112.045 315.075 111.248 22.785-0.173 22.802-35.52 0.001-35.347zM199.52 127.523c58.357-20.37 121.43-25.922 182.819-26.506 61.81-0.589 123.899 7.735 182.819 26.506 31.742 10.113 89.902 32.528 92.302 72.815-2.439 40.94-60.619 61.754-92.302 72.814-58.357 20.372-121.43 25.923-182.82 26.507-61.81 0.587-123.898-7.736-182.818-26.507-31.742-10.112-89.902-32.528-92.302-72.814-2.359-39.593 64.49-63.105 92.302-72.815z"  /></svg>