<svg xmlns="http://www.w3.org/2000/svg" xmlns:xlink="http://www.w3.org/1999/xlink" viewBox="0 0 48 48">
  <defs>
    <style>
      .cls-1 {
        clip-path: url(#clip-new_buyers);
      }

      .cls-2 {
        fill: #fff;
      }
    </style>
    <clipPath id="clip-new_buyers">
      <rect width="48" height="48"/>
    </clipPath>
  </defs>
  <g id="new_buyers" data-name="new buyers" class="cls-1">
    <g id="组_23" data-name="组 23">
      <g id="组_17" data-name="组 17">
        <path id="路径_49" data-name="路径 49" class="cls-2" d="M247.76,333.138a8.362,8.362,0,0,1-1.291-6.549,5.642,5.642,0,0,0-1.841-.279c-5.393,0-5.36,5.868-3.445,8.429a4.188,4.188,0,0,0,6.889,0,5.278,5.278,0,0,0,.46-.755A5.466,5.466,0,0,1,247.76,333.138Zm-6.2,11.95a7.858,7.858,0,0,1,4.563-7.14h-3.6a6.219,6.219,0,0,0-6.223,6.213v1.9a1.045,1.045,0,0,0,1.044,1.042h4.217Zm19.015-11.261a6.11,6.11,0,0,1-10.062,0c-2.8-3.734-2.844-12.328,5.031-12.328S263.38,330.093,260.576,333.827Zm5.631,18.073H244.883a1.53,1.53,0,0,1-1.529-1.527v-2.766a9.1,9.1,0,0,1,9.1-9.086h6.166a9.1,9.1,0,0,1,9.1,9.086v2.766A1.511,1.511,0,0,1,266.208,351.9Z" transform="translate(-236.3 -310.192)"/>
      </g>
      <path id="yigouwu" class="cls-2" d="M80.814,68.009H74.325l2.341-2.385a1.279,1.279,0,0,1,.894-.425,1.2,1.2,0,0,1,.9.408Zm1.328.581a1.781,1.781,0,0,1,.77.134.906.906,0,0,1,.391.335.776.776,0,0,1,.107.425,1.456,1.456,0,0,1-.063.388c-.034.109-.112.33-.231.668s-.245.709-.381,1.112l-.406,1.2q-.2.6-.328.94a2.1,2.1,0,0,1-.578,1,1.322,1.322,0,0,1-.86.282h-9.3l.248,1.625h8.951q.849,0,.85.743a1.127,1.127,0,0,1-.167.622.737.737,0,0,1-.665.262H71.19a1.027,1.027,0,0,1-.595-.163,1.337,1.337,0,0,1-.4-.425,2.635,2.635,0,0,1-.257-.568,5.367,5.367,0,0,1-.151-.578c-.012-.073-.044-.248-.1-.525L69.5,75.032l-.257-1.391-.284-1.547q-.335-1.825-.763-4.065H66.865a.717.717,0,0,1-.444-.136,1.208,1.208,0,0,1-.291-.326,1.243,1.243,0,0,1-.16-.406,2.047,2.047,0,0,1-.044-.4.8.8,0,0,1,.24-.6.882.882,0,0,1,.646-.233H68.6a1.26,1.26,0,0,1,.568.107.969.969,0,0,1,.335.272,1.03,1.03,0,0,1,.177.342l.09.309c.022.095.046.231.071.406l.07.534c.037.216.07.444.107.687H82.143ZM79.165,78.855a1.683,1.683,0,0,1,.646.126,1.576,1.576,0,0,1,.532.352,1.718,1.718,0,0,1,.355.534,1.65,1.65,0,0,1,0,1.3,1.718,1.718,0,0,1-.355.532,1.677,1.677,0,0,1-.532.361,1.6,1.6,0,0,1-.646.136,1.541,1.541,0,0,1-.638-.136A1.687,1.687,0,0,1,78,81.7a1.726,1.726,0,0,1-.355-.532,1.653,1.653,0,0,1,0-1.3A1.726,1.726,0,0,1,78,79.333a1.583,1.583,0,0,1,.522-.352,1.621,1.621,0,0,1,.638-.126m-7.373-.037a1.653,1.653,0,0,1,.636.126,1.6,1.6,0,0,1,.524.352,1.764,1.764,0,0,1,.355.534,1.684,1.684,0,0,1,0,1.3,1.757,1.757,0,0,1-.355.532,1.705,1.705,0,0,1-.524.362,1.539,1.539,0,0,1-.636.136,1.58,1.58,0,0,1-.656-.136,1.709,1.709,0,0,1-.524-.362,1.805,1.805,0,0,1-.355-.532,1.684,1.684,0,0,1,0-1.3,1.813,1.813,0,0,1,.355-.534,1.6,1.6,0,0,1,.524-.352,1.7,1.7,0,0,1,.656-.126" transform="translate(-37.925 -62.866)"/>
    </g>
  </g>
</svg>
