<?xml version="1.0" standalone="no"?><!DOCTYPE svg PUBLIC "-//W3C//DTD SVG 1.1//EN" "http://www.w3.org/Graphics/SVG/1.1/DTD/svg11.dtd"><svg t="1539251594721" class="icon" style="" viewBox="0 0 1024 1024" version="1.1" xmlns="http://www.w3.org/2000/svg" p-id="3342" id="mx_n_1539251594722" data-spm-anchor-id="a313x.7781069.0.i1" xmlns:xlink="http://www.w3.org/1999/xlink" width="200" height="200"><defs><style type="text/css"></style></defs><path d="M 512 959.419 c 248.312 0 449.61 -200.316 449.61 -447.418 s -201.298 -447.419 -449.61 -447.419 s -449.61 200.316 -449.61 447.418 s 201.296 447.419 449.61 447.419 Z M 512 120.404 c 216.273 0 391.596 175.323 391.596 391.596 s -175.323 391.596 -391.596 391.596 s -391.596 -175.323 -391.596 -391.596 s 175.323 -391.596 391.596 -391.596 Z" p-id="3343" data-spm-anchor-id="a313x.7781069.0.i2" class="selected"></path><path d="M 321.911 633.122 v 0 c 12.112 10.384 30.518 8.97 40.902 -3.144 l 148.198 -172.872 l 150.424 170.941 c 10.539 11.977 28.962 13.154 40.938 2.614 s 13.154 -28.962 2.614 -40.938 l -172.462 -195.987 c -3.853 -4.378 -8.761 -7.306 -14.019 -8.753 c -0.118 -0.033 -0.234 -0.07 -0.352 -0.1 c -0.234 -0.062 -0.472 -0.113 -0.706 -0.169 c -0.226 -0.053 -0.452 -0.112 -0.68 -0.16 c -0.145 -0.03 -0.292 -0.054 -0.438 -0.082 c -0.316 -0.062 -0.631 -0.124 -0.949 -0.175 c -0.088 -0.014 -0.177 -0.024 -0.266 -0.037 c -0.372 -0.057 -0.745 -0.111 -1.12 -0.151 c -0.081 -0.009 -0.162 -0.013 -0.243 -0.021 c -0.38 -0.039 -0.759 -0.076 -1.14 -0.1 c -0.139 -0.009 -0.279 -0.01 -0.419 -0.017 c -0.321 -0.016 -0.643 -0.033 -0.964 -0.039 c -0.248 -0.004 -0.496 0.002 -0.744 0.004 c -0.211 0.002 -0.424 -0.002 -0.635 0.006 c -0.35 0.011 -0.7 0.033 -1.049 0.055 c -0.111 0.006 -0.221 0.009 -0.332 0.018 c -0.407 0.032 -0.815 0.075 -1.22 0.123 c -0.053 0.006 -0.106 0.01 -0.16 0.016 c -0.395 0.049 -0.79 0.111 -1.183 0.176 c -0.067 0.011 -0.133 0.018 -0.2 0.03 c -0.341 0.059 -0.679 0.13 -1.018 0.202 c -0.121 0.026 -0.243 0.046 -0.363 0.073 c -0.245 0.054 -0.486 0.12 -0.73 0.181 c -0.219 0.055 -0.438 0.105 -0.656 0.165 c -0.129 0.036 -0.256 0.078 -0.384 0.115 c -0.334 0.097 -0.667 0.194 -0.998 0.304 c -0.011 0.004 -0.023 0.008 -0.035 0.012 c -4.835 1.599 -9.305 4.482 -12.843 8.609 l -169.914 198.202 c -10.383 12.113 -8.968 30.518 3.144 40.902 Z" p-id="3344"></path></svg>