<?xml version="1.0" standalone="no"?><!DOCTYPE svg PUBLIC "-//W3C//DTD SVG 1.1//EN" "http://www.w3.org/Graphics/SVG/1.1/DTD/svg11.dtd"><svg class="icon" width="64px" height="64.00px" viewBox="0 0 1024 1024" version="1.1" xmlns="http://www.w3.org/2000/svg"><path d="M864.4 416.5c-35.6-35.6-78-61.7-124.4-77V192.6c0-27.7-18.8-67-108.4-96.7-61.4-20.4-142.5-31.6-228.4-31.6s-167 11.2-228.4 31.6c-89.6 29.7-108.4 69-108.4 96.7v595.3c0 27.7 18.8 67 108.4 96.7 61.4 20.4 142.5 31.6 228.4 31.6 23.9 0 47.7-0.9 70.9-2.6 49.3 30.1 106.1 46.2 165.3 46.2 45.9 0 90.2-9.6 131.6-28.4 40-18.2 75.3-44.1 104.9-76.9 9.2-10.2 8.3-25.8-1.8-35-10.2-9.2-25.8-8.3-35 1.8-50.9 56.5-123.7 88.9-199.7 88.9-148.1 0-268.7-120.5-268.7-268.7s120.5-268.7 268.7-268.7c148.1 0 268.7 120.5 268.7 268.7 0 13.5-1 27.1-3 40.4-2 13.5 7.3 26.2 20.8 28.2s26.2-7.3 28.2-20.8c2.4-15.8 3.6-31.8 3.6-47.7-0.1-85.1-33.2-165-93.3-225.1z m-674-273.6c56.5-18.7 132.1-29.1 212.8-29.1 80.8 0 156.3 10.3 212.8 29.1 51.1 17 74.4 37.7 74.4 49.7s-23.3 32.7-74.4 49.7c-56.5 18.7-132 29-212.8 29-80.8 0-156.3-10.3-212.8-29.1-51.1-17-74.4-37.7-74.4-49.7s23.3-32.7 74.4-49.6zM116 570.7c46.2 29.8 124.6 48.4 205.5 55.6-0.2 5.1-0.4 10.1-0.4 15.2 0 32.8 5 64.9 14.5 95.4-60.8-4.5-116.1-15.2-158.1-30.6-29.3-10.8-50.9-23.7-61.6-36.4v-99.2h0.1z m209 21.2c-59.9-5.3-113.9-16.5-154-32.2-26.2-10.3-45.3-22.2-55.1-33.8v-99.3c16 10.3 36.4 19.7 61.1 27.9 50.8 16.9 115.4 27.4 185.2 30.3-18.7 33-31.3 69.2-37.2 107.1z m89.3 274.7c-3.7 0.1-7.4 0.1-11.2 0.1-80.8 0-156.3-10.3-212.8-29.1-51.1-17-74.4-37.7-74.4-49.7V715c12.7 8.2 28.9 16.3 49.6 23.9 48.7 17.9 113.3 29.7 183.6 33.7 15.7 34.5 37.6 66.4 65.2 94z m0-450.1c-10.7 10.7-20.7 22.2-29.8 34.3-144.9-2.8-242-37.4-268.6-69.1V263.1c15 9.2 34.2 18 58.8 26.2 61.4 20.4 142.5 31.6 228.4 31.6s167-11.2 228.4-31.6c24.6-8.2 43.8-17 58.8-26.2v64.3c-16.9-2.7-34-4.1-51.1-4.1-84.8 0-164.7 33.1-224.9 93.2z"  /><path d="M775.4 464.8c-32.6-25.1-71.5-40.7-112.3-45-9.5-1-18.1 5.9-19.1 15.4s5.9 18.1 15.4 19.1c70 7.4 129.5 52.8 155.3 118.4 2.7 6.8 9.2 11 16.1 11 2.1 0 4.3-0.4 6.3-1.2 8.9-3.5 13.3-13.6 9.8-22.5-14.7-37.6-39.4-70.5-71.5-95.2z"  /></svg>