<svg xmlns:xlink="http://www.w3.org/1999/xlink" xmlns="http://www.w3.org/2000/svg" viewBox="0 0 48 48">
  <defs>
    <style>
      .cls-1 {
        clip-path: url(#clip-Expiring_points_1);
      }

      .cls-2, .cls-3 {
        fill: #fff;
      }

      .cls-3 {
        stroke: #fff;
      }
    </style>
    <clipPath id="clip-Expiring_points_1">
      <rect width="48" height="48"/>
    </clipPath>
  </defs>
  <g id="Expiring_points_1" data-name="Expiring points – 1" class="cls-1">
    <path id="减去_4" data-name="减去 4" class="cls-2" d="M-964.445-446c-12.024,0-21.443-4.088-21.443-9.306v-4.48a.378.378,0,0,1,.016-.1l0-.008a.464.464,0,0,0,.017-.074,3.566,3.566,0,0,1-.035-.463c0-.1.009-.2.017-.285-3.355-1.678-5.129-3.788-5.129-6.1v-4.47a.372.372,0,0,1,.019-.1.578.578,0,0,0,.017-.074,3.578,3.578,0,0,1-.036-.463,5.1,5.1,0,0,1,1.389-3.365,12.338,12.338,0,0,1,3.982-2.851,4.522,4.522,0,0,1-.258-1.443v-4.47a.393.393,0,0,1,.016-.1l0-.007a.591.591,0,0,0,.017-.073,3.6,3.6,0,0,1-.035-.464c0-5.218,9.419-9.306,21.443-9.306s21.435,4.092,21.444,9.315a3.874,3.874,0,0,1-.032.445v.009l0,.019a.451.451,0,0,0,.013.05l0,.01a.317.317,0,0,1,.02.1v4.47a5.117,5.117,0,0,1-1.386,3.37,12.265,12.265,0,0,1-3.983,2.856,4.548,4.548,0,0,1,.258,1.443,3.826,3.826,0,0,1-.036.479.448.448,0,0,0,.016.062.365.365,0,0,1,.02.1v.3a14.486,14.486,0,0,0-2.023-1,2.415,2.415,0,0,0-.1-.6c-.042.016-.086.029-.128.043l-.026.008-.14.047c-.17.066-.349.127-.5.179a14.491,14.491,0,0,0-4.472-.7c-.268,0-.541.008-.81.022a29.477,29.477,0,0,0,6.222-1.787c3.226-1.373,5.076-3.129,5.076-4.818v-1.157a1.342,1.342,0,0,1-.112.1c-.022.017-.044.035-.066.054-.042.042-.093.085-.142.125-.238.2-.485.4-.757.6-.037.031-.072.056-.11.083l-.027.019-.032.022a15.805,15.805,0,0,1-2.191,1.264c-.038.019-.076.037-.113.054l-.018.008c-.05.022-.093.041-.136.063l-.05.023c-.3.137-.61.278-.93.4-.058.025-.116.048-.174.07s-.131.051-.2.081l-.056.021c-.326.122-.673.252-1.031.371l-.071.026-.077.028-.007,0-.139.05c-.484.158-.95.3-1.426.428-.139.043-.29.079-.445.115-.343.095-.708.185-1.086.267-.081.019-.164.036-.246.052l-.047.01-.049.01c-.083.017-.165.034-.247.053-.349.078-.715.15-1.086.213-.169.023-.333.054-.492.083l-.035.007-.043.008c-.533.089-1.081.17-1.629.24l-.239.026-.017,0-.152.016-.082.009c-.428.054-.856.1-1.273.133l-.041,0-.33.025h-.014l-.31.023h-.005c-.383.026-.778.053-1.17.071-.214.016-.439.025-.657.034h-.026c-.472.016-1.06.036-1.624.036h-.409c-.585,0-1.188-.02-1.673-.036l-.625-.026-1.264-.081c-.2-.008-.4-.025-.595-.042h-.016c-.446-.041-.887-.091-1.314-.139l-.015,0-.1-.012-.025,0-.037,0c-.091-.008-.183-.016-.276-.031-.589-.073-1.182-.167-1.692-.249l-.223-.04-.222-.04c-.393-.068-.785-.146-1.164-.222l-.024,0-.023,0h-.005l-.016,0-.226-.048-.01,0-.125-.026-.126-.027c-.432-.094-.838-.2-1.184-.285l-.186-.049c-.063-.015-.125-.031-.187-.049-.589-.169-1.036-.3-1.452-.436-.086-.034-.177-.07-.267-.1-.41-.137-.8-.281-1.1-.392l-.19-.077-.007,0-.006,0-.008,0-.006,0-.184-.074c-.334-.129-.662-.28-.926-.4-.054-.026-.111-.051-.166-.076s-.117-.052-.165-.076c-.434-.208-.8-.4-1.13-.588a.206.206,0,0,0-.041-.031l-.008-.006-.012-.009c-.356-.211-.662-.406-.935-.6-.087-.069-.176-.131-.261-.191-.2-.146-.408-.305-.648-.5-.036-.032-.072-.062-.109-.093l-.009-.008c-.042-.035-.083-.069-.122-.1a.969.969,0,0,1-.151-.124v1.13a2.835,2.835,0,0,0,.437,1.425c1.707,2.925,8.78,5.887,19,5.887a48.223,48.223,0,0,0,5.511-.309,14.38,14.38,0,0,0-4.986,2.288c-.217,0-.381.007-.535.007-.5,0-.992-.009-1.47-.026h-.258l-.963-.051-.036,0h-.025l-.061,0c-.224-.008-.443-.017-.661-.033-.273-.016-.542-.04-.8-.063h-.008l-.081-.007c-.275-.018-.564-.047-.81-.072-.265-.026-.546-.062-.81-.1l-.292-.037-.554-.07c-.221-.031-.5-.069-.757-.116s-.564-.088-.846-.142c-.128-.024-.257-.05-.382-.076s-.222-.046-.33-.067l-.076-.014-.074-.015c-.223-.044-.453-.089-.679-.14l-.668-.16c-.25-.059-.5-.126-.749-.191l-.029-.008-.023-.006-.186-.053-.007,0-.062-.017-.088-.025c-.094-.027-.186-.053-.28-.081-.252-.07-.507-.148-.753-.225l-.018-.006c-.261-.083-.43-.137-.582-.188l-.01,0-.088-.031-.009,0c-.21-.075-.427-.153-.633-.229l-.218-.084-.007,0-.021-.008c-.1-.037-.188-.071-.279-.11-.116-.047-.23-.1-.341-.146l-.071-.031-.005,0-.114-.049-.006,0-.167-.072c-.179-.079-.328-.146-.472-.213l-.062-.031c-.188-.094-.392-.2-.606-.307-.07-.038-.141-.074-.213-.111l-.011-.006-.185-.1c-.188-.1-.374-.21-.538-.31l-.1-.063-.041-.025-.007,0-.086-.052c-.079-.046-.15-.091-.213-.132-.249-.166-.444-.3-.614-.436l-.021-.015c-.08-.056-.163-.114-.237-.173-.218-.166-.414-.344-.6-.517l-.024-.022-.014-.013c-.013-.013-.027-.026-.042-.039l-.019-.017c-.02-.017-.039-.034-.056-.051a9.335,9.335,0,0,1-.641-.7c-2.749,1.3-4.337,2.929-4.355,4.47a1.8,1.8,0,0,0,.045.357l.009.051.009.046c.23,1.235,1.457,2.52,3.455,3.616,3.742,2.054,9.545,3.233,15.923,3.233.308,0,.622,0,.933-.008a14.442,14.442,0,0,0-.764,2.011h-.169c-.663,0-1.342-.02-1.888-.036l-.276-.013-.275-.013c-.445-.017-.894-.044-1.336-.08-.067-.006-.136-.012-.2-.017l-.08-.006c-.114-.008-.2-.015-.286-.023-.525-.046-1-.09-1.478-.151-.088-.016-.183-.025-.28-.033l-.023,0c-.631-.078-1.187-.159-1.7-.249l-.264-.048h-.008l-.106-.019-.066-.012c-.407-.071-.81-.151-1.2-.229l-.009,0-.519-.108c-.433-.1-.851-.2-1.166-.284-.057-.017-.117-.032-.176-.046l-.022-.005c-.075-.017-.134-.032-.185-.047-.508-.139-.99-.283-1.434-.427l-.094-.032-.049-.017-.005,0-.079-.027-.084-.029c-.391-.133-.735-.258-1.051-.383l-.04-.014-.007,0c-.125-.047-.254-.1-.381-.152-.332-.137-.609-.255-.881-.383l-.106-.048c-.086-.037-.176-.077-.259-.121-.363-.178-.748-.369-1.1-.579-.022-.014-.042-.027-.062-.04l-.062-.04c-.326-.186-.624-.384-.873-.553l-.294-.213c-.21-.158-.406-.317-.6-.481-.076-.062-.154-.13-.222-.191l-.01-.009-.026-.023a.891.891,0,0,0-.071-.061c-.027-.022-.05-.041-.072-.063v1.13c0,1.588,1.678,3.276,4.6,4.631a26.089,26.089,0,0,0,4.328,1.46,43.5,43.5,0,0,0,10.1,1.219c-.022.327-.034.664-.034,1s.011.67.034,1c-.533-.005-1.077-.019-1.665-.042-.1,0-.19-.009-.283-.014l-.068,0c-.127-.008-.23-.014-.327-.018-.516-.029-.95-.055-1.389-.089-.228-.015-.446-.038-.676-.062l-.028,0-.062-.006c-.4-.042-.832-.088-1.265-.142l-.377-.052-.389-.055c-.411-.053-.815-.116-1.2-.187l-.739-.133c-.495-.1-.847-.173-1.176-.249-.221-.043-.439-.094-.662-.148l-.014,0c-.4-.1-.784-.2-1.175-.312l-.25-.07-.006,0c-.095-.025-.2-.054-.313-.087-.429-.131-.839-.273-1.255-.418-.112-.032-.226-.072-.334-.11l-.041-.014a.474.474,0,0,0-.078-.03l-.02-.006c.017.068.043.145.068.219l0,.011.022.065a1.783,1.783,0,0,0,.085.213,3.4,3.4,0,0,0,.189.336l.007.012c.057.095.109.18.169.267a3.732,3.732,0,0,0,.294.356,3.043,3.043,0,0,0,.222.258,5.081,5.081,0,0,0,.383.355c.041.033.08.067.119.1l.032.028,0,0,.13.11c.153.117.322.238.47.345.075.047.142.094.213.144l.03.021.093.065,0,0c.18.122.39.245.553.338.063.034.129.072.2.112s.131.076.2.111c.14.077.292.15.426.215l.011.006.121.058,0,0,.062.03.119.058.041.02,0,0h0l.024.012c.081.04.165.081.256.121.217.1.447.189.669.28l.034.014c.139.062.312.14.5.205.223.079.453.159.682.238l.005,0,.078.027.2.065.009,0c.1.035.226.077.357.119.184.055.383.113.559.163l.118.034.151.044.012,0c.2.065.388.123.594.175s.4.1.6.146l.03.007.264.06c.078.017.153.035.233.054l.047.011c.126.031.251.061.38.085.159.034.32.063.49.094l.063.012.137.025.253.048.248.049.008,0c.148.03.3.061.456.084.29.055.6.1.9.135l.024,0,.1.013.224.034.035.005.06.009c.14.022.283.043.429.058.339.042.715.078,1.047.109l.066.006.113.009a14.478,14.478,0,0,0,.981,2.063l-.038,0-.05,0h-.011l-.675-.053c-.434-.034-.881-.079-1.327-.133l-.191-.02-.032,0c-.069-.006-.137-.013-.2-.021-.57-.072-1.13-.153-1.665-.241-.067-.01-.133-.022-.2-.034l-.066-.012c-.079-.015-.161-.03-.242-.043-.367-.066-.762-.139-1.158-.222-.108-.02-.215-.044-.31-.066l-.047-.01h-.005l-.181-.039c-.368-.084-.762-.176-1.14-.275l-.1-.026-.012,0-.089-.024-.1-.025-.106-.029c-.495-.134-.977-.278-1.434-.428-.117-.043-.21-.075-.3-.107-.374-.127-.72-.252-1.059-.383-.059-.022-.121-.048-.2-.082l-.041-.017c-.054-.023-.116-.048-.176-.07-.311-.125-.6-.257-.9-.392l-.347-.16c-.388-.184-.766-.382-1.122-.588-.013-.009-.029-.018-.044-.026l-.045-.027c-.3-.173-.593-.362-.908-.579-.058-.037-.112-.077-.173-.122l0,0-.043-.031-.056-.039c-.209-.151-.431-.316-.633-.49-.1-.078-.184-.155-.249-.214a.946.946,0,0,0-.072-.063.928.928,0,0,1-.07-.061v1.131c0,1.678,1.861,3.433,5.107,4.814a37.051,37.051,0,0,0,13.27,2.477,14.569,14.569,0,0,0,2.625,1.992C-963.43-446.007-963.952-446-964.445-446Zm0-46c-9.195,0-19.44,3-19.44,7.3a2.029,2.029,0,0,0,.046.368l.016.086c.624,3.293,8.21,6.848,19.378,6.848,6.975,0,13.277-1.422,16.858-3.8a5.237,5.237,0,0,0,2.521-3.046v-.009l.022-.124v-.008a1.724,1.724,0,0,0,.039-.314C-945-489-955.249-492-964.445-492Z" transform="translate(991 494)"/>
    <path id="shijian" class="cls-3" d="M68.889,80.889a11.964,11.964,0,1,1,8.5-3.5A11.931,11.931,0,0,1,68.889,80.889Zm7.435-4.565a10.555,10.555,0,1,0-7.436,3.064,10.4,10.4,0,0,0,7.436-3.064Zm-7.435-7.435h5.25a.75.75,0,0,1,0,1.5h-6a.75.75,0,0,1-.75-.75v-7.5a.75.75,0,0,1,1.5,0v6.75Z" transform="translate(-33.389 -33.389)"/>
  </g>
</svg>
