<svg xmlns="http://www.w3.org/2000/svg" xmlns:xlink="http://www.w3.org/1999/xlink" viewBox="0 0 48 48">
  <defs>
    <style>
      .cls-1 {
        clip-path: url(#clip-Prospects);
      }

      .cls-2 {
        fill: #fff;
      }
    </style>
    <clipPath id="clip-Prospects">
      <rect width="48" height="48"/>
    </clipPath>
  </defs>
  <g id="Prospects" class="cls-1">
    <g id="组_32" data-name="组 32">
      <path id="路径_49" data-name="路径 49" class="cls-2" d="M247.76,333.138a8.362,8.362,0,0,1-1.291-6.549,5.642,5.642,0,0,0-1.841-.279c-5.393,0-5.36,5.868-3.445,8.429a4.188,4.188,0,0,0,6.889,0,5.278,5.278,0,0,0,.46-.755A5.466,5.466,0,0,1,247.76,333.138Zm-6.2,11.95a7.858,7.858,0,0,1,4.563-7.14h-3.6a6.219,6.219,0,0,0-6.223,6.213v1.9a1.045,1.045,0,0,0,1.044,1.042h4.217Zm19.015-11.261a6.11,6.11,0,0,1-10.062,0c-2.8-3.734-2.844-12.328,5.031-12.328S263.38,330.093,260.576,333.827Zm5.631,18.073H244.883a1.53,1.53,0,0,1-1.529-1.527v-2.766a9.1,9.1,0,0,1,9.1-9.086h6.166a9.1,9.1,0,0,1,9.1,9.086v2.766A1.511,1.511,0,0,1,266.208,351.9Z" transform="translate(-236.3 -310.192)"/>
      <path id="减去_8" data-name="减去 8" class="cls-2" d="M-977.552-1147.035a1.525,1.525,0,0,1-.656-.139,1.681,1.681,0,0,1-.517-.337,1.913,1.913,0,0,1-.357-.537,1.468,1.468,0,0,1-.139-.636,1.711,1.711,0,0,1,.03-.318,1.177,1.177,0,0,1,.109-.317,1.647,1.647,0,0,1,.356-.518,1.009,1.009,0,0,1,.238-.208,1.871,1.871,0,0,1,.277-.149,1.57,1.57,0,0,1,.208-.069,1.265,1.265,0,0,1,.218-.04,2.195,2.195,0,0,1,.229-.01,1.894,1.894,0,0,1,.328.03,1.854,1.854,0,0,1,.328.089,1.424,1.424,0,0,1,.537.359,2.136,2.136,0,0,1,.381.516,1.692,1.692,0,0,1,.119.636,1.9,1.9,0,0,1-.03.327,1.429,1.429,0,0,1-.089.308,2.35,2.35,0,0,1-.377.537,1.515,1.515,0,0,1-.537.336A1.536,1.536,0,0,1-977.552-1147.035Zm-7.489-.035a1.765,1.765,0,0,1-.656-.12,2.031,2.031,0,0,1-.537-.358,1.9,1.9,0,0,1-.357-.537,1.692,1.692,0,0,1-.119-.626,1.832,1.832,0,0,1,.119-.646,1.571,1.571,0,0,1,.149-.268,1.888,1.888,0,0,1,.208-.247.91.91,0,0,1,.178-.139l.158-.119a1.177,1.177,0,0,1,.2-.1h.005c.047-.013.1-.028.153-.048a.591.591,0,0,1,.158-.04c.046-.007.1-.014.168-.02a1.507,1.507,0,0,1,.168-.011,1.842,1.842,0,0,1,.657.12,1.579,1.579,0,0,1,.536.356,1.841,1.841,0,0,1,.209.247,1.654,1.654,0,0,1,.15.27,1.6,1.6,0,0,1,.139.646,1.454,1.454,0,0,1-.139.626,1.917,1.917,0,0,1-.356.537,1.876,1.876,0,0,1-.545.346A1.653,1.653,0,0,1-985.041-1147.07Zm8.813-3.761h-9.434a1.174,1.174,0,0,1-.228-.02,1.548,1.548,0,0,1-.2-.05.554.554,0,0,1-.168-.089,1.316,1.316,0,0,1-.4-.416,2.268,2.268,0,0,1-.148-.258,2.907,2.907,0,0,1-.129-.3c-.074-.281-.115-.453-.139-.575l-.1-.517-.2-1.013-.257-1.37-.3-1.528-.776-3.992h-1.35a.712.712,0,0,1-.437-.12,1.826,1.826,0,0,1-.318-.317,1.33,1.33,0,0,0-.089-.218.754.754,0,0,1-.069-.2l0-.01c-.012-.067-.022-.129-.028-.189s-.01-.131-.01-.178a.813.813,0,0,1,.238-.6,1.247,1.247,0,0,1,.3-.158,1,1,0,0,1,.356-.059h1.828a1.415,1.415,0,0,1,.575.1c.072.044.133.083.188.119a1.064,1.064,0,0,1,.168.139,1.072,1.072,0,0,1,.158.338l.1.317c.014.05.034.147.059.3v.1l.08.517.1.677h12.316a1.809,1.809,0,0,1,.795.139.946.946,0,0,1,.239.139.713.713,0,0,1,.158.178.645.645,0,0,1,.1.412,1.255,1.255,0,0,1-.01.149c-.008.046-.014.09-.02.13a.724.724,0,0,1-.03.119l-.239.656-.378,1.092-.417,1.172q-.106.316-.18.531l-.006.017-.031.091-.038.11c-.029.084-.049.145-.062.185a3.281,3.281,0,0,1-.267.586,1.465,1.465,0,0,1-.329.387,1.39,1.39,0,0,1-.874.277h-9.454l.277,1.59h9.057c.581,0,.875.247.875.735a1.053,1.053,0,0,1-.178.616C-975.659-1150.915-975.88-1150.831-976.228-1150.831Zm-4.077-5.646h0l1.128,1.128a.532.532,0,0,0,.376.156.535.535,0,0,0,.376-.156.533.533,0,0,0,0-.752l-1.129-1.129,1.129-1.129a.529.529,0,0,0,.156-.376.529.529,0,0,0-.156-.376.529.529,0,0,0-.376-.156.529.529,0,0,0-.376.156l-1.129,1.129-1.129-1.129a.528.528,0,0,0-.376-.156.529.529,0,0,0-.376.156.527.527,0,0,0-.156.375.529.529,0,0,0,.156.377l1.129,1.129-1.129,1.129a.533.533,0,0,0,0,.752.526.526,0,0,0,.376.156.528.528,0,0,0,.376-.156l1.128-1.128Z" transform="translate(1018 1166.035)"/>
    </g>
  </g>
</svg>
