<?xml version="1.0" standalone="no"?><!DOCTYPE svg PUBLIC "-//W3C//DTD SVG 1.1//EN" "http://www.w3.org/Graphics/SVG/1.1/DTD/svg11.dtd"><svg t="1529464353570" class="icon" style="" viewBox="0 0 1024 1024" version="1.1" xmlns="http://www.w3.org/2000/svg" p-id="3339" xmlns:xlink="http://www.w3.org/1999/xlink" width="200" height="200"><defs><style type="text/css"></style></defs><path d="M533.333 21.333C262.357 21.333 42.667 241.024 42.667 512s219.69 490.667 490.666 490.667S1024 782.976 1024 512 804.31 21.333 533.333 21.333z m0 938.667c-247.424 0-448-200.576-448-448s200.576-448 448-448 448 200.576 448 448-200.576 448-448 448z m0-692.01c-134.741 0-244.01 108.927-244.01 243.327 0 134.4 109.226 243.328 244.01 243.328s244.011-108.928 244.011-243.328c0-134.357-109.27-243.328-244.01-243.328z" p-id="3340"></path></svg>