<?xml version="1.0" encoding="UTF-8"?>
<svg width="40px" height="40px" viewBox="0 0 40 40" version="1.1" xmlns="http://www.w3.org/2000/svg" xmlns:xlink="http://www.w3.org/1999/xlink">
    <!-- Generator: Sketch 55.2 (78181) - https://sketchapp.com -->
    <title></title>
    <desc>Created with Sketch.</desc>
    <g id="Page-1" stroke="none" stroke-width="1" fill="none" fill-rule="evenodd">
        <g id="Coupon-performance/Analysis-切图" transform="translate(-530.000000, -158.000000)" fill="#FFFFFF">
            <g id="Group-3" transform="translate(300.000000, 130.000000)">
                <g id="积分icon" transform="translate(230.000000, 28.000000)">
                    <g id="jifen-2">
                        <path d="M27.7142857,9.42857143 C34.2857143,9.42857143 39.1428571,7.14285714 40,4.85714286 C40,2 34.2857143,0 27.7142857,0 C20.8571429,0 15.1428571,2 15.1428571,4.85714286 C16,7.14285714 20.8571429,9.42857143 27.7142857,9.42857143 L27.7142857,9.42857143 Z M27.7142857,28 C26.8571429,28 25.7142857,28 24.8571429,27.7142857 L24.8571429,34 L27.7142857,34 C34.5714286,34 40,32.2857143 40,30 L40,24.8571429 C37.1428571,26.8571429 32.8571429,28 27.7142857,28 L27.7142857,28 Z M27.7142857,19.7142857 C26.8571429,19.7142857 25.7142857,19.7142857 24.8571429,19.4285714 L24.8571429,25.7142857 C25.7142857,25.7142857 26.8571429,26 27.7142857,26 C34.2857143,26 39.1428571,23.7142857 40,21.4285714 L40,16.5714286 C37.1428571,18.5714286 32.8571429,19.7142857 27.7142857,19.7142857 Z" id="Shape" fill-rule="nonzero"></path>
                        <path d="M27.7142857,11.4285714 C22.2857143,11.4285714 18,10 15.1428571,8.28571429 L15.1428571,11.4285714 C20.8571429,12 26,14 26.2857143,17.7142857 L27.4285714,17.7142857 C34,17.7142857 38.8571429,15.4285714 39.7142857,13.1428571 L39.7142857,8.28571429 C37.1428571,10 32.8571429,11.4285714 27.7142857,11.4285714 Z" id="Path" fill-rule="nonzero"></path>
                        <path d="M12.2857143,22.2857143 C18.8571429,22.2857143 23.7142857,20 24.5714286,17.7142857 C24.5714286,15.1428571 19.1428571,12.8571429 12.2857143,12.8571429 C5.71428571,13.1428571 0,15.1428571 0,17.7142857 C0.857142857,20.2857143 5.71428571,22.2857143 12.2857143,22.2857143 Z" id="Path" fill-rule="nonzero"></path>
                        <path d="M12.2857143,31.4285714 C18.8571429,31.4285714 23.7142857,29.1428571 24.5714286,26.8571429 L24.5714286,21.7142857 C22,23.7142857 17.7142857,24.8571429 12.2857143,24.8571429 C6.85714286,24.8571429 2.85714286,23.7142857 0,21.7142857 L0,26.8571429 C0.857142857,29.1428571 5.71428571,31.4285714 12.2857143,31.4285714 Z" id="Path" fill-rule="nonzero"></path>
                        <path d="M12.2857143,34 C7.14285714,34 2.57142857,32.8571429 0,30.8571429 L0,36 C0,38.2857143 5.71428571,40 12.2857143,40 C18.8571429,40 24.5714286,38.2857143 24.5714286,36 L24.5714286,30.8571429 C22,32.5714286 17.7142857,34 12.2857143,34 Z" id="Path" fill-rule="nonzero"></path>
                    </g>
                </g>
            </g>
        </g>
    </g>
</svg>
