<?xml version="1.0" encoding="UTF-8"?>
<svg width="40px" height="40px" viewBox="0 0 40 40" version="1.1" xmlns="http://www.w3.org/2000/svg" xmlns:xlink="http://www.w3.org/1999/xlink">
    <!-- Generator: Sketch 55.2 (78181) - https://sketchapp.com -->
    <title></title>
    <desc>Created with Sketch.</desc>
    <g id="Page-1" stroke="none" stroke-width="1" fill="none" fill-rule="evenodd">
        <g id="Coupon-performance/Analysis-切图" transform="translate(-1600.000000, -158.000000)" fill="#FFFFFF">
            <g id="Group-3" transform="translate(1370.000000, 130.000000)">
                <g id="会员icon" transform="translate(230.000000, 28.000000)">
                    <g id="huiyuan" transform="translate(0.000000, 0.000000)">
                        <path d="M14.9636687,28.6318987 C14.9541197,26.8006952 15.3268937,24.9876581 16.0581441,23.3087685 C16.7490573,21.6893761 17.7360483,20.2131076 18.9684536,18.9557414 C19.9816978,17.9417079 21.1485528,17.0938492 22.4260008,16.4434229 L22.6249963,15.8215619 C22.8121109,15.7692625 22.9888164,15.685117 23.1473596,15.5728175 C23.3722452,15.3920392 23.5728935,15.1830305 23.7443461,14.9509565 C23.9516865,14.6577046 24.1034469,14.3288903 24.1920861,13.9808533 C24.3089908,13.6112461 24.3595198,13.223857 24.3413327,12.8366291 C24.3218086,12.5190064 24.2460073,12.2073789 24.1174627,11.9162748 C24.0083691,11.632518 23.8481837,11.3711629 23.6448484,11.1451671 C23.6448484,10.1979755 23.5950307,9.25143942 23.4956017,8.30948092 C23.3777032,7.46951426 23.2031846,6.63847354 22.9732385,5.82203689 C22.7485075,4.92941528 22.3605708,4.0860747 21.8290142,3.33459286 C21.3764038,2.70136758 20.8313979,2.13959223 20.2121756,1.66800536 C19.6643581,1.24817208 19.0618132,0.90505619 18.4212159,0.648153296 C17.8352475,0.366710888 17.2171029,0.157878256 16.5805073,0.0262922886 C16.0421316,-0.00877629515 15.5020444,-0.00877629515 14.9636687,0.0262922886 C14.4252929,-0.00877629515 13.8852058,-0.00877629515 13.3468301,0.0262922886 C12.7155919,0.118003154 12.0976172,0.28502333 11.5061215,0.523781095 C10.8655242,0.780683988 10.2629792,1.12379988 9.71516177,1.54363316 C9.10291363,2.02467835 8.56628825,2.59484282 8.12319761,3.23509507 C7.59164102,3.98657693 7.20370435,4.82991752 6.97897334,5.72253914 C6.74902717,6.5389758 6.57450862,7.37001651 6.45661007,8.20998317 C6.35089655,9.2096937 6.30107017,10.2145259 6.30736346,11.2197905 C6.1040281,11.4457862 5.94384272,11.7071413 5.83474907,11.9908981 C5.70620446,12.2820022 5.63040318,12.5936297 5.61087912,12.9112524 C5.59269203,13.2984803 5.64322105,13.6858694 5.76012578,14.0554766 C5.84934577,14.3757656 5.99233564,14.6785677 6.18299125,14.9509565 C6.32178007,15.1411655 6.48018955,15.3162497 6.6556056,15.4733197 C6.81414874,15.5856193 6.99085424,15.6697647 7.17796887,15.7220641 L7.5013366,16.9657861 C7.62444114,17.2885486 7.76561969,17.6041242 7.92420208,17.9110149 C8.06094684,18.1829221 8.24643171,18.4274248 8.47143975,18.6323737 C8.88601376,18.9806159 9.26742185,19.3205665 9.61566402,19.6522257 C9.97831821,20.017844 10.191242,20.5057944 10.2126506,21.0203199 L10.2126506,22.0899209 C10.2134171,22.404964 10.1543293,22.7172851 10.0385295,23.0102752 C9.88676968,23.3511267 9.67628031,23.6626509 9.41666849,23.9306295 C9.05451218,24.2988257 8.64456896,24.6167408 8.1978209,24.8758582 C7.73486925,25.159707 7.24287067,25.3931979 6.73022893,25.5723425 L5.06364144,26.0947058 L3.39705391,26.5921946 C2.90922135,26.7986493 2.44952612,27.0661083 2.02895969,27.3881767 C1.59206329,27.6602278 1.20504804,28.0051762 0.884735463,28.4080287 C0.56803095,28.8406617 0.362974427,29.344759 0.287748873,29.8756207 C0.0258987201,31.1681884 -0.0577928632,32.4905154 0.0390044698,33.8057823 C0.171668157,34.8339258 0.378955159,35.4474953 0.660865477,35.6464909 C0.990053896,35.838562 1.35323702,35.9652538 1.73046642,36.0196075 L3.81991943,36.3927241 L6.55610786,36.7409663 L9.59078957,37.0394595 L12.6005969,37.3379528 L18.0729737,37.3379528 C17.2580258,36.3472157 16.5803165,35.2511673 16.0581441,34.0794011 C15.309729,32.3621706 14.9365861,30.504937 14.9636687,28.6318987 Z" id="Path" fill-rule="nonzero"></path>
                        <path d="M38.9426292,24.2788716 C38.3448507,22.9471425 37.5009097,21.7403068 36.4551852,20.7218266 C35.4427419,19.6690217 34.2344482,18.824061 32.8981402,18.2343826 C30.1083888,17.0497117 26.9569631,17.0497117 24.1672116,18.2343826 C22.8312179,18.8246188 21.623026,19.6695082 20.6101667,20.7218266 C19.5644421,21.7403068 18.7205011,22.9471425 18.1227226,24.2788716 C16.9435346,27.052469 16.9435346,30.1864539 18.1227226,32.9600513 C18.7205011,34.2917804 19.5644421,35.4986161 20.6101667,36.5170963 C22.7057109,38.6193766 25.5519247,39.8009932 28.5202387,39.8009932 C31.4885527,39.8009932 34.3347665,38.6193766 36.4303107,36.5170963 C37.4760352,35.4986161 38.3199763,34.2917804 38.9177547,32.9600513 C40.0969427,30.1864539 40.0969427,27.052469 38.9177547,24.2788716 L38.9426292,24.2788716 Z M37.0272973,25.0997282 L30.8335616,35.8454864 C30.3993401,36.6499835 29.5588121,37.15146 28.6446109,37.15146 C27.7304096,37.15146 26.8898817,36.6499835 26.4556601,35.8454864 L20.2619245,25.0748537 C19.9222862,24.4836217 20.1219966,23.7291605 20.7096644,23.3833918 L21.6548932,22.8361541 C22.2461252,22.4965158 23.0005864,22.6962261 23.3463551,23.283894 L27.5501355,30.572105 C27.7709723,30.9617761 28.1842758,31.2026078 28.6321737,31.2026078 C29.0800715,31.2026078 29.493375,30.9617761 29.7142118,30.572105 L33.9179922,23.283894 C34.2637609,22.6962261 35.0182221,22.4965158 35.6094542,22.8361541 L36.5546829,23.3833918 C37.1514001,23.7206539 37.3627677,24.4771275 37.0272973,25.0748537 L37.0272973,25.0997282 Z" id="Shape" fill-rule="nonzero"></path>
                    </g>
                </g>
            </g>
        </g>
    </g>
</svg>
