<?xml version="1.0" encoding="UTF-8"?>
<svg width="40px" height="39px" viewBox="0 0 40 39" version="1.1" xmlns="http://www.w3.org/2000/svg" xmlns:xlink="http://www.w3.org/1999/xlink">
    <!-- Generator: Sketch 55.2 (78181) - https://sketchapp.com -->
    <title></title>
    <desc>Created with Sketch.</desc>
    <g id="Page-1" stroke="none" stroke-width="1" fill="none" fill-rule="evenodd">
        <g id="Coupon-performance/Analysis-切图" transform="translate(-1065.000000, -158.000000)" fill="#FFFFFF">
            <g id="Group-3" transform="translate(835.000000, 130.000000)">
                <g id="礼物icon" transform="translate(230.000000, 28.000000)">
                    <g id="liwu" transform="translate(0.000000, 0.000000)">
                        <path d="M18.4203733,8.41227203 L18.4203733,17.3813206 L0.0200399248,17.3813206 L0.0200399248,10.1813671 C0.0200399248,9.04812295 0.916099773,8.14175243 2.03876194,8.14175243 L10.4243658,8.14175243 C8.17280074,7.66505805 6.48270248,6.69062155 6.42141985,4.89295889 C6.35827664,2.77260306 8.72217377,-0.651859604 12.1759792,0.130472702 C15.7403337,0.941605132 18.2304398,3.73056573 20.1370622,6.11865031 C22.0621354,3.68075663 24.7891932,0.5432874 28.5105336,0.0477547144 C31.6193965,-0.34843111 34.1892746,2.78923193 33.8586352,4.85958486 C33.574859,6.67391515 31.8561932,7.66265481 29.661802,8.139543 L37.9411981,8.139543 C39.0638991,8.139543 39.9601527,9.04773533 39.9601527,10.1791189 L39.9601527,17.3769793 L21.5578425,17.3769793 L21.5191193,8.31304146 L18.4203733,8.41227203 Z M12.5556137,2.00910906 C10.834971,1.32166599 9.82657906,2.05872434 9.10180824,3.26817451 C8.70787061,3.95147005 8.283156,4.86179429 8.91206853,5.528616 C10.5674361,7.25007268 15.1072349,7.12227455 18.1530322,6.80213966 C16.7179487,4.98982499 14.9522647,2.96470725 12.5556137,2.00910906 L12.5556137,2.00910906 Z M31.3661647,5.51632847 C32.5482102,3.98658837 30.2311762,0.799310037 27.7408764,1.97813826 C25.3587612,3.10944435 23.6401341,4.95687734 22.1602031,6.77341706 C23.4358974,6.88695079 24.7278718,6.91590596 26.0077524,6.85380933 C27.5674555,6.78772022 30.4539024,6.67837277 31.3662035,5.51613466 L31.3661647,5.51632847 Z M18.5469698,38.9153633 L3.54946993,38.9153633 C2.54127178,38.9153633 1.72044886,38.0897339 1.72044886,37.0533946 L1.72044886,18.8326841 L18.5489466,18.8326841 L18.5489466,38.9153633 L18.5470085,38.9153633 L18.5469698,38.9153633 Z M38.2577669,37.0512239 C38.2577669,38.0873694 37.4390759,38.9131539 36.4287071,38.9131539 L21.4334167,38.9131539 L21.4334167,18.8304746 L38.2577669,18.8304746 L38.2577669,37.0512239 L38.2577669,37.0512239 Z" id="Shape" fill-rule="nonzero"></path>
                    </g>
                </g>
            </g>
        </g>
    </g>
</svg>
