<svg xmlns="http://www.w3.org/2000/svg" xmlns:xlink="http://www.w3.org/1999/xlink" viewBox="0 0 48 48">
  <defs>
    <style>
      .cls-1 {
        clip-path: url(#clip-Lapsed_members);
      }

      .cls-2 {
        fill: #fff;
      }
    </style>
    <clipPath id="clip-Lapsed_members">
      <rect width="48" height="48"/>
    </clipPath>
  </defs>
  <g id="Lapsed_members" data-name="Lapsed members" class="cls-1">
    <g id="组_22" data-name="组 22">
      <g id="组_20" data-name="组 20">
        <path id="路径_49" data-name="路径 49" class="cls-2" d="M247.76,333.138a8.362,8.362,0,0,1-1.291-6.549,5.642,5.642,0,0,0-1.841-.279c-5.393,0-5.36,5.868-3.445,8.429a4.188,4.188,0,0,0,6.889,0,5.278,5.278,0,0,0,.46-.755A5.466,5.466,0,0,1,247.76,333.138Zm-6.2,11.95a7.858,7.858,0,0,1,4.563-7.14h-3.6a6.219,6.219,0,0,0-6.223,6.213v1.9a1.045,1.045,0,0,0,1.044,1.042h4.217Zm19.015-11.261a6.11,6.11,0,0,1-10.062,0c-2.8-3.734-2.844-12.328,5.031-12.328S263.38,330.093,260.576,333.827Zm5.631,18.073H244.883a1.53,1.53,0,0,1-1.529-1.527v-2.766a9.1,9.1,0,0,1,9.1-9.086h6.166a9.1,9.1,0,0,1,9.1,9.086v2.766A1.511,1.511,0,0,1,266.208,351.9Z" transform="translate(-236.3 -310.192)"/>
      </g>
      <path id="路径_90" data-name="路径 90" class="cls-2" d="M582.964,738.942h-3.48a1.567,1.567,0,0,1-1.547-1.547,1.43,1.43,0,0,1,1.418-1.418l-4-4-3.609,3.609a1.568,1.568,0,0,1-2.062,0l-4.64-4.64a1.51,1.51,0,0,1,2.191-2.062l3.48,3.609,3.609-3.609a1.568,1.568,0,0,1,2.062,0l5.155,5.026a1.463,1.463,0,0,1,1.547-1.418,1.567,1.567,0,0,1,1.547,1.547v3.48A1.677,1.677,0,0,1,582.964,738.942Z" transform="translate(1.466 -914.735) rotate(36)"/>
    </g>
  </g>
</svg>
