<?xml version="1.0" standalone="no"?><!DOCTYPE svg PUBLIC "-//W3C//DTD SVG 1.1//EN" "http://www.w3.org/Graphics/SVG/1.1/DTD/svg11.dtd"><svg class="icon" width="42px" height="42.00px" viewBox="0 0 1024 1024" version="1.1" xmlns="http://www.w3.org/2000/svg"><path d="M75.462692 589.103052l142.975319 0 0 367.813087-142.975319 0 0-367.813087Z"  /><path d="M320.365448 452.42209l142.975319 0 0 504.494049-142.975319 0 0-504.494049Z"/><path d="M577.789379 536.669866l142.975319 0 0 426.461835-142.975319 0 0-426.461835Z"/><path d="M805.561989 305.781288l142.975319 0 0 657.350412-142.975319 0 0-657.350412Z"  /><path d="M877.051183 60.555168c-35.382858 0-64.066131 28.683273-64.066131 64.066131 0 3.483334 1.447978 6.488785 1.982144 9.818623L683.052794 248.359484c-9.948583-6.355755-21.089317-10.988262-33.772174-10.988262-24.625864 0-45.338604 14.349823-56.063877 34.719756l-140.972709-37.551244c-7.965415-26.320459-31.466666-45.852304-60.388369-45.852304-31.232328 0-56.027038 22.789029-61.703317 52.362578L184.978968 297.089325c-10.748808-8.151657-23.497157-13.863752-38.028105-13.863752-35.382858 0-64.066131 28.687366-64.066131 64.070224s28.683273 64.066131 64.066131 64.066131c31.236422 0 56.039317-22.797215 61.70741-52.377928l145.151891-56.031131c10.748808 8.163937 23.505343 13.871939 38.044478 13.871939 17.20587 0 32.676214-6.974855 44.186362-18.015306l165.311023 44.044122c11.748578 13.597693 28.54615 22.650883 47.928592 22.650883 31.79003 0 56.994062-23.573905 62.022589-53.939493l146.701177-126.7201c6.113231 1.938142 12.290931 3.843538 19.046798 3.843538 35.382858 0 64.066131-28.683273 64.066131-64.066131S912.434042 60.555168 877.051183 60.555168z"  /></svg>
