<?xml version="1.0" standalone="no"?><!DOCTYPE svg PUBLIC "-//W3C//DTD SVG 1.1//EN" "http://www.w3.org/Graphics/SVG/1.1/DTD/svg11.dtd"><svg t="1527477427958" class="icon" style="" viewBox="0 0 1024 1024" version="1.1" xmlns="http://www.w3.org/2000/svg" p-id="1996" xmlns:xlink="http://www.w3.org/1999/xlink" width="200" height="200"><defs><style type="text/css"></style></defs><path d="M948.188 914.495L765.641 731.949c62.975-70.596 101.252-163.7 101.252-265.748 0-220.574-178.807-399.38-399.376-399.38S68.14 245.627 68.14 466.2c0 220.567 178.806 399.375 399.376 399.375 96.957 0 185.841-34.555 255.019-92.016l183.293 183.293c11.697 11.705 30.662 11.705 42.36 0 11.697-11.694 11.697-30.664 0-42.358z m-820.14-448.294c0-187.487 151.984-339.474 339.469-339.474 187.483 0 339.47 151.987 339.47 339.474 0 187.48-151.987 339.467-339.47 339.467-187.485 0.001-339.47-151.985-339.47-339.467z" fill="" p-id="1997"></path></svg>