<?xml version="1.0" encoding="UTF-8"?>
<svg xmlns:xlink="http://www.w3.org/1999/xlink" width="14px" height="14px" viewBox="0 0 14 14" version="1.1" xmlns="http://www.w3.org/2000/svg">
    <!-- Generator: Sketch 55.2 (78181) - https://sketchapp.com -->
    <title></title>
    <desc>Created with Sketch.</desc>
    <g id="Page-1" stroke="none" stroke-width="1" fill="none" fill-rule="evenodd">
        <g id="Spot-campaign-When-Instantly" transform="translate(-1174.000000, -529.000000)" fill="#CCCCCC" fill-rule="nonzero">
            <g id="time" transform="translate(300.000000, 506.000000)">
                <g id="勾选框-copy" transform="translate(800.000000, 22.000000)">
                    <g id="❓-icon" transform="translate(74.000000, 1.000000)">
                        <path d="M6.99766211,0.0127695313 C7.90506445,0.0127695313 8.79327148,0.1855 9.62941602,0.5254375 C10.4956934,0.876326172 11.274252,1.39446289 11.9431484,2.06061133 C12.6120586,2.72950781 13.1274609,3.50806641 13.4783359,4.37435742 C13.8182734,5.21322266 13.9909902,6.09869531 13.9909902,7.00611133 C13.9909902,7.91351367 13.8182734,8.80173437 13.4783359,9.63785156 C13.1274336,10.5041562 12.6093242,11.2826875 11.9431484,11.9515977 C11.274252,12.6205078 10.495707,13.1358965 9.62941602,13.4867852 C8.79053711,13.8267227 7.90507813,13.9994258 6.99766211,13.9994258 C6.09025977,13.9994258 5.20203906,13.8267227 4.36592188,13.4867852 C3.49961719,13.1358965 2.72107227,12.6177598 2.05217578,11.9515977 C1.38326562,11.2826875 0.867890625,10.5041289 0.516988281,9.63785156 C0.177050781,8.79895898 0.00434765625,7.9135 0.00434765625,7.00609766 C0.00434765625,6.09868164 0.177064453,5.21047461 0.516988281,4.37434375 C0.867890625,3.50805273 1.38601367,2.72949414 2.05217578,2.06059766 C2.72107227,1.39170117 3.49963086,0.876298828 4.36592188,0.525423828 C5.20203906,0.1855 6.08752539,0.0127695313 6.99766211,0.0127695313 L6.99766211,0.0127695313 Z M7.00864063,2.99267773 C6.27667578,2.99267773 5.68726758,3.19007227 5.24042969,3.58209961 C4.7963125,3.97686133 4.52766016,4.54157812 4.43720703,5.28177344 L5.43781055,5.399625 C5.5255293,4.84587305 5.70646289,4.44289453 5.98608008,4.18245898 C6.26297656,3.92200977 6.61113086,3.79317969 7.02506055,3.79317969 C7.45547852,3.79317969 7.8173457,3.9384707 8.11342383,4.22357031 C8.40948828,4.50868359 8.55752734,4.84313867 8.55752734,5.22145312 C8.55752734,5.42979883 8.5054375,5.62443164 8.40672656,5.79989648 C8.30530859,5.97533398 8.08598437,6.21383984 7.74880859,6.50991797 C7.41160547,6.80873047 7.1785957,7.03352344 7.04975195,7.1897793 C6.87430078,7.40360742 6.74545703,7.61470117 6.66595508,7.82306055 C6.55904102,8.09991602 6.5042168,8.43163672 6.5042168,8.81268555 C6.5042168,8.87847461 6.50695117,8.97442383 6.50968555,9.10601562 L7.44451367,9.10601562 C7.4527168,8.71673633 7.4774082,8.43438477 7.52675,8.26166797 C7.57337109,8.08896484 7.64737695,7.93545703 7.7433125,7.80111719 C7.83924805,7.66677734 8.04763477,7.46117969 8.36562891,7.17881445 C8.83714453,6.75938867 9.15515234,6.40573828 9.3169043,6.1124082 C9.47864258,5.82182617 9.56087891,5.50107031 9.56087891,5.15566406 C9.56087891,4.55802539 9.33060352,4.04539844 8.86730469,3.62322461 C8.40125781,3.20377148 7.7844375,2.99267773 7.00864063,2.99267773 L7.00864063,2.99267773 Z M7.00041016,9.82425391 C6.6714375,9.82425391 6.40277148,10.0901719 6.40277148,10.4218926 C6.40277148,10.7508652 6.66868945,11.0195176 7.00041016,11.0195176 C7.32936914,11.0195176 7.59803516,10.7535996 7.59803516,10.4218926 C7.59530078,10.0929199 7.32938281,9.82428125 7.00041016,9.82428125 L7.00041016,9.82425391 Z" id="Shape"></path>
                    </g>
                </g>
            </g>
        </g>
    </g>
</svg>
