<?xml version="1.0" encoding="UTF-8"?>
<svg width="20px" height="13px" viewBox="0 0 20 13" version="1.1" xmlns="http://www.w3.org/2000/svg" xmlns:xlink="http://www.w3.org/1999/xlink">
    <!-- Generator: Sketch 55.2 (78181) - https://sketchapp.com -->
    <title>Singapore</title>
    <desc>Created with Sketch.</desc>
    <g id="Page-1" stroke="none" stroke-width="1" fill="none" fill-rule="evenodd">
        <g id="Fides-suite-Legal-page-国旗切图" transform="translate(-608.000000, -34.000000)">
            <g id="Singapore" transform="translate(608.000000, 34.000000)">
                <g id="xinjiapo" stroke-width="1" fill-rule="evenodd">
                    <polygon id="Path" fill="#DA1841" fill-rule="nonzero" points="0 0 19.9053572 0 19.9053572 6.4499874 0 6.4499874"></polygon>
                    <path d="M0,6.4499874 L19.9053572,6.4499874 L19.9053572,12.8999748 L0,12.8999748 L0,6.4499874 Z M5.98404947,3.2340262 C5.98315822,4.04285606 5.56618825,4.78975346 4.89020667,5.19336936 C4.21422508,5.59698526 3.38192956,5.59600081 2.70683778,5.19078684 C2.031746,4.78557288 1.61642046,4.03769103 1.61730885,3.22886117 C1.61868582,1.97851858 2.59732843,0.966071875 3.80316974,0.967496653 C5.00901106,0.968924441 5.98542351,1.9836836 5.98404947,3.2340262 L5.98404947,3.2340262 Z" id="Shape" fill="#FFFFFF" fill-rule="nonzero"></path>
                    <path d="M6.66207424,3.2340262 C6.68061859,4.01100248 6.2914602,4.73733048 5.6454421,5.13147571 C4.99942399,5.52562094 4.19810485,5.52562094 3.55208674,5.13147571 C2.90606864,4.73733048 2.51691025,4.01100248 2.5354546,3.2340262 C2.56316381,2.07305792 3.47877366,1.14686291 4.59876442,1.14686291 C5.71875518,1.14686291 6.63436503,2.07305792 6.66207424,3.2340262" id="Path" fill="#DA1841" fill-rule="nonzero"></path>
                    <path d="M4.06193696,3.28820862 L3.7658472,3.052129 L3.46850607,3.28820862 L3.5829643,2.90894432 L3.28438394,2.6728647 L3.65262819,2.67545981 L3.76459582,2.29232804 L3.87781483,2.67545981 L4.24356848,2.6728773 L3.94749087,2.90894432 L4.06193696,3.28820862 L4.06193696,3.28820862 Z M6.38837558,3.28820862 L6.09228582,3.052129 L5.79494469,3.28820862 L5.91064215,2.90894432 L5.61331317,2.6728647 L5.97906681,2.67545981 L6.09103445,2.29232804 L6.20674406,2.67545981 L6.57374908,2.6728773 L6.27516872,2.90894432 L6.38837558,3.28820862 Z M5.22763472,2.39166037 L4.93155711,2.15687831 L4.63421598,2.39166037 L4.74618361,2.01239607 L4.45009385,1.78019652 L4.8183381,1.78019652 L4.93030574,1.39706475 L5.04352475,1.77889897 L5.40927839,1.77632905 L5.11318864,2.01239607 L5.22763472,2.39166037 L5.22763472,2.39166037 Z M4.49736665,4.72267574 L4.20127689,4.48660872 L3.90393575,4.72268833 L4.01963321,4.34084152 L3.71981363,4.10735702 L4.08805788,4.10735702 L4.20002551,3.72809272 L4.31324452,4.10735702 L4.68024955,4.10735702 L4.38290841,4.33955656 L4.49736665,4.72267574 L4.49736665,4.72267574 Z M5.95294589,4.72267574 L5.65934673,4.48660872 L5.36076638,4.72268833 L5.47397324,4.34084152 L5.17788348,4.10735702 L5.54363713,4.10735702 L5.65934673,3.72809272 L5.77131437,4.10735702 L6.13706802,4.10735702 L5.84097826,4.33955656 L5.95294589,4.72267574 L5.95294589,4.72267574 Z" id="Shape" fill="#FFFFFF" fill-rule="nonzero"></path>
                </g>
                <rect id="Rectangle" stroke="#CCCCCC" stroke-width="0.1" x="0.05" y="0.05" width="19.9" height="12.9"></rect>
            </g>
        </g>
    </g>
</svg>