<?xml version="1.0" encoding="UTF-8"?>
<svg xmlns:xlink="http://www.w3.org/1999/xlink" width="14px" height="14px" viewBox="0 0 14 14" version="1.1" xmlns="http://www.w3.org/2000/svg">
    <!-- Generator: Sketch 55.2 (78181) - https://sketchapp.com -->
    <title></title>
    <desc>Created with Sketch.</desc>
    <g id="Page-1" stroke="none" stroke-width="1" >
        <g id="Spot-campaign-How-SMS" transform="translate(-1728.000000, -994.000000)">
            <g id="MESSAGE.-Group-Copy-10" transform="translate(1536.000000, 876.000000)">
                <g id="MESSAGE.-Group">
                    <g id="modify&amp;delete" transform="translate(0.000000, 110.000000)">
                        <g id="delete" transform="translate(192.000000, 5.000000)">
                            <g id="shanchu" transform="translate(0.000000, 3.000000)">
                                <path d="M10.912979,12.0426199 C10.912979,12.5232866 10.5306305,12.9145088 10.0609235,12.9145088 L3.92167598,12.9145088 C3.45195123,12.9145088 3.06962042,12.5232685 3.06962042,12.0426199 L3.06962042,2.78728141 L10.912979,2.78728141 L10.912979,12.0426199 Z M4.77374921,1.22237443 C4.77374921,1.12176978 4.85021891,1.04352172 4.94853709,1.04352172 L9.04498658,1.04352172 C9.14330477,1.04352172 9.21977446,1.12176978 9.21977446,1.22237443 L9.21977446,1.74773619 L4.77374921,1.74773619 L4.77374921,1.22237443 Z M13.469181,1.74773619 L10.2356937,1.74773619 L10.2356937,1.22237443 C10.2356937,0.55167676 9.70044113,0.00397650188 9.04498658,0.00397650188 L4.94853709,0.00397650188 C4.29308254,0.00397650188 3.75783002,0.55167676 3.75783002,1.22237443 L3.75783002,1.74773619 L0.51343608,1.74773619 C0.229405777,1.74773619 -3.31434215e-06,1.98248038 -3.31434215e-06,2.27309795 C-3.31434215e-06,2.56371552 0.229405777,2.79845971 0.513418403,2.79845971 L2.04277699,2.79845971 L2.04277699,12.0426199 C2.04277699,13.1045398 2.8839083,13.9652323 3.92167598,13.9652323 L10.0609235,13.9652323 C11.0986911,13.9652323 11.9398224,13.1045398 11.9398224,12.0426199 L11.9398224,2.78728141 L13.469181,2.78728141 C13.7531937,2.78728141 13.9826027,2.55255531 13.9826027,2.26191965 C13.9826027,1.971284 13.7531937,1.74773619 13.469181,1.74773619 Z M6.99129972,11.3384235 C7.27533002,11.3384235 7.50472143,11.1036793 7.50472143,10.8130437 L7.50472143,5.22407728 C7.50472143,4.93344162 7.27533002,4.69871552 6.99129972,4.69871552 C6.70726941,4.69871552 6.477878,4.93344162 6.477878,5.22407728 L6.477878,10.8130437 C6.477878,11.1036793 6.70726941,11.3384235 6.99129972,11.3384235 L6.99129972,11.3384235 Z M4.59896133,11.3384235 C4.88299164,11.3384235 5.11238305,11.1036793 5.11238305,10.8130437 L5.11238305,5.22407728 C5.11238305,4.93344162 4.88299164,4.69871552 4.59896133,4.69871552 C4.31493103,4.69871552 4.08553961,4.93344162 4.08553961,5.22407728 L4.08553961,10.8130437 C4.09646386,11.1036793 4.32587295,11.3384235 4.59896133,11.3384235 L4.59896133,11.3384235 Z M9.3836381,11.3384235 C9.66765073,11.3384235 9.89705982,11.1036793 9.89705982,10.8130437 L9.89705982,5.22407728 C9.89705982,4.93344162 9.66765073,4.69871552 9.3836381,4.69871552 C9.09962547,4.69871552 8.87021638,4.93344162 8.87021638,5.22407728 L8.87021638,10.8130437 C8.87021638,11.1036793 9.0996078,11.3384235 9.3836381,11.3384235 L9.3836381,11.3384235 Z" id="Shape"></path>
                            </g>
                        </g>
                    </g>
                </g>
            </g>
        </g>
    </g>
</svg>
