<?xml version="1.0" encoding="UTF-8"?>
<svg xmlns:xlink="http://www.w3.org/1999/xlink" width="27px" height="30px" viewBox="0 0 27 30" version="1.1" xmlns="http://www.w3.org/2000/svg">
    <!-- Generator: Sketch 55.2 (78181) - https://sketchapp.com -->
    <title></title>
    <desc>Created with Sketch.</desc>
    <g id="Page-1" stroke="none" stroke-width="1">
        <g id="切图稿" transform="translate(-331.000000, -801.000000)">
            <g id="what" transform="translate(300.000000, 724.000000)">
                <g transform="translate(30.000000, 77.000000)" id="btn_atvityx">
                    <g transform="translate(1.000000, 0.000000)">
                        <path d="M26.0403953,0 C26.4410474,0 26.7660791,0.306614004 26.7660791,0.685065234 L26.7660791,29.314944 C26.7660791,29.563369 26.6236703,29.7922403 26.3938565,29.9132376 C26.1641211,30.0342086 25.8830401,30.0283294 25.6592101,29.8976995 L13.459141,22.7900133 L1.11227325,29.8994581 C0.888286438,30.0283294 0.608146146,30.0330538 0.379455942,29.9119252 C0.150739604,29.7906917 0.0089056625,29.5623979 0.0089056625,29.3148127 L0.0089056625,0.685038984 C0.0089056625,0.503254307 0.0852838,0.328976191 0.221473642,0.200524834 C0.357506683,0.0721521973 0.542115496,0 0.734589479,0 L26.0403953,0 Z M10.7447773,9.52177937 L10.7447773,9.52193684 L6.43214282,10.1136688 L9.55298563,12.9856357 C9.73615729,13.154297 9.81956442,13.397079 9.77637144,13.6350841 L9.03966073,17.6906723 L12.8970313,15.7760278 C13.1233698,15.6636919 13.3936852,15.6636919 13.6202066,15.7760278 L17.4777079,17.6908298 L16.7408404,13.6351891 C16.6976474,13.397184 16.7812374,13.154402 16.9642523,12.9859506 L20.0850429,10.1135113 L15.7722777,9.52177937 C15.5192082,9.48715995 15.3005258,9.33700257 15.1872781,9.12049351 L13.258619,5.43065309 L11.3297769,9.12049351 C11.2165293,9.33697632 10.997873,9.48700248 10.7447773,9.52180562 L10.7447773,9.52177937 Z" id="Shape"></path>
                    </g>
                </g>
            </g>
        </g>
    </g>
</svg>
