<?xml version="1.0" encoding="UTF-8"?>
<svg xmlns:xlink="http://www.w3.org/1999/xlink" width="14px" height="14px" viewBox="0 0 14 14" version="1.1" xmlns="http://www.w3.org/2000/svg">
    <!-- Generator: Sketch 55.2 (78181) - https://sketchapp.com -->
    <title></title>
    <desc>Created with Sketch.</desc>
    <g id="Page-1" stroke="none" stroke-width="1">
        <g id="Spot-campaign-Campaign-details-Draft(SMS)" transform="translate(-615.000000, -123.000000)">
            <g id="活动按钮" transform="translate(250.000000, 100.000000)">
                <g id="修改icon" transform="translate(365.000000, 23.000000)">
                    <path d="M13.8155844,1.74031531 C13.861039,1.83181858 13.8883117,1.95077283 13.9155844,2.0788774 C13.9428571,2.20698198 13.9519481,2.34423688 13.9519481,2.48149178 C13.9519481,2.61874668 13.9246753,2.75600158 13.8701299,2.89325649 C13.8155844,3.03051139 13.7337662,3.16776629 13.6155844,3.29587087 C13.4883117,3.42397544 13.3792208,3.53377936 13.2701299,3.63443296 C13.1701299,3.72593622 13.0792208,3.81743949 13.0064935,3.89064211 C12.9246753,3.97299505 12.8428571,4.04619766 12.7701299,4.11024995 L9.80649351,1.12724341 C9.93376623,1.00828917 10.0883117,0.871034264 10.261039,0.706328382 C10.4337662,0.541622499 10.5792208,0.413517924 10.6974026,0.312864329 C10.8428571,0.193910081 10.9974026,0.11155714 11.161039,0.0658055058 C11.3155844,0.0200538718 11.4792208,-0.00739710856 11.6246753,0.00175321824 C11.7792208,0.010903545 11.9246753,0.0292041986 12.0701299,0.0749558326 C12.2155844,0.120707467 12.3337662,0.166459101 12.4428571,0.221361061 C12.661039,0.34031531 12.9064935,0.541622499 13.1792208,0.834432957 C13.461039,1.11809309 13.6701299,1.42005387 13.8155844,1.74031531 L13.8155844,1.74031531 Z M1.46103896,9.53639374 C1.52467532,9.47234145 1.67012987,9.3167859 1.90649351,9.0788774 C2.14285714,8.8409689 2.43376623,8.54815845 2.77922078,8.1912957 L3.93376623,7.0292042 L5.21558442,5.73900812 L8.62467532,2.30763557 L11.5974026,5.29979243 L8.18831169,8.73116498 L6.91558442,10.0213611 C6.48831169,10.4331258 6.11558442,10.8174395 5.77012987,11.1651519 C5.43376623,11.5128643 5.15194805,11.7965245 4.93376623,12.0161323 C4.71558442,12.2357401 4.57922078,12.3638447 4.53376623,12.400446 C4.42467532,12.4919493 4.30649351,12.6017532 4.17012987,12.7024068 C4.03376623,12.8122107 3.88831169,12.8945637 3.74285714,12.958616 C3.5974026,13.0318186 3.37922078,13.1233218 3.08831169,13.2331258 C2.80649351,13.3429297 2.50649351,13.4435833 2.18831169,13.5442369 C1.87922078,13.6448905 1.57922078,13.7363937 1.2974026,13.8095964 C1.01558442,13.882799 0.806493506,13.9285506 0.67012987,13.9560016 C0.388311688,13.9834526 0.197402597,13.9468513 0.0974025974,13.827897 C0.00649350649,13.7089428 -0.0207792208,13.5167859 0.0155844156,13.2331258 C0.0337662338,13.0867205 0.0883116883,12.8671127 0.17012987,12.5834526 C0.251948052,12.2997924 0.333766234,12.006982 0.424675325,11.7050212 C0.515584416,11.4030604 0.597402597,11.1194003 0.688311688,10.8631911 C0.77012987,10.606982 0.842857143,10.4331258 0.897402597,10.3324722 C0.961038961,10.1860669 1.03376623,10.048812 1.11558442,9.92985779 C1.1974026,9.82005387 1.31558442,9.68279897 1.46103896,9.53639374 Z M6.75194805,12.5468513 L8.17012987,12.5468513 L8.17012987,13.9651519 L6.75194805,13.9651519 L6.75194805,12.5468513 Z M9.63376623,12.5468513 L11.0519481,12.5468513 L11.0519481,13.9651519 L9.63376623,13.9651519 L9.63376623,12.5468513 Z M12.5246753,12.5468513 L13.9428571,12.5468513 L13.9428571,13.9651519 L12.5246753,13.9651519 L12.5246753,12.5468513 Z" id="Shape"></path>
                </g>
            </g>
        </g>
    </g>
</svg>
