<?xml version="1.0" encoding="UTF-8"?>
<svg xmlns:xlink="http://www.w3.org/1999/xlink" width="30px" height="29px" viewBox="0 0 30 29" version="1.1" xmlns="http://www.w3.org/2000/svg">
    <!-- Generator: Sketch 55.2 (78181) - https://sketchapp.com -->
    <title></title>
    <desc>Created with Sketch.</desc>
    <g id="Page-1" stroke="none" stroke-width="1">
        <g id="切图稿" transform="translate(-760.000000, -542.000000)">
            <g id="what" transform="translate(730.000000, 465.000000)">
                <g id="who" transform="translate(30.000000, 77.000000)">
                    <path d="M5.8115988,28.0136626 C5.72899545,27.9295879 5.6481859,27.8437021 5.56924008,27.7560488 C5.4879626,27.6622943 5.4360087,27.5485997 5.41932829,27.4279854 C5.3430396,26.8700438 5.30181368,26.3082479 5.29587149,25.745609 C5.29587145,21.2284285 7.71209721,17.3337273 11.1688873,15.6513509 C11.4402347,15.5222649 11.7690443,15.5884807 11.9625381,15.8111766 L14.6609508,18.8478659 C14.7849397,18.9877 14.9671921,19.0683532 15.1591872,19.0683532 C15.3511822,19.0683532 15.5334347,18.9877 15.6574235,18.8478659 L18.3646546,15.785941 C18.5598849,15.5660038 18.8865386,15.5002221 19.1583053,15.6261152 C22.6415505,17.3084916 25.0754129,21.194781 25.0754129,25.7203734 C25.0662749,26.2831689 25.0221054,26.84495 24.9431378,27.4027497 C24.9337244,27.5236002 24.8843184,27.6384764 24.8020443,27.7308131 C24.7161915,27.827222 24.6280935,27.9215243 24.5378419,28.0136626 L5.8115988,28.0136626 Z M9.48452187,8.98072864 C9.4775532,7.54922044 10.0675635,6.17380054 11.1245715,5.15762317 C12.1815796,4.14144581 13.6188171,3.56792757 15.1195047,3.56347675 C18.2258248,3.56347675 20.7461952,5.96162716 20.7542531,8.92475899 C20.7622726,11.8878908 18.2549473,14.2983618 15.1486693,14.3138632 C12.0423912,14.3292158 9.50889011,11.9437797 9.48452187,8.98072864 Z M0.278234815,22.3808563 C0.198444817,22.2894567 0.146578537,22.1788641 0.128322985,22.0612048 C0.0541357403,21.5398153 0.0158408944,21.0143491 0.0136845195,20.4881829 C0.0136845195,16.3411252 2.23590675,12.7744873 5.38405489,11.1762298 C5.65807842,11.045879 5.9900726,11.1120015 6.18652403,11.3360555 L8.62038649,14.078329 L9.17594204,14.7849271 C5.77005174,17.1249349 3.68988391,20.8357699 3.54102138,24.8371258 C2.2873078,24.2420409 1.17638189,23.4057209 0.278234815,22.3808563 Z M7.78264398,9.8639762 L7.79146231,9.8639762 C5.35509131,9.12563639 3.82054369,6.83125393 4.14534905,4.41248139 C4.4701544,1.99370886 6.56141124,0.142368455 9.11421364,0.0136626445 C10.7414047,0.016296666 12.2715711,0.752352985 13.2411977,1.99886673 C13.2621036,2.03379639 13.2798061,2.07038398 13.2941078,2.10822121 C10.0121616,2.92064574 7.72067708,5.74635927 7.72091558,8.98072864 C7.71952213,9.27616791 7.74015027,9.57132788 7.78264398,9.8639762 Z M23.8232083,11.3360555 C24.0154983,11.1174902 24.3389491,11.0516216 24.6080408,11.1762298 C27.7914623,12.7744873 30.0136845,16.3411252 30.0136845,20.4881829 C30.0130334,21.0147023 29.9717697,21.5404623 29.8902277,22.0612048 C29.8749731,22.1781217 29.8261449,22.2887434 29.7491343,22.3808563 C28.8439031,23.4056308 27.727267,24.24173 26.468711,24.8371258 C26.3219213,20.8372516 24.2451649,17.1266955 20.8426087,14.7849271 L21.3893459,14.078329 L23.8232083,11.3360555 Z M22.3417269,8.98072864 C22.3419654,5.74635927 20.0504808,2.92064574 16.7685346,2.10822121 C16.7824751,2.07024359 16.8001925,2.03362528 16.8214447,1.99886673 C17.7947731,0.752077239 19.3276157,0.0163057904 20.9572471,0.0136626445 C23.5100495,0.142368455 25.6013064,1.99370886 25.9261117,4.41248139 C26.2509171,6.83125393 24.7163695,9.12563639 22.2799985,9.8639762 C22.3181096,9.57091455 22.338719,9.27602264 22.3417269,8.98072864 Z" id="Combined-Shape"></path>
                </g>
            </g>
        </g>
    </g>
</svg>
