<?xml version="1.0" encoding="UTF-8"?>
<svg xmlns:xlink="http://www.w3.org/1999/xlink" width="25px" height="28px" viewBox="0 0 25 28" version="1.1" xmlns="http://www.w3.org/2000/svg">
    <!-- Generator: Sketch 55.2 (78181) - https://sketchapp.com -->
    <title></title>
    <desc>Created with Sketch.</desc>
    <g id="Page-1" stroke="none" stroke-width="1">
        <g id="Marketing-campaign-Spot-campaign" transform="translate(-966.000000, -115.000000)">
            <g id="活动按钮" transform="translate(250.000000, 100.000000)">
                <g id="Group" transform="translate(716.000000, 15.000000)">
                    <path d="M24.3219727,0 C24.6963135,0 25,0.286173168 25,0.639394436 L25,27.3606237 C25,27.5924871 24.8669434,27.8061004 24.6522217,27.9190312 C24.4375733,28.0319376 24.1749512,28.0264503 23.9658203,27.9045291 L12.5669434,21.2706863 L1.03090821,27.9061704 C0.821630858,28.0264503 0.559887692,28.0308597 0.346215829,27.9178064 C0.132519548,27.8046551 0,27.5915807 0,27.3605012 L0,0.639369936 C0,0.469704179 0.0713622999,0.30704455 0.198608403,0.187156575 C0.325708003,0.0673420737 0.498193348,0 0.67802735,0 L24.3219727,0 Z M10.030835,8.8869971 L10.030835,8.88714407 L6.001416,9.43942741 L8.91730958,12.1199308 C9.08845215,12.277348 9.16638184,12.5039447 9.1260254,12.7260828 L8.4376953,16.5112998 L12.0417481,14.7242976 C12.2532227,14.6194507 12.5057862,14.6194507 12.7174316,14.7242976 L16.3216065,16.5114468 L15.6331299,12.7261808 C15.5927734,12.5040426 15.670874,12.277446 15.8418701,12.1202247 L18.7577149,9.43928044 L14.7281738,8.8869971 C14.4917236,8.85468563 14.2874023,8.7145387 14.1815918,8.5124635 L12.3795898,5.06861127 L10.577417,8.5124635 C10.4716065,8.7145142 10.2673096,8.85453866 10.030835,8.8870216 L10.030835,8.8869971 Z" id="Shape"></path>
                </g>
            </g>
        </g>
    </g>
</svg>
