<?xml version="1.0" encoding="UTF-8"?>
<svg xmlns:xlink="http://www.w3.org/1999/xlink" width="30px" height="30px" viewBox="0 0 30 30" version="1.1" xmlns="http://www.w3.org/2000/svg">
    <!-- Generator: Sketch 55.2 (78181) - https://sketchapp.com -->
    <g id="Page-1" stroke="none" stroke-width="1" fill="">
        <g id="切图稿" transform="translate(-330.000000, -542.000000)">
            <g id="what" transform="translate(300.000000, 465.000000)">
                <g id="when" transform="translate(30.000000, 77.000000)">
                    <g id="shijian-2">
                        <path d="M20.4,27.768 C13.8273141,30.5571678 6.21120695,27.8967344 2.80479759,21.6217019 C-0.601611778,15.3466695 1.31645429,7.51059795 7.2360326,3.5183242 C13.1556109,-0.473949546 21.139467,0.684081425 25.6808314,6.19367907 C30.2221959,11.7032767 29.8348669,19.7613764 24.786,24.81 C23.5297056,26.0711569 22.0400261,27.0758245 20.4,27.768 Z M0,15 C0,23.2842712 6.71572875,30 15,30 C23.2842712,30 30,23.2842712 30,15 C30,6.71572875 23.2842712,0 15,0 C6.71572875,0 0,6.71572875 0,15 Z M15,15.21 L15,5.832 C15,5.37139452 14.6266055,4.998 14.166,4.998 C13.7053945,4.998 13.332,5.37139452 13.332,5.832 L13.332,15.21 L12.204,15.21 C11.7433945,15.21 11.37,15.5833945 11.37,16.044 C11.37,16.5046055 11.7433945,16.878 12.204,16.878 L13.338,16.878 L13.338,18 C13.3113164,18.3137455 13.4636113,18.6157726 13.7317428,18.7808599 C13.9998742,18.9459471 14.3381258,18.9459471 14.6062572,18.7808599 C14.8743887,18.6157726 15.0266836,18.3137455 15,18 L15,16.878 L24.378,16.878 C24.8339124,16.8714394 25.2,16.4999596 25.2,16.044 C25.2,15.5833945 24.8266055,15.21 24.366,15.21 L15,15.21 Z M2.4,15 C2.4,8.04121215 8.04121215,2.4 15,2.4 C21.9587878,2.4 27.6,8.04121215 27.6,15 C27.6,21.9587878 21.9587878,27.6 15,27.6 C11.6582722,27.6 8.45341293,26.2725038 6.09045456,23.9095454 C3.72749619,21.5465871 2.4,18.3417278 2.4,15 Z" id="Shape" fill-rule=""></path>
                    </g>
                </g>
            </g>
        </g>
    </g>
</svg>
