<?xml version="1.0" encoding="UTF-8"?>
<svg xmlns:xlink="http://www.w3.org/1999/xlink" width="30px" height="30px" viewBox="0 0 30 30" version="1.1" xmlns="http://www.w3.org/2000/svg">
    <!-- Generator: Sketch 55.2 (78181) - https://sketchapp.com -->
    <title></title>
    <desc>Created with Sketch.</desc>
    <g id="Page-1" stroke="none" stroke-width="1">
        <g id="切图稿" transform="translate(-760.000000, -801.000000)">
            <g id="what" transform="translate(730.000000, 724.000000)">
                <g id="how" transform="translate(30.000000, 77.000000)">
                    <g id="goutong-2">
                        <path d="M25.6975176,8.76784589 C25.9636897,9.66341005 26.0987235,10.5928099 26.0984123,11.5270917 C26.0984596,17.8702432 19.91422,23.0122228 12.2862116,23.0122228 C10.6904297,23.0122228 9.15966797,22.7866841 7.73423324,22.3733146 L9.9007844,21.039787 C10.6238974,21.1572581 11.3669512,21.2269563 12.1304183,21.2269563 C18.816485,21.2269563 24.2368322,16.484312 24.2368322,10.6336788 C24.2368322,4.78465222 18.816485,0.0420079385 12.1304183,0.0420079385 C5.44510774,0.0420079385 0.0240045363,4.78465222 0.0240045363,10.6336788 C0.0240045363,14.0233272 1.8507592,17.0331559 4.68012853,18.9726563 L4.68012853,24.2541268 L7.40889617,22.573762 C9.61773879,25.1490518 13.1342143,26.8144374 17.0969947,26.8144374 C17.8599893,26.8144374 18.6035156,26.7455897 19.3266287,26.6273627 L24.5472845,29.8407573 L24.5472845,24.5602319 C27.3774572,22.6207315 29.2029832,19.6115644 29.2029832,16.2220105 C29.2029832,13.3147209 27.8641161,10.6814989 25.6975176,8.76784589 M18.1834362,9.35425592 C18.9555034,9.35425592 19.5799521,9.97988596 19.5799521,10.7503465 C19.5799521,11.5223664 18.9555034,12.1479965 18.1834362,12.1479965 C17.4117944,12.1479965 16.7865423,11.5223664 16.7865423,10.7503465 C16.7865423,9.97988596 17.4117471,9.35425592 18.1834362,9.35425592 M12.5962859,9.35425592 C13.3675498,9.35425592 13.9931798,9.97988596 13.9931798,10.7503465 C13.9931798,11.5223664 13.3675498,12.1479965 12.5962859,12.1479965 C11.8250221,12.1479965 11.199392,11.5223664 11.199392,10.7503465 C11.1994393,9.97988596 11.8250693,9.35425592 12.5962859,9.35425592 M5.61191091,10.7503465 C5.61191091,9.97988596 6.23711568,9.35425592 7.00880481,9.35425592 C7.78082472,9.35425592 8.40527344,9.97988596 8.40527344,10.7503465 C8.40527344,11.5223664 7.78082472,12.1479965 7.00880481,12.1479965 C6.23711568,12.1479965 5.61191091,11.5223664 5.61191091,10.7503465" id="Shape"></path>
                    </g>
                </g>
            </g>
        </g>
    </g>
</svg>
