<?xml version="1.0" encoding="UTF-8"?>
<svg width="20px" height="13px" viewBox="0 0 20 13" version="1.1" xmlns="http://www.w3.org/2000/svg" xmlns:xlink="http://www.w3.org/1999/xlink">
    <!-- Generator: Sketch 55.2 (78181) - https://sketchapp.com -->
    <title>Taiwan</title>
    <desc>Created with Sketch.</desc>
    <g id="Page-1" stroke="none" stroke-width="1" fill="none" fill-rule="evenodd">
        <g id="Fides-suite-Legal-page-国旗切图" transform="translate(-638.000000, -34.000000)">
            <g id="Taiwan" transform="translate(638.000000, 34.000000)">
                <g id="taiwan">
                    <polygon id="Path" fill="#FE0000" fill-rule="nonzero" points="0 0 20 0 20 13 0 13"></polygon>
                    <polygon id="Path" fill="#000098" fill-rule="nonzero" points="0 0 9.95647155 0 9.95647155 6.63366511 0 6.63366511"></polygon>
                    <path d="M4.97823577,1.91363384 C5.08937455,1.91370326 5.20011247,1.92696062 5.30812687,1.95312784 L5.00677766,0.814107496 L4.67224022,1.94781772 C4.77267289,1.92521451 4.87529107,1.91375065 4.97823577,1.91363384 L4.97823577,1.91363384 Z M4.58196821,1.9707176 L3.75226224,1.13503775 L4.0280565,2.2853421 C4.18610328,2.13935016 4.3756334,2.03169614 4.58196821,1.9707176 Z M6.32435073,2.92056499 L7.16135811,2.09085903 L6.01105375,2.36665328 C6.15656712,2.52483246 6.26376107,2.71435227 6.32435073,2.92056499 L6.32435073,2.92056499 Z M3.96234379,2.34939541 L2.82498286,2.04041291 L3.63842659,2.89832886 C3.70285124,2.69292174 3.81368395,2.50509664 3.96234379,2.34939541 L3.96234379,2.34939541 Z M5.94567292,2.30094057 L6.25432355,1.16357964 L5.39640758,1.97702337 C5.60191365,2.04144554 5.78984736,2.15227533 5.94567292,2.30094057 L5.94567292,2.30094057 Z M7.48096085,3.34537444 L6.34691873,3.00884571 C6.39458801,3.21899805 6.39288399,3.43734092 6.34194049,3.64672365 L7.48096085,3.34537444 Z M4.97823577,4.71969939 C4.86710893,4.71976056 4.7563686,4.70661432 4.64834468,4.68053727 L4.94969389,5.81955762 L5.28589074,4.68551551 C5.18491675,4.70824024 5.08173534,4.71970484 4.97823577,4.71969939 L4.97823577,4.71969939 Z M5.37450334,4.66261563 L6.20420931,5.49862736 L5.92907881,4.34765924 C5.77093064,4.4939364 5.58114253,4.60172151 5.37450334,4.66261563 L5.37450334,4.66261563 Z M5.99379588,4.28426971 L7.13148869,4.59292032 L6.31771308,3.73500437 C6.2534223,3.94056882 6.14257579,4.12853087 5.99379588,4.28426971 Z M4.01079862,4.33239266 L3.70181613,5.46975359 L4.56006396,4.65630986 C4.35449951,4.59201908 4.16653746,4.48117257 4.01079862,4.33239266 Z M3.57503705,3.31683256 C3.57508769,3.20569265 3.58834531,3.09495252 3.61453106,2.98694146 L2.47551071,3.28795879 L3.61021659,3.62448752 C3.58733709,3.52352031 3.5755408,3.42035838 3.57503705,3.31683256 L3.57503705,3.31683256 Z M3.63212083,3.71310012 L2.79644097,4.54280609 L3.94674532,4.26701183 C3.80082087,4.10891573 3.69317629,3.91940221 3.63212083,3.71310012 Z" id="Shape" fill="#FFFFFF" fill-rule="nonzero"></path>
                    <path d="M3.75193036,3.31683256 C3.75193036,3.99410233 4.300966,4.54313797 4.97823577,4.54313797 C5.65550555,4.54313797 6.20454119,3.99410233 6.20454119,3.31683256 C6.20454119,2.63956278 5.65550555,2.09052714 4.97823577,2.09052714 C4.300966,2.09052714 3.75193036,2.63956278 3.75193036,3.31683256 L3.75193036,3.31683256 Z" id="Path" fill="#FFFFFF" fill-rule="nonzero"></path>
                </g>
            </g>
        </g>
    </g>
</svg>