<svg xmlns="http://www.w3.org/2000/svg" xmlns:xlink="http://www.w3.org/1999/xlink" viewBox="0 0 126 80">
  <defs>
    <style>
      .cls-1 {
        clip-path: url(#clip-券);
      }

      .cls-2 {
        fill: rgba(26,188,156,0.3);
      }

      .cls-3 {
        fill: #2777FF;
      }
    </style>
    <clipPath id="clip-券">
      <rect width="126" height="80"/>
    </clipPath>
  </defs>
  <g id="券" class="cls-1">
    <g id="组_101" data-name="组 101" transform="translate(0)">
      <path id="路径_99" data-name="路径 99" class="cls-2" d="M213.12,261.76c-2.88,14.08-47.36,23.68-97.28,23.68H214.4C215.04,273.28,214.4,265.6,213.12,261.76ZM94.2,235c3.52-4.48,8.64-8,15.36-11.2,9.6-4.16,30.72-9.36,52.48-11.6-22.08.32-44.16-.32-66.24-1.28Z" transform="translate(-92 -207.68)"/>
      <path id="路径_100" data-name="路径 100" class="cls-3" d="M190.4,247.68a16,16,0,0,1,0-31.36V196.8H74.4v19.52a16,16,0,0,1,0,31.36V267.2h116Zm4.8,0V267.2a4.921,4.921,0,0,1-4.8,4.8H74.4a4.921,4.921,0,0,1-4.8-4.8V247.68a5.1,5.1,0,0,1,3.84-4.8,11.086,11.086,0,0,0,0-21.76,4.824,4.824,0,0,1-3.84-4.8V196.8a4.921,4.921,0,0,1,4.8-4.8h116a4.921,4.921,0,0,1,4.8,4.8v19.52a5.1,5.1,0,0,1-3.84,4.8,11.086,11.086,0,0,0,0,21.76A5.1,5.1,0,0,1,195.2,247.68Z" transform="translate(-69.6 -192)"/>
      <path id="路径_103" data-name="路径 103" class="cls-3" d="M370.022,204.8h4.8V216h-4.8Zm0,16h4.8V232h-4.8Zm0,16h4.8V248h-4.8Zm0,16h4.8V264h-4.8Zm0,16h4.8V280h-4.8Z" transform="translate(-278.823 -203.2)"/>
    </g>
  </g>
</svg>
