<svg xmlns="http://www.w3.org/2000/svg" xmlns:xlink="http://www.w3.org/1999/xlink" viewBox="0 0 52 52">
  <defs>
    <style>
      .cls-1 {
        clip-path: url(#clip-ADD);
      }

      .cls-2 {
        fill: #2777FF;
      }

      .cls-3 {
        fill: #a7d8ce;
      }
    </style>
    <clipPath id="clip-ADD">
      <rect width="52" height="52"/>
    </clipPath>
  </defs>
  <g id="ADD" class="cls-1">
    <g id="新增等级" transform="translate(-71.613 -117)">
      <path id="路径_30" data-name="路径 30" class="cls-2" d="M97.27,164.352a1.4,1.4,0,0,1-.968-.383L71.719,141.014a1.409,1.409,0,0,1-.295-1.675l9.386-18.561A1.418,1.418,0,0,1,82.073,120h30.395a1.411,1.411,0,0,1,1.263.779l9.386,18.567a1.414,1.414,0,0,1-2.525,1.274l-9-17.788H82.946l-8.519,16.844,23.8,22.229a1.413,1.413,0,0,1-.962,2.448Z"/>
      <path id="路径_31" data-name="路径 31" class="cls-3" d="M233.678,213.9H211.312L204.4,227.7l18.1,17.062,18.1-17.056Zm-2.653,12.631-7.53,7.6a1.411,1.411,0,0,1-2,0l-7.53-7.6a1.429,1.429,0,0,1,0-2.013,1.4,1.4,0,0,1,1.994,0l6.53,6.592,6.53-6.592a1.4,1.4,0,0,1,1.994,0,1.429,1.429,0,0,1,.012,2.013Z" transform="translate(-125.225 -88.324)"/>
      <path id="路径_32" data-name="路径 32" class="cls-2" d="M587.194,674.051H569.425a1.425,1.425,0,0,1,0-2.851h17.768a1.425,1.425,0,1,1,0,2.851Z" transform="translate(-467.576 -518.696)"/>
      <path id="路径_33" data-name="路径 33" class="cls-2" d="M719.025,527.754a1.422,1.422,0,0,1-1.425-1.425v-20.9a1.425,1.425,0,1,1,2.851,0v20.9A1.422,1.422,0,0,1,719.025,527.754Z" transform="translate(-608.215 -361.502)"/>
    </g>
  </g>
</svg>
