<?xml version="1.0" standalone="no"?><!DOCTYPE svg PUBLIC "-//W3C//DTD SVG 1.1//EN" "http://www.w3.org/Graphics/SVG/1.1/DTD/svg11.dtd"><svg t="1568172695572" class="icon" viewBox="0 0 1024 1024" version="1.1" xmlns="http://www.w3.org/2000/svg" p-id="2104" xmlns:xlink="http://www.w3.org/1999/xlink" width="120" height="120"><defs><style type="text/css"></style></defs><path d="M246.401388 802.460348l692.39558 0 0 46.057989-692.39558 0 0-46.057989Z" p-id="2105"></path><path d="M246.401388 595.165118l692.39558 0 0 46.080501-692.39558 0 0-46.080501Z" p-id="2106"></path><path d="M246.401388 387.891378l692.39558 0 0 46.081525-692.39558 0 0-46.081525Z" p-id="2107"></path><path d="M246.401388 180.618661l692.39558 0 0 46.057989-692.39558 0 0-46.057989Z" p-id="2108"></path><path d="M86.874091 802.460348l99.939153 0 0 46.057989-99.939153 0 0-46.057989Z" p-id="2109"></path><path d="M86.874091 595.165118l99.939153 0 0 46.080501-99.939153 0 0-46.080501Z" p-id="2110"></path><path d="M86.874091 387.891378l99.939153 0 0 46.081525-99.939153 0 0-46.081525Z" p-id="2111"></path><path d="M86.874091 180.618661l99.939153 0 0 46.057989-99.939153 0 0-46.057989Z" p-id="2112"></path></svg>