<?xml version="1.0" encoding="UTF-8"?>
<svg xmlns:xlink="http://www.w3.org/1999/xlink" width="18px" height="18px" viewBox="0 0 18 18" version="1.1" xmlns="http://www.w3.org/2000/svg">
    <!-- Generator: Sketch 55.2 (78181) - https://sketchapp.com -->
    <title></title>
    <desc>Created with Sketch.</desc>
    <g id="Page-1" stroke="none" stroke-width="1" fill="none" fill-rule="evenodd">
        <g id="Spot-campaign-Campaign-details-Test" transform="translate(-755.000000, -698.000000)" fill="#2777FF" fill-rule="nonzero">
            <g id="Group-弹框组" transform="translate(735.000000, 247.000000)">
                <g id="form-01" transform="translate(0.000000, 440.000000)">
                    <g id="tishi-2" transform="translate(20.000000, 11.000000)">
                        <path d="M8.94886364,-7.10542736e-15 C4.0061897,0.000353022922 -0.000353022922,4.00746811 8.52651283e-14,8.95014205 C0.000353022923,13.892816 4.00746811,17.8993587 8.95014205,17.8990057 C13.892816,17.8986527 17.8993587,13.8915376 17.8990057,8.94886364 C17.8986527,4.0061897 13.8915376,-0.000353022922 8.94886364,-7.10542736e-15 Z M10.3512784,12.2420455 C9.67627841,13.2558239 8.98849432,14.0382102 7.8328125,14.0382102 C7.04403409,13.9090909 6.71931818,13.3427557 6.890625,12.7674716 L8.37741477,7.84303977 C8.41448864,7.72159091 8.35440341,7.59375 8.24446023,7.55411932 C8.13451705,7.51448864 7.91974432,7.65767045 7.73309659,7.8609375 L6.83565341,8.94247159 C6.81008523,8.76221591 6.83181818,8.46178977 6.83181818,8.34034091 C7.50809659,7.3265625 8.61647727,6.52627841 9.36946023,6.52627841 C10.0853693,6.60042614 10.4228693,7.171875 10.2988636,7.79957386 L8.80184659,12.7482955 C8.78267045,12.8607955 8.84147727,12.9732955 8.94247159,13.0090909 C9.05241477,13.0487216 9.28380682,12.9055398 9.47045455,12.7009943 L10.3678977,11.6207386 C10.3921875,11.8022727 10.3512784,12.121875 10.3512784,12.2420455 L10.3512784,12.2420455 Z M10.1518466,5.80909091 C9.58295455,5.80909091 9.12272727,5.39616477 9.12272727,4.78508523 C9.12272727,4.17528409 9.58423295,3.76107955 10.1518466,3.76107955 C10.7207386,3.76107955 11.1809659,4.17528409 11.1809659,4.78508523 C11.1809659,5.39616477 10.7207386,5.80909091 10.1518466,5.80909091 Z" id="Shape"></path>
                    </g>
                </g>
            </g>
        </g>
    </g>
</svg>
