<svg xmlns="http://www.w3.org/2000/svg" xmlns:xlink="http://www.w3.org/1999/xlink" viewBox="0 0 48 48">
  <defs>
    <style>
      .cls-1 {
        clip-path: url(#clip-Transaction_confirmation_1);
      }

      .cls-2 {
        fill: #fff;
      }
    </style>
    <clipPath id="clip-Transaction_confirmation_1">
      <rect width="48" height="48"/>
    </clipPath>
  </defs>
  <g id="Transaction_confirmation_1" data-name="Transaction confirmation – 1" class="cls-1">
    <path id="Transaction_confirmation" data-name="Transaction confirmation" class="cls-2" d="M114.63,48.749,111.27,22.064a3.006,3.006,0,0,0-2.984-2.631H103.1V16.358a9.315,9.315,0,1,0-18.629,0v3.075H79.288A3.008,3.008,0,0,0,76.3,22.064L72.945,48.749a2.929,2.929,0,0,0-.023.376v2.842a3.007,3.007,0,0,0,3.007,3.007h35.718a3.007,3.007,0,0,0,3.007-3.007V49.125a2.933,2.933,0,0,0-.023-.376ZM87.481,16.358a6.308,6.308,0,1,1,12.614,0v3.075H87.481V16.358ZM75.929,51.966V49.925H101.6a1,1,0,1,0,0-2H76.08L79.288,22.44h5.185v2.117a5.07,5.07,0,1,0,3.252,9.6,1,1,0,0,0-.691-1.882,3.064,3.064,0,0,1-2.561-5.546V29.4a1.5,1.5,0,0,0,3.008,0V26.731A3.066,3.066,0,0,1,89.042,29.4a1,1,0,1,0,2,0,5.077,5.077,0,0,0-3.566-4.842V22.44H100.1v2.117a5.071,5.071,0,1,0,3.252,9.6,1,1,0,1,0-.69-1.882,3.064,3.064,0,0,1-2.561-5.546V29.4a1.5,1.5,0,1,0,3.007,0V26.731a3.065,3.065,0,0,1,1.561,2.668,1,1,0,1,0,2.005,0,5.078,5.078,0,0,0-3.567-4.842V22.44h5.184L111.5,47.921h-4.567a1,1,0,1,0,0,2h4.719v2.041H75.929Z" transform="translate(-69.922 -6.973)"/>
  </g>
</svg>
