<svg xmlns="http://www.w3.org/2000/svg" xmlns:xlink="http://www.w3.org/1999/xlink" viewBox="0 0 72 72">
  <defs>
    <clipPath id="clip-What">
      <rect width="72" height="72"/>
    </clipPath>
  </defs>
  <g id="What" class="cls-1">
    <path id="huodong" class="cls-2" d="M162.6,99.851c3.315-8.287,11.049-5.525,11.049-5.525C168.124,100.4,162.6,99.851,162.6,99.851Zm-8.287-12.43s4.42-9.945,9.668-9.668C163.981,77.753,162.323,87.144,154.313,87.421Zm9.58,31.767c-21.836-2.725-38.372-17.64-39.73-37.292.664-2.762,2.193-3.626,4.583-4.144,16.551,3.818,28.994,16.984,36.616,37.291C164.344,116.425,166.293,118.037,163.893,119.188Zm-5.437-12.43c-6.7-10.06-12.475-20.111-28.182-22.1,2.957,13.909,14.212,24.908,29.563,27.623C159.837,110.441,158.456,108.6,158.456,106.757Zm-12.431-2.763-8.287-8.287S151.55,95.478,146.026,103.995Zm-4.143-24.861s3.453-12.89,6.906-11.049S146.947,78.9,141.882,79.134Zm-19.336,30.386c-1.412,2.879,7.708,11.636,11.049,11.049a16.726,16.726,0,0,1,17.955-1.381c.155.077.27.128.359.165-1.356-.378-10.239-1.764-26.219,13.646-2,2.6-19.645-7.55-16.956-15.192,10.42-10.962,12.737-17.695,13.812-26.242C126.591,97.524,125.513,103.473,122.546,109.519Zm31.265,21.235c-2.445,4.286-4.583,9.025-10.548,9.15-3.565-2.3-8.356-2.3-11.461-6.906l4.585-5.525C149.678,130,148.812,129.7,153.811,130.754Z" transform="translate(-105.456 -67.905)"/>
  </g>
</svg>
