<svg xmlns="http://www.w3.org/2000/svg" xmlns:xlink="http://www.w3.org/1999/xlink" viewBox="0 0 48 48">
  <defs>
    <style>
      .cls-1 {
        clip-path: url(#clip-Points_redemption_1);
      }

      .cls-2 {
        fill: #fff;
      }
    </style>
    <clipPath id="clip-Points_redemption_1">
      <rect width="48" height="48"/>
    </clipPath>
  </defs>
  <g id="Points_redemption_1" data-name="Points redemption – 1" class="cls-1">
    <path id="路径_1" data-name="路径 1" class="cls-2" d="M133.067,161.671c-1.132-1.7-3.733-4.278-7.143-4.241-11.872,1.963-5.653,9.026-29.5-3.068a1.712,1.712,0,0,0-1.006-.237H85.814a.48.48,0,0,0-.48.48v19.935a.48.48,0,0,0,.48.48h26.622l20.5-11.254a.444.444,0,0,0,.2-.21,1.966,1.966,0,0,0-.064-1.885ZM93.019,172.137a.48.48,0,0,1-.48.48H88.216a.48.48,0,0,1-.48-.48V157.006a.48.48,0,0,1,.48-.48h4.323a.48.48,0,0,1,.48.48v15.132Zm18.608.455H95.421V156.526h.834l16.1,6.839c-1.568.847-3.009,1.327-7.61.733,0,0-6.093-1.209-6.106-1.206a.911.911,0,0,0-.66.09,1.056,1.056,0,0,0-.581.946,1.02,1.02,0,0,0,.834.961c.014.005.026.013.041.018l6.068,1.214a14.033,14.033,0,0,0,8.9-.809s5.259-2.832,8.9-4.854c4.045-2.427,7.041.721,8.255,1.934l-18.772,10.2Z" transform="translate(-85.333 -127.267)"/>
    <path id="交易01" class="cls-2" d="M224.32,202.426a3.6,3.6,0,0,0,.408-1.553v-2.289c0-3.757-6.047-6.783-13.567-6.783s-13.567,3.026-13.567,6.783a1.548,1.548,0,0,1,.085-.572c-2.777,1.224-4.579,3.106-4.579,5.066v2.29c0,2.125,1.881,4.007,4.9,5.231a3.708,3.708,0,0,0-.408,1.553v2.29a4.142,4.142,0,0,0,.816,2.289,4.085,4.085,0,0,0-.816,2.29v1.187c7.882,3.619,11.432,6.145,15.939,6.9s11.195-2.031,11.195-5.794v-2.289a4.1,4.1,0,0,0-.816-2.29,3.583,3.583,0,0,0,.737-1.717c2.777-1.224,4.579-3.021,4.579-5.066v-2.289C229.227,205.531,227.346,203.655,224.32,202.426Zm-13.159-9.481c7.356,0,12.422,2.941,12.422,5.639s-5.066,5.639-12.422,5.639-12.422-2.941-12.422-5.639S203.89,192.945,211.161,192.945Zm-16.916,10.138c0-1.309,1.224-2.7,3.349-3.757v1.553c0,3.763,6.047,6.783,13.567,6.783,1.145,0,2.2-.079,3.27-.164a21.4,21.4,0,0,1-7.764,1.309C199.311,208.722,194.245,205.781,194.245,203.083Zm29.344,15.856c0,2.7-5.066,5.639-12.422,5.639s-12.422-2.941-12.422-5.639a2.183,2.183,0,0,1,.493-1.309c2.289,2.125,6.783,3.6,12.014,3.6s9.725-1.473,11.935-3.6A2.524,2.524,0,0,1,223.589,218.939Zm-4.664-2.454a21.381,21.381,0,0,1-7.764,1.309c-7.356,0-12.422-2.941-12.422-5.639a3.021,3.021,0,0,1,.329-1.145,24.076,24.076,0,0,0,3.678.9c1.717,2.783,6.863,4.823,12.995,4.823C216.8,216.65,217.865,216.565,218.925,216.486Zm-3.27-3.185a22.108,22.108,0,0,1-7.441-1.23c6.375-.408,11.362-2.941,11.935-6.132a9.38,9.38,0,0,0,3.593-2.533c2.7,1.145,4.415,2.7,4.415,4.25-.074,2.618-5.14,5.644-12.5,5.644Z" transform="translate(-187.112 -191.8)"/>
  </g>
</svg>
