<svg xmlns="http://www.w3.org/2000/svg" xmlns:xlink="http://www.w3.org/1999/xlink" viewBox="0 0 72 72">
  <defs>
    <clipPath id="clip-path">
      <rect id="矩形_4" data-name="矩形 4" class="cls-1" width="71.832" height="72"/>
    </clipPath>
    <clipPath id="clip-When">
      <rect width="72" height="72"/>
    </clipPath>
  </defs>
  <g id="When" class="cls-2">
    <g id="WHEN_1" data-name="WHEN – 1" class="cls-3">
      <path id="时间" class="cls-1" d="M108.2,79.888H86.635a1.762,1.762,0,1,0,0,3.521H108.2a1.762,1.762,0,1,0,0-3.521Zm0,10.826H86.635a1.762,1.762,0,1,0,0,3.521H108.2a1.762,1.762,0,1,0,0-3.521Zm0,10.826H86.635a1.762,1.762,0,1,0,0,3.521H108.2a1.762,1.762,0,1,0,0-3.521ZM77.842,72.4,92.806,57.441a1.806,1.806,0,1,0-2.554-2.554L75.288,69.851l-9.859-9.859a1.806,1.806,0,1,0-2.554,2.554L72.734,72.4l-2.813,2.818a1.806,1.806,0,0,0,2.554,2.554l2.818-2.818,2.9,2.9a1.806,1.806,0,1,0,2.554-2.554ZM73.258,33.146a36,36,0,0,0,2.554,71.916,15.587,15.587,0,0,0,2.026-.089,1.716,1.716,0,0,0,1.584-1.68v-.353a1.692,1.692,0,0,0-1.762-1.68V92.476a1.985,1.985,0,0,0-1.584-1.937A1.834,1.834,0,0,0,74.05,92.3v8.88A32.414,32.414,0,0,1,43.5,70.725h8.8a1.985,1.985,0,0,0,1.937-1.584,1.834,1.834,0,0,0-1.762-2.026H43.5A32.741,32.741,0,0,1,73.961,36.767v8.8a1.985,1.985,0,0,0,1.584,1.937,1.834,1.834,0,0,0,2.026-1.762V36.767a32.611,32.611,0,0,1,30.456,30.456h-8.8a1.985,1.985,0,0,0-1.937,1.584,1.834,1.834,0,0,0,1.762,2.026h8.88a19.26,19.26,0,0,1-.353,2.376,1.814,1.814,0,0,0,1.762,2.112,1.966,1.966,0,0,0,1.865-1.594,28.077,28.077,0,0,0,.439-4.754A35.794,35.794,0,0,0,73.258,33.146Z" transform="translate(-39.802 -33.064)"/>
    </g>
  </g>
</svg>
