<svg xmlns="http://www.w3.org/2000/svg" xmlns:xlink="http://www.w3.org/1999/xlink" viewBox="0 0 122.57 72">
  <defs>
    <clipPath id="clip-Who">
      <rect width="122.57" height="72"/>
    </clipPath>
  </defs>
  <g id="Who" class="cls-1">
    <path id="whoweare" class="cls-2" d="M52.459,270.566c1.54-.638,3.172-1.337,4.759-2.022a2.776,2.776,0,0,1-.358-.513,5.555,5.555,0,0,1-.684-3l5.6-.9a14.891,14.891,0,0,0,1.648-2.815,28.186,28.186,0,0,0,1.229-3.188,16.919,16.919,0,0,0,.7-4.214,19.419,19.419,0,0,0-.14-3.686,28.759,28.759,0,0,0-2.721-9.1,17.574,17.574,0,0,0-2.737-4.09,13.348,13.348,0,0,0-3.857-2.955,10.848,10.848,0,0,0-4.976-1.12c-.42,0-.809.016-1.182.031s-.778.047-1.182.078a13.547,13.547,0,0,0-4.308.731,13.169,13.169,0,0,0-5.909,3.281,14.733,14.733,0,0,0-3.312,5.007,21.016,21.016,0,0,0-1.384,5.832c-.187,2.037-.28,3.966-.28,5.754a20.63,20.63,0,0,0,.56,5.3,13.879,13.879,0,0,0,1.26,3.235A5.928,5.928,0,0,0,37,264.3l4.868.731a10.269,10.269,0,0,1,0,1.384,2.9,2.9,0,0,1-.373,1.229,5.015,5.015,0,0,1-.917,1.166,9,9,0,0,1-1.664,1.275,11.328,11.328,0,0,1-3.421,1.431c-1.291.327-2.566.684-3.779,1.12a11.576,11.576,0,0,0-3.188,1.711,4.68,4.68,0,0,0-1.726,3.141,22.142,22.142,0,0,0-.2,5.863c.2,1.524.5,2.442.871,2.737a9.765,9.765,0,0,0,2.939.933c1.617.358,3.5.7,5.63,1.042,1.975.311,4.012.575,6.1.793,0-2.006.062-4.588.109-6.92.047-1.648.078-3.219.078-4.2v-.249l.078-.233c1.26-3.608,4.665-4.774,7.682-5.8C50.888,271.173,51.7,270.893,52.459,270.566ZM148.114,283.6a11.311,11.311,0,0,0-4.37-5.023c-3.7-2.55-8.211-3.483-12.1-5.676a6.612,6.612,0,0,1-3.11-3.266,53.111,53.111,0,0,1-.156-6.1,6.371,6.371,0,0,0,1.586-1.991,15.245,15.245,0,0,0,1.711-5.085,2.413,2.413,0,0,0,1.54-1.026,7.135,7.135,0,0,0,1.026-3.359,3.1,3.1,0,0,0-1.135-2.721,26.64,26.64,0,0,0,1.368-10.466,8.9,8.9,0,0,0-2.566-5.738,7.61,7.61,0,0,0-4.043-1.757,4.541,4.541,0,0,0-1.384-1.337,9.886,9.886,0,0,0-5.07-1.2c-3.079.047-6.314.56-8.864,2.395a9.2,9.2,0,0,0-2.955,3.546,14.026,14.026,0,0,0-1.26,5.505,31.792,31.792,0,0,0,1.166,9.051,3.083,3.083,0,0,0-1.151,2.566,8.082,8.082,0,0,0,.653,2.83,2.728,2.728,0,0,0,1.928,1.726,14.6,14.6,0,0,0,1.6,4.805,6.974,6.974,0,0,0,1.757,2.27,53.108,53.108,0,0,1-.156,6.1,3.578,3.578,0,0,1-.373.778,1.824,1.824,0,0,1,.171.078c.762.311,1.571.591,2.379.871,3.017,1.042,6.423,2.208,7.682,5.8l.078.233v.249c0,.98.031,2.535.078,4.183.047,1.928.093,4.059.109,5.863h24.789A11.978,11.978,0,0,0,148.114,283.6ZM112.922,271.95c-3.95-1.648-8.32-3.561-12.254-5.163-1.135-.311-2.255-.607-3.375-.917-1.353-.918-2.659-3.966-3.375-5.474-.715-.093-1.431-.2-2.146-.311.109-2.333,1.571-2.457,2.146-4.246.5-1.586.047-3.639.855-5.085.56-1.011,1.819-1.026,2.442-1.9a8.442,8.442,0,0,0,1.12-3.141c.327-1.757.607-4.183-.233-5.925-.482-1.011-.793-1.1-.933-2.333-.156-1.477.435-6.314.467-7.356a14.434,14.434,0,0,0-.669-5.567s-.809-2.395-2.068-3.11l-2.5-.435-1.555-1.431c-6.236-3.81-12.939-1.135-16.531.311-5.163,1.664-8.444,6.687-6.158,17.417.389,1.835-1.011,2.644-.918,3.655.2,2.193.249,7.449,2.333,8.74a5.628,5.628,0,0,0,1.664.373l.607,6.392c.513,1.415,1.773,1.571,2.131,3.561l-1.6.389c-.715,1.508-2.022,4.557-3.375,5.474-1.12.311-2.239.606-3.359.917-3.95,1.6-8.32,3.515-12.27,5.163-3.592,1.508-7.9,2.053-9.206,5.785,0,2.535-.233,8.538-.171,11.866H78.367l2.519-17.091-2.1-4.4,4.836-2.3,4.074,2.255-2.239,4.525L89.44,289.6H122.3c.062-3.328-.171-9.315-.171-11.866C120.822,274,116.53,273.459,112.922,271.95Z" transform="translate(-26.333 -217.101)"/>
  </g>
</svg>
