<svg xmlns="http://www.w3.org/2000/svg" xmlns:xlink="http://www.w3.org/1999/xlink" viewBox="0 0 48 48">
  <defs>
    <style>
      .cls-1 {
        clip-path: url(#clip-trip_reminder_1);
      }

      .cls-2 {
        fill: #fff;
      }
    </style>
    <clipPath id="clip-trip_reminder_1">
      <rect width="48" height="48"/>
    </clipPath>
  </defs>
  <g id="trip_reminder_1" data-name="trip reminder – 1" class="cls-1">
    <path id="trip_reminder" data-name="trip reminder" class="cls-2" d="M139.615,74.784H105.063a4.764,4.764,0,0,0-4.711,4.8v22.4a4.8,4.8,0,0,0,3.343,4.595,4.685,4.685,0,0,0,8.95.207h19.384a4.685,4.685,0,0,0,8.952-.207A4.806,4.806,0,0,0,144.324,102V79.586a4.763,4.763,0,0,0-4.711-4.8Zm1.569,27.2a1.588,1.588,0,0,1-1.569,1.6h-1.573v1.6a1.571,1.571,0,1,1-3.142.012v-1.617H109.777v1.6a1.571,1.571,0,1,1-3.142.017v-1.619h-1.573A1.584,1.584,0,0,1,103.494,102V79.582a1.585,1.585,0,0,1,1.569-1.6h34.553a1.588,1.588,0,0,1,1.569,1.6v22.4Zm-28.268-30.4A1.584,1.584,0,0,0,114.488,70V66.782a1.584,1.584,0,0,1,1.571-1.6h12.565a1.586,1.586,0,0,1,1.569,1.6v3.2a1.571,1.571,0,1,0,3.142.014V66.782a4.764,4.764,0,0,0-4.714-4.8H116.055a4.762,4.762,0,0,0-4.706,4.8v3.2a1.585,1.585,0,0,0,1.571,1.6m0,11.2a1.584,1.584,0,0,0-1.571,1.584V97.184a1.571,1.571,0,1,0,3.142.015V84.382a1.584,1.584,0,0,0-1.571-1.6m18.845,0a1.588,1.588,0,0,0-1.571,1.586V97.185a1.571,1.571,0,1,0,3.142.017V84.383a1.584,1.584,0,0,0-1.571-1.6" transform="translate(-98.352 -61.984)"/>
  </g>
</svg>
