<svg xmlns="http://www.w3.org/2000/svg" xmlns:xlink="http://www.w3.org/1999/xlink" viewBox="0 0 72 72">
  <defs>
    <style>
      .cls-1 {
        clip-path: url(#clip-What_1);
      }

      .cls-2 {
        fill: #8fbf5f;
      }
    </style>
    <clipPath id="clip-What_1">
      <rect width="72" height="72"/>
    </clipPath>
  </defs>
  <g id="What_1" data-name="What – 1" class="cls-1">
    <path id="goutong" class="cls-2" d="M335.755,21.083a22.848,22.848,0,0,1,1,6.664c0,15.323-15.251,27.76-34.079,27.76a41.232,41.232,0,0,1-11.235-1.543l5.345-3.219a35.469,35.469,0,0,0,5.5.452c16.5,0,29.877-11.466,29.877-25.605S318.775,0,302.288,0s-29.877,11.452-29.877,25.592c0,8.194,4.508,15.469,11.488,20.151V58.5l6.728-4.07c5.452,6.225,14.134,10.255,23.907,10.255a35.6,35.6,0,0,0,5.5-.452L332.923,72V59.257c6.981-4.682,11.488-11.958,11.488-20.151a23.815,23.815,0,0,0-8.656-18.023m-18.535,1.41a3.379,3.379,0,1,1-3.444,3.379,3.414,3.414,0,0,1,3.444-3.379m-13.788,0a3.379,3.379,0,1,1-3.444,3.379,3.414,3.414,0,0,1,3.444-3.379M286.2,25.871a3.444,3.444,0,1,1,3.444,3.379,3.414,3.414,0,0,1-3.444-3.379M286.2,25.871Z" transform="translate(-272.411)"/>
  </g>
</svg>
